<?xml version="1.0"?>
<svg width="2842" height="1352" xmlns="http://www.w3.org/2000/svg" version="1.1">
 <polygon points="4,1349 4,4 2839,4 2839,1349 4,1349" stroke="#ffffff" fill="#ffffff"/>
 <polygon points="24,1340 102,1340 315,1340 628,1340 1007,1340 1421,1340 1835,1340 2214,1340 2527,1340 2740,1340 2818,1340 2820,1340 2822,1339 2823,1339 2825,1338 2826,1336 2828,1335 2829,1333 2829,1332 2830,1330 2830,1328 2830,1291 2830,1192 2830,1046 2830,869 2830,676 2830,483 2830,306 2830,160 2830,61 2830,24 2830,22 2829,20 2829,19 2828,17 2826,16 2825,14 2823,13 2822,13 2820,12 2818,12 2740,12 2527,12 2214,12 1835,12 1421,12 1007,12 628,12 315,12 102,12 24,12 22,12 20,13 19,13 17,14 16,16 14,17 13,19 13,20 12,22 12,24 12,61 12,160 12,306 12,483 12,676 12,869 12,1046 12,1192 12,1291 12,1328 12,1330 13,1332 13,1333 14,1335 16,1336 17,1338 19,1339 20,1339 22,1340 24,1340" stroke="#000000" fill="#FFFFCC"/>
 <text x="1414" y="28" fill="#000000" font-family="Arial" font-size="12">jni</text>
 <polygon points="405,46 316,46 313,49 313,72 402,72 405,69 405,46" stroke="#bebebe" fill="#ffffff"/>
 <polyline points="402,49 313,49" stroke="#bebebe" fill="none"/>
 <polyline points="402,49 402,72" stroke="#bebebe" fill="none"/>
 <polyline points="402,49 405,46" stroke="#bebebe" fill="none"/>
 <text x="321" y="62" fill="#000000" font-family="Arial" font-size="12">jni/FIR16.h</text>
 <polygon points="142,51 35,51 32,54 32,77 139,77 142,74 142,51" stroke="#bebebe" fill="#ffffff"/>
 <polyline points="139,54 32,54" stroke="#bebebe" fill="none"/>
 <polyline points="139,54 139,77" stroke="#bebebe" fill="none"/>
 <polyline points="139,54 142,51" stroke="#bebebe" fill="none"/>
 <text x="40" y="67" fill="#000000" font-family="Arial" font-size="12">jni/FIR16.cpp</text>
 <polyline points="142,63 157,63 174,62 191,62 208,62 226,62 243,61 261,61 277,61 293,60 308,60" stroke="#0000cd" fill="none"/>
 <text x="201" y="56" fill="#000000" font-family="Arial" font-size="12">13</text>
 <polygon points="308,58 313,60 308,62 308,58" stroke="#0000cd" fill="#0000cd"/>
 <polygon points="1019,952 856,952 853,955 853,978 1016,978 1019,975 1019,952" stroke="#bebebe" fill="#ffffff"/>
 <polyline points="1016,955 853,955" stroke="#bebebe" fill="none"/>
 <polyline points="1016,955 1016,978" stroke="#bebebe" fill="none"/>
 <polyline points="1016,955 1019,952" stroke="#bebebe" fill="none"/>
 <text x="861" y="968" fill="#000000" font-family="Arial" font-size="12">jni/effect_cvirtualizer.h</text>
 <polygon points="731,872 578,872 575,875 575,898 728,898 731,895 731,872" stroke="#bebebe" fill="#ffffff"/>
 <polyline points="728,875 575,875" stroke="#bebebe" fill="none"/>
 <polyline points="728,875 728,898" stroke="#bebebe" fill="none"/>
 <polyline points="728,875 731,872" stroke="#bebebe" fill="none"/>
 <text x="583" y="888" fill="#000000" font-family="Arial" font-size="12">jni/EffectVirtualizer.h</text>
 <polyline points="690,898 696,900 702,903 709,905 715,908 722,911 729,913 735,916 742,920 748,923 754,926 759,929 763,931 766,934 769,936 772,939 774,941 777,943 781,945 785,947 790,949 795,951 801,952 807,954 812,955 818,957 824,958 830,959 836,960 841,961 847,962" stroke="#0000cd" fill="none"/>
 <text x="795" y="943" fill="#000000" font-family="Arial" font-size="12">1</text>
 <polygon points="848,960 853,962 847,964 848,960" stroke="#0000cd" fill="#0000cd"/>
 <polygon points="1497,410 1412,410 1409,413 1409,436 1494,436 1497,433 1497,410" stroke="#bebebe" fill="#ffffff"/>
 <polyline points="1494,413 1409,413" stroke="#bebebe" fill="none"/>
 <polyline points="1494,413 1494,436" stroke="#bebebe" fill="none"/>
 <polyline points="1494,413 1497,410" stroke="#bebebe" fill="none"/>
 <text x="1417" y="426" fill="#000000" font-family="Arial" font-size="12">jni/Effect.h</text>
 <polyline points="731,885 742,885 753,885 764,886 775,886 787,886 798,886 810,886 821,886 833,886 844,886 867,887 887,889 905,891 922,894 938,896 954,898 970,898 987,896 1006,893 1028,886 1033,884 1037,881 1041,879 1044,876 1046,873 1049,870 1052,866 1055,863 1059,860 1064,857 1070,854 1076,851 1081,849 1085,847 1090,846 1095,844 1099,843 1105,842 1111,841 1118,839 1136,836 1158,835 1184,834 1211,833 1240,833 1267,831 1294,829 1318,824 1337,818 1352,809 1368,788 1383,758 1397,721 1409,678 1419,633 1428,586 1436,542 1442,501 1447,467 1450,441" stroke="#0000cd" fill="none"/>
 <text x="1069" y="842" fill="#000000" font-family="Arial" font-size="12">2</text>
 <polygon points="1448,441 1451,436 1452,442 1448,441" stroke="#0000cd" fill="#0000cd"/>
 <polygon points="1277,544 1142,544 1139,547 1139,570 1274,570 1277,567 1277,544" stroke="#bebebe" fill="#ffffff"/>
 <polyline points="1274,547 1139,547" stroke="#bebebe" fill="none"/>
 <polyline points="1274,547 1274,570" stroke="#bebebe" fill="none"/>
 <polyline points="1274,547 1277,544" stroke="#bebebe" fill="none"/>
 <text x="1147" y="560" fill="#000000" font-family="Arial" font-size="12">jni/Biquad4proc.h</text>
 <polyline points="731,876 765,872 801,868 840,863 878,858 915,853 949,849 979,844 1003,840 1020,836 1028,833 1033,825 1041,807 1051,782 1062,752 1074,720 1086,687 1097,657 1106,632 1114,614 1118,605 1122,601 1126,597 1131,593 1136,590 1140,586 1145,583 1150,580 1155,577 1160,574 1165,572" stroke="#0000cd" fill="none"/>
 <text x="932" y="827" fill="#000000" font-family="Arial" font-size="12">2</text>
 <polygon points="1164,571 1170,570 1166,574 1164,571" stroke="#0000cd" fill="#0000cd"/>
 <polygon points="980,780 895,780 893,783 893,806 977,806 980,803 980,780" stroke="#bebebe" fill="#ffffff"/>
 <polyline points="977,783 893,783" stroke="#bebebe" fill="none"/>
 <polyline points="977,783 977,806" stroke="#bebebe" fill="none"/>
 <polyline points="977,783 980,780" stroke="#bebebe" fill="none"/>
 <text x="901" y="796" fill="#000000" font-family="Arial" font-size="12">jni/Delay.h</text>
 <polyline points="722,872 725,871 729,870 732,869 735,868 738,868 742,867 745,866 748,865 751,864 754,863 761,861 767,858 772,856 777,854 781,852 786,850 790,848 796,845 801,842 808,839 812,837 816,835 820,833 823,831 826,829 829,827 832,826 835,824 839,822 844,820 848,818 853,817 857,815 861,813 866,812 870,810 874,809 878,808 883,806 887,805" stroke="#0000cd" fill="none"/>
 <text x="795" y="833" fill="#000000" font-family="Arial" font-size="12">3</text>
 <polygon points="887,804 892,804 888,807 887,804" stroke="#0000cd" fill="#0000cd"/>
 <polygon points="1261,614 1158,614 1155,617 1155,640 1258,640 1261,637 1261,614" stroke="#bebebe" fill="#ffffff"/>
 <polyline points="1258,617 1155,617" stroke="#bebebe" fill="none"/>
 <polyline points="1258,617 1258,640" stroke="#bebebe" fill="none"/>
 <polyline points="1258,617 1261,614" stroke="#bebebe" fill="none"/>
 <text x="1163" y="630" fill="#000000" font-family="Arial" font-size="12">jni/Effect.cpp</text>
 <polyline points="731,884 737,884 743,884 749,883 755,883 761,883 766,883 772,883 778,883 784,883 790,883 797,883 815,883 842,883 874,883 909,883 944,883 977,883 1003,882 1021,882 1028,882 1038,874 1045,865 1050,856 1053,847 1054,838 1055,828 1056,817 1057,806 1060,794 1064,781 1068,770 1071,757 1076,742 1081,726 1086,710 1091,693 1097,678 1104,664 1111,653 1118,645 1121,643 1124,641 1127,639 1130,637 1133,636 1136,634 1139,633 1143,632 1146,631 1150,630" stroke="#0000cd" fill="none"/>
 <text x="932" y="876" fill="#000000" font-family="Arial" font-size="12">1</text>
 <polygon points="1149,628 1155,629 1150,632 1149,628" stroke="#0000cd" fill="#0000cd"/>
 <polyline points="1238,614 1244,611 1249,608 1255,605 1261,602 1268,598 1274,595 1280,591 1286,587 1292,583 1298,579 1315,565 1332,551 1349,536 1365,520 1380,505 1395,490 1408,475 1419,462 1430,450 1438,440" stroke="#0000cd" fill="none"/>
 <text x="1339" y="530" fill="#000000" font-family="Arial" font-size="12">5</text>
 <polygon points="1437,439 1442,436 1440,441 1437,439" stroke="#0000cd" fill="#0000cd"/>
 <polygon points="1024,1242 851,1242 849,1245 849,1268 1021,1268 1024,1265 1024,1242" stroke="#bebebe" fill="#ffffff"/>
 <polyline points="1021,1245 849,1245" stroke="#bebebe" fill="none"/>
 <polyline points="1021,1245 1021,1268" stroke="#bebebe" fill="none"/>
 <polyline points="1021,1245 1024,1242" stroke="#bebebe" fill="none"/>
 <text x="857" y="1258" fill="#000000" font-family="Arial" font-size="12">jni/effect_cbassboost.h</text>
 <polygon points="154,584 23,584 21,587 21,610 151,610 154,607 154,584" stroke="#bebebe" fill="#ffffff"/>
 <polyline points="151,587 21,587" stroke="#bebebe" fill="none"/>
 <polyline points="151,587 151,610" stroke="#bebebe" fill="none"/>
 <polyline points="151,587 154,584" stroke="#bebebe" fill="none"/>
 <text x="29" y="600" fill="#000000" font-family="Arial" font-size="12">jni/jamesdsp.cpp</text>
 <polyline points="89,610 91,631 95,659 100,694 107,735 116,779 126,827 138,877 153,926 170,976 190,1023 197,1038 202,1051 208,1063 213,1073 219,1083 225,1093 233,1101 242,1110 253,1119 266,1128 322,1160 382,1186 444,1207 508,1224 571,1237 633,1246 692,1252 748,1256 799,1258 843,1258" stroke="#0000cd" fill="none"/>
 <text x="498" y="1213" fill="#000000" font-family="Arial" font-size="12">1</text>
 <polygon points="843,1257 848,1258 843,1260 843,1257" stroke="#0000cd" fill="#0000cd"/>
 <polygon points="1018,342 857,342 854,345 854,368 1015,368 1018,365 1018,342" stroke="#bebebe" fill="#ffffff"/>
 <polyline points="1015,345 854,345" stroke="#bebebe" fill="none"/>
 <polyline points="1015,345 1015,368" stroke="#bebebe" fill="none"/>
 <polyline points="1015,345 1018,342" stroke="#bebebe" fill="none"/>
 <text x="862" y="358" fill="#000000" font-family="Arial" font-size="12">jni/effect_cequalizer.h</text>
 <polyline points="98,584 104,577 110,569 118,560 126,550 136,540 146,529 156,519 167,509 178,500 190,491 199,485 206,480 213,476 220,473 227,471 233,468 240,466 248,463 256,460 266,456 293,444 316,434 337,424 356,415 375,407 393,400 413,393 435,386 459,381 488,375 525,370 557,367 586,366 613,367 638,369 664,372 691,375 720,378 753,381 790,382 792,382 794,382 796,382 797,382 799,382 801,382 802,382 804,382 806,382 808,382 815,381 823,380 830,379 837,378 845,376 852,375 860,373 867,372 874,370 881,369" stroke="#0000cd" fill="none"/>
 <text x="498" y="365" fill="#000000" font-family="Arial" font-size="12">2</text>
 <polygon points="880,367 886,368 881,371 880,367" stroke="#0000cd" fill="#0000cd"/>
 <polygon points="1298,263 1121,263 1119,266 1119,289 1295,289 1298,286 1298,263" stroke="#bebebe" fill="#ffffff"/>
 <polyline points="1295,266 1119,266" stroke="#bebebe" fill="none"/>
 <polyline points="1295,266 1295,289" stroke="#bebebe" fill="none"/>
 <polyline points="1295,266 1298,263" stroke="#bebebe" fill="none"/>
 <text x="1127" y="279" fill="#000000" font-family="Arial" font-size="12">jni/effect_cstereowide.h</text>
 <polyline points="89,584 91,560 94,527 100,487 109,442 122,393 140,344 162,295 190,249 225,209 266,176 302,162 365,148 447,135 542,124 644,114 746,106 842,101 925,100 989,102 1028,109 1041,116 1057,127 1074,141 1093,157 1112,175 1130,194 1148,212 1165,230 1180,246 1192,259" stroke="#0000cd" fill="none"/>
 <text x="649" y="100" fill="#000000" font-family="Arial" font-size="12">1</text>
 <polygon points="1193,258 1195,263 1191,260 1193,258" stroke="#0000cd" fill="#0000cd"/>
 <polyline points="101,610 107,616 115,623 123,631 131,639 141,648 150,656 160,665 170,674 180,683 190,691 229,722 264,748 296,769 327,787 358,803 390,816 424,827 461,839 504,850 552,863 555,864 558,865 561,865 565,866 568,867 571,868 575,869 578,869 581,870 584,871" stroke="#0000cd" fill="none"/>
 <text x="355" y="744" fill="#000000" font-family="Arial" font-size="12">1</text>
 <polygon points="585,869 589,872 584,873 585,869" stroke="#0000cd" fill="#0000cd"/>
 <polyline points="94,610 101,625 110,644 122,666 136,691 152,717 171,744 192,770 215,796 239,819 266,839 323,872 383,899 446,921 510,937 574,950 637,959 697,965 753,968 804,969 848,969" stroke="#0000cd" fill="none"/>
 <text x="498" y="927" fill="#000000" font-family="Arial" font-size="12">1</text>
 <polygon points="848,967 853,969 848,971 848,967" stroke="#0000cd" fill="#0000cd"/>
 <polyline points="89,584 91,565 94,539 98,508 104,471 112,431 122,389 135,346 150,303 169,261 190,221 217,182 245,152 275,131 307,116 340,106 376,99 415,96 457,93 503,89 552,84 646,70 730,53 808,38 880,25 949,18 1015,17 1082,27 1150,47 1221,82 1298,133 1325,156 1349,184 1370,213 1389,244 1405,276 1418,307 1428,337 1437,364 1443,387 1448,405" stroke="#0000cd" fill="none"/>
 <text x="795" y="33" fill="#000000" font-family="Arial" font-size="12">2</text>
 <polygon points="1450,404 1449,410 1446,405 1450,404" stroke="#0000cd" fill="#0000cd"/>
 <polygon points="737,1129 572,1129 570,1132 570,1155 734,1155 737,1152 737,1129" stroke="#bebebe" fill="#ffffff"/>
 <polyline points="734,1132 570,1132" stroke="#bebebe" fill="none"/>
 <polyline points="734,1132 734,1155" stroke="#bebebe" fill="none"/>
 <polyline points="734,1132 737,1129" stroke="#bebebe" fill="none"/>
 <text x="578" y="1145" fill="#000000" font-family="Arial" font-size="12">jni/EffectBassBoost.h</text>
 <polyline points="89,610 90,629 93,655 97,688 103,724 110,764 120,807 133,850 149,894 168,936 190,975 217,1010 249,1039 285,1064 325,1084 366,1101 408,1114 450,1124 491,1132 529,1137 564,1140" stroke="#0000cd" fill="none"/>
 <text x="355" y="1049" fill="#000000" font-family="Arial" font-size="12">1</text>
 <polygon points="564,1138 569,1140 564,1142 564,1138" stroke="#0000cd" fill="#0000cd"/>
 <polygon points="1028,460 847,460 845,463 845,486 1025,486 1028,483 1028,460" stroke="#bebebe" fill="#ffffff"/>
 <polyline points="1025,463 845,463" stroke="#bebebe" fill="none"/>
 <polyline points="1025,463 1025,486" stroke="#bebebe" fill="none"/>
 <polyline points="1025,463 1028,460" stroke="#bebebe" fill="none"/>
 <text x="853" y="476" fill="#000000" font-family="Arial" font-size="12">jni/EffectCompression.h</text>
 <polyline points="100,584 109,575 121,563 134,551 149,538 166,524 184,511 203,498 224,486 245,476 266,467 289,463 332,460 390,457 458,454 530,452 603,450 670,449 727,448 769,447 790,447 792,447 794,447 796,447 797,447 799,447 801,447 802,447 804,447 806,447 808,447 815,448 822,449 829,450 837,451 844,452 851,453 858,455 865,456 872,458 879,459" stroke="#0000cd" fill="none"/>
 <text x="498" y="447" fill="#000000" font-family="Arial" font-size="12">1</text>
 <polygon points="879,457 883,460 878,461 879,457" stroke="#0000cd" fill="#0000cd"/>
 <polygon points="730,301 579,301 577,304 577,327 727,327 730,324 730,301" stroke="#bebebe" fill="#ffffff"/>
 <polyline points="727,304 577,304" stroke="#bebebe" fill="none"/>
 <polyline points="727,304 727,327" stroke="#bebebe" fill="none"/>
 <polyline points="727,304 730,301" stroke="#bebebe" fill="none"/>
 <text x="585" y="317" fill="#000000" font-family="Arial" font-size="12">jni/EffectEqualizer.h</text>
 <polyline points="89,584 90,568 93,548 97,525 102,499 110,471 120,443 133,415 148,389 167,366 190,346 228,323 269,306 312,294 357,287 401,283 445,283 487,285 526,289 562,294 593,300" stroke="#0000cd" fill="none"/>
 <text x="355" y="277" fill="#000000" font-family="Arial" font-size="12">1</text>
 <polygon points="594,298 598,301 593,302 594,298" stroke="#0000cd" fill="#0000cd"/>
 <polygon points="452,985 269,985 267,988 267,1011 449,1011 452,1008 452,985" stroke="#bebebe" fill="#ffffff"/>
 <polyline points="449,988 267,988" stroke="#bebebe" fill="none"/>
 <polyline points="449,988 449,1011" stroke="#bebebe" fill="none"/>
 <polyline points="449,988 452,985" stroke="#bebebe" fill="none"/>
 <text x="275" y="1001" fill="#000000" font-family="Arial" font-size="12">jni/EffectBassBoost.cpp</text>
 <polyline points="88,610 88,629 89,655 91,686 96,721 102,760 112,799 125,839 142,877 164,913 190,945 196,951 202,956 209,961 216,965 223,970 230,973 238,977 245,980 253,982 261,985" stroke="#0000cd" fill="none"/>
 <text x="206" y="939" fill="#000000" font-family="Arial" font-size="12">1</text>
 <polygon points="262,983 266,986 261,986 262,983" stroke="#0000cd" fill="#0000cd"/>
 <polygon points="749,636 560,636 557,639 557,662 746,662 749,659 749,636" stroke="#bebebe" fill="#ffffff"/>
 <polyline points="746,639 557,639" stroke="#bebebe" fill="none"/>
 <polyline points="746,639 746,662" stroke="#bebebe" fill="none"/>
 <polyline points="746,639 749,636" stroke="#bebebe" fill="none"/>
 <text x="565" y="652" fill="#000000" font-family="Arial" font-size="12">jni/EffectStereoWide.cpp</text>
 <polyline points="136,610 147,613 159,616 172,618 185,621 198,624 212,627 225,629 239,632 253,634 266,636 295,639 326,642 356,645 386,646 416,648 446,649 474,650 502,651 528,651 552,651" stroke="#0000cd" fill="none"/>
 <text x="355" y="630" fill="#000000" font-family="Arial" font-size="12">1</text>
 <polygon points="552,649 557,651 552,652 552,649" stroke="#0000cd" fill="#0000cd"/>
 <polygon points="1023,608 852,608 849,611 849,634 1020,634 1023,631 1023,608" stroke="#bebebe" fill="#ffffff"/>
 <polyline points="1020,611 849,611" stroke="#bebebe" fill="none"/>
 <polyline points="1020,611 1020,634" stroke="#bebebe" fill="none"/>
 <polyline points="1020,611 1023,608" stroke="#bebebe" fill="none"/>
 <text x="857" y="624" fill="#000000" font-family="Arial" font-size="12">jni/EffectStereoWide.h</text>
 <polyline points="154,599 205,600 267,602 337,604 412,606 491,609 570,611 647,613 721,615 787,617 844,618" stroke="#0000cd" fill="none"/>
 <text x="498" y="602" fill="#000000" font-family="Arial" font-size="12">1</text>
 <polygon points="844,617 849,619 844,620 844,617" stroke="#0000cd" fill="#0000cd"/>
 <polygon points="754,156 555,156 553,159 553,182 751,182 754,179 754,156" stroke="#bebebe" fill="#ffffff"/>
 <polyline points="751,159 553,159" stroke="#bebebe" fill="none"/>
 <polyline points="751,159 751,182" stroke="#bebebe" fill="none"/>
 <polyline points="751,159 754,156" stroke="#bebebe" fill="none"/>
 <text x="561" y="172" fill="#000000" font-family="Arial" font-size="12">jni/EffectCompression.cpp</text>
 <polyline points="90,584 93,564 99,536 107,503 118,467 133,428 151,389 173,351 199,316 230,285 266,261 293,248 321,236 350,225 380,215 409,207 438,200 467,193 495,188 522,183 547,179" stroke="#0000cd" fill="none"/>
 <text x="355" y="192" fill="#000000" font-family="Arial" font-size="12">1</text>
 <polygon points="547,178 552,179 548,181 547,178" stroke="#0000cd" fill="#0000cd"/>
 <polyline points="154,594 222,592 307,589 405,586 511,584 622,582 733,581 838,582 935,584 1017,588 1082,594 1090,595 1098,597 1107,598 1115,600 1124,602 1132,604 1140,606 1148,608 1156,610 1163,612" stroke="#0000cd" fill="none"/>
 <text x="649" y="575" fill="#000000" font-family="Arial" font-size="12">2</text>
 <polygon points="1163,611 1168,614 1162,614 1163,611" stroke="#0000cd" fill="#0000cd"/>
 <polygon points="445,476 276,476 274,479 274,502 442,502 445,499 445,476" stroke="#bebebe" fill="#ffffff"/>
 <polyline points="442,479 274,479" stroke="#bebebe" fill="none"/>
 <polyline points="442,479 442,502" stroke="#bebebe" fill="none"/>
 <polyline points="442,479 445,476" stroke="#bebebe" fill="none"/>
 <text x="282" y="492" fill="#000000" font-family="Arial" font-size="12">jni/EffectEqualizer.cpp</text>
 <polyline points="121,584 137,577 156,570 176,562 197,553 220,544 242,535 263,527 284,518 304,511 321,504" stroke="#0000cd" fill="none"/>
 <text x="206" y="537" fill="#000000" font-family="Arial" font-size="12">1</text>
 <polygon points="320,502 325,502 321,506 320,502" stroke="#0000cd" fill="#0000cd"/>
 <polygon points="446,694 275,694 272,697 272,720 443,720 446,717 446,694" stroke="#bebebe" fill="#ffffff"/>
 <polyline points="443,697 272,697" stroke="#bebebe" fill="none"/>
 <polyline points="443,697 443,720" stroke="#bebebe" fill="none"/>
 <polyline points="443,697 446,694" stroke="#bebebe" fill="none"/>
 <text x="280" y="710" fill="#000000" font-family="Arial" font-size="12">jni/EffectVirtualizer.cpp</text>
 <polyline points="102,610 108,616 115,622 122,629 131,635 140,642 149,649 159,656 169,662 180,668 190,673 197,676 205,679 212,682 220,684 228,687 235,689 243,691 251,693 258,694 266,696" stroke="#0000cd" fill="none"/>
 <text x="206" y="667" fill="#000000" font-family="Arial" font-size="12">1</text>
 <polygon points="267,694 272,697 266,698 267,694" stroke="#0000cd" fill="#0000cd"/>
 <polyline points="672,1155 680,1161 690,1167 700,1174 711,1181 724,1189 736,1196 749,1203 763,1210 776,1216 790,1222 796,1224 802,1227 808,1229 815,1231 821,1233 827,1234 834,1236 840,1238 846,1239 852,1241" stroke="#0000cd" fill="none"/>
 <text x="795" y="1216" fill="#000000" font-family="Arial" font-size="12">1</text>
 <polygon points="853,1239 857,1242 852,1243 853,1239" stroke="#0000cd" fill="#0000cd"/>
 <polyline points="716,1155 746,1161 780,1166 816,1172 853,1176 890,1179 926,1181 959,1180 987,1177 1011,1171 1028,1161 1048,1138 1059,1115 1061,1090 1059,1065 1053,1040 1047,1014 1043,987 1042,960 1049,933 1064,905 1069,899 1073,895 1078,891 1083,889 1088,887 1093,885 1098,884 1104,883 1111,881 1118,879 1130,877 1150,874 1176,872 1206,869 1237,866 1269,863 1298,860 1323,856 1342,851 1352,846 1370,823 1385,790 1399,748 1411,701 1422,651 1430,600 1437,551 1443,507 1447,470 1450,442" stroke="#0000cd" fill="none"/>
 <text x="1069" y="883" fill="#000000" font-family="Arial" font-size="12">3</text>
 <polygon points="1449,441 1451,436 1452,441 1449,441" stroke="#0000cd" fill="#0000cd"/>
 <polyline points="685,1129 697,1124 710,1118 725,1112 741,1106 757,1099 774,1093 792,1086 809,1079 827,1072 844,1066 867,1059 889,1054 909,1052 928,1050 945,1049 962,1046 979,1041 995,1033 1011,1022 1028,1005 1043,984 1053,965 1058,946 1060,927 1060,909 1059,889 1057,869 1057,847 1059,823 1064,797 1066,791 1068,786 1069,781 1071,777 1073,773 1074,768 1076,764 1078,759 1080,754 1082,748 1087,730 1089,714 1091,699 1091,685 1092,672 1094,660 1096,647 1101,634 1108,620 1118,605 1121,601 1125,597 1129,593 1134,590 1138,586 1143,583 1148,580 1152,577 1157,574 1162,572" stroke="#0000cd" fill="none"/>
 <text x="932" y="999" fill="#000000" font-family="Arial" font-size="12">5</text>
 <polygon points="1162,571 1167,570 1163,574 1162,571" stroke="#0000cd" fill="#0000cd"/>
 <polygon points="966,1198 909,1198 907,1201 907,1224 963,1224 966,1221 966,1198" stroke="#bebebe" fill="#ffffff"/>
 <polyline points="963,1201 907,1201" stroke="#bebebe" fill="none"/>
 <polyline points="963,1201 963,1224" stroke="#bebebe" fill="none"/>
 <polyline points="963,1201 966,1198" stroke="#bebebe" fill="none"/>
 <text x="915" y="1214" fill="#000000" font-family="Arial" font-size="12">jni/iir.h</text>
 <polyline points="680,1155 689,1159 698,1163 708,1168 719,1173 730,1177 742,1182 754,1186 766,1190 778,1194 790,1197 801,1200 813,1202 825,1204 837,1205 849,1207 860,1208 871,1208 882,1209 892,1210 901,1210" stroke="#0000cd" fill="none"/>
 <text x="795" y="1191" fill="#000000" font-family="Arial" font-size="12">1</text>
 <polygon points="901,1209 906,1211 901,1212 901,1209" stroke="#0000cd" fill="#0000cd"/>
 <polyline points="737,1151 768,1153 801,1155 835,1157 870,1157 904,1157 936,1155 965,1151 991,1146 1013,1138 1028,1128 1041,1109 1049,1083 1053,1051 1055,1015 1055,977 1054,938 1054,901 1054,866 1058,836 1064,813 1066,810 1067,808 1069,806 1071,804 1073,803 1075,801 1076,799 1078,797 1080,795 1082,792 1089,775 1093,758 1094,743 1094,728 1093,714 1093,700 1094,686 1098,673 1106,659 1118,645 1121,643 1124,641 1127,639 1130,637 1133,635 1136,634 1139,632 1143,631 1146,630 1150,629" stroke="#0000cd" fill="none"/>
 <text x="932" y="1122" fill="#000000" font-family="Arial" font-size="12">1</text>
 <polygon points="1150,627 1155,628 1150,631 1150,627" stroke="#0000cd" fill="#0000cd"/>
 <polyline points="981,460 991,457 1002,454 1012,451 1022,448 1032,445 1041,443 1049,441 1055,439 1061,438 1064,437 1101,432 1139,428 1177,425 1215,423 1252,421 1287,420 1321,420 1352,420 1380,420 1404,421" stroke="#0000cd" fill="none"/>
 <text x="1204" y="415" fill="#000000" font-family="Arial" font-size="12">2</text>
 <polygon points="1404,419 1409,421 1404,423 1404,419" stroke="#0000cd" fill="#0000cd"/>
 <polyline points="986,460 995,458 1004,457 1013,456 1023,455 1033,455 1043,455 1053,456 1063,457 1073,459 1082,462 1096,467 1109,474 1122,481 1134,489 1146,498 1157,507 1167,516 1177,524 1185,533 1192,540" stroke="#0000cd" fill="none"/>
 <text x="1069" y="453" fill="#000000" font-family="Arial" font-size="12">3</text>
 <polygon points="1193,539 1196,544 1191,541 1193,539" stroke="#0000cd" fill="#0000cd"/>
 <polyline points="1028,479 1034,480 1039,482 1045,484 1051,486 1056,488 1062,491 1067,493 1072,496 1077,500 1082,503 1089,510 1094,517 1098,524 1100,532 1101,540 1102,547 1104,555 1107,563 1111,571 1118,579 1122,583 1126,587 1131,591 1136,594 1141,598 1146,601 1151,604 1156,607 1161,610 1166,612" stroke="#0000cd" fill="none"/>
 <text x="1069" y="487" fill="#000000" font-family="Arial" font-size="12">1</text>
 <polygon points="1167,610 1171,614 1166,613 1167,610" stroke="#0000cd" fill="#0000cd"/>
 <polyline points="730,325 741,327 753,328 764,330 776,332 789,334 801,335 813,337 825,339 837,340 849,342" stroke="#0000cd" fill="none"/>
 <text x="795" y="329" fill="#000000" font-family="Arial" font-size="12">1</text>
 <polygon points="849,341 854,343 849,344 849,341" stroke="#0000cd" fill="#0000cd"/>
 <polyline points="667,301 677,291 689,280 703,267 720,253 738,239 757,225 778,212 799,200 821,189 844,181 866,175 885,171 903,169 919,168 935,169 951,171 967,173 985,176 1005,179 1028,181 1069,183 1106,184 1140,183 1171,182 1200,183 1229,185 1257,191 1287,201 1318,217 1352,239 1369,253 1383,269 1396,286 1408,305 1418,323 1427,342 1434,360 1440,377 1444,392 1448,404" stroke="#0000cd" fill="none"/>
 <text x="1069" y="178" fill="#000000" font-family="Arial" font-size="12">2</text>
 <polygon points="1449,404 1449,410 1446,405 1449,404" stroke="#0000cd" fill="#0000cd"/>
 <polyline points="672,301 693,287 720,271 752,254 788,237 828,222 868,210 910,204 951,204 991,212 1028,230 1035,239 1044,255 1054,276 1065,302 1076,329 1087,357 1097,383 1106,406 1113,424 1118,434 1125,446 1133,458 1141,470 1149,482 1157,493 1165,504 1173,515 1180,524 1187,533 1193,540" stroke="#0000cd" fill="none"/>
 <text x="927" y="197" fill="#000000" font-family="Arial" font-size="12">67</text>
 <polygon points="1194,539 1196,544 1192,541 1194,539" stroke="#0000cd" fill="#0000cd"/>
 <polyline points="663,327 670,337 679,350 688,365 698,382 709,400 719,420 729,440 738,461 747,483 754,504 766,548 773,587 777,621 778,654 778,685 777,716 777,749 779,785 783,824 790,869 792,877 793,884 795,889 797,895 799,900 801,905 802,911 804,916 806,923 808,931 813,960 815,986 814,1010 813,1033 812,1054 812,1075 814,1095 819,1117 829,1140 844,1164 848,1169 853,1175 859,1179 864,1184 870,1188 876,1191 883,1194 889,1197 895,1200 901,1202" stroke="#0000cd" fill="none"/>
 <text x="795" y="863" fill="#000000" font-family="Arial" font-size="12">1</text>
 <polygon points="902,1200 906,1204 901,1204 902,1200" stroke="#0000cd" fill="#0000cd"/>
 <polyline points="730,309 760,308 793,307 827,306 862,306 897,307 930,309 961,313 988,318 1011,324 1028,333 1052,353 1068,375 1077,397 1081,421 1082,446 1083,471 1085,498 1090,524 1101,552 1118,579 1121,583 1125,587 1129,591 1134,594 1138,598 1143,601 1148,604 1152,607 1157,610 1162,612" stroke="#0000cd" fill="none"/>
 <text x="932" y="301" fill="#000000" font-family="Arial" font-size="12">1</text>
 <polygon points="1163,610 1167,614 1162,613 1163,610" stroke="#0000cd" fill="#0000cd"/>
 <polyline points="419,1011 472,1022 537,1035 610,1050 687,1064 764,1077 838,1087 905,1095 962,1098 1004,1096 1028,1088 1046,1068 1054,1047 1056,1025 1053,1002 1048,979 1042,956 1039,933 1040,910 1048,888 1064,867 1082,856 1108,850 1138,847 1173,846 1209,846 1245,846 1279,845 1309,841 1334,834 1352,823 1368,800 1382,768 1395,729 1407,684 1418,637 1427,590 1435,544 1442,503 1447,467 1450,441" stroke="#0000cd" fill="none"/>
 <text x="927" y="1082" fill="#000000" font-family="Arial" font-size="12">20</text>
 <polygon points="1448,441 1450,436 1452,441 1448,441" stroke="#0000cd" fill="#0000cd"/>
 <polyline points="371,1011 378,1019 386,1028 395,1038 406,1049 418,1061 431,1072 444,1083 458,1093 473,1103 488,1111 495,1114 502,1117 510,1120 517,1123 525,1125 533,1127 541,1129 549,1131 556,1133 564,1134" stroke="#0000cd" fill="none"/>
 <text x="493" y="1105" fill="#000000" font-family="Arial" font-size="12">66</text>
 <polygon points="565,1133 569,1135 564,1136 565,1133" stroke="#0000cd" fill="#0000cd"/>
 <polyline points="376,985 383,979 390,972 398,965 406,957 414,948 423,938 431,928 438,918 446,908 452,897 460,882 465,868 468,855 470,843 471,831 472,819 474,806 477,793 481,779 488,763 494,751 499,740 504,730 508,722 513,714 518,706 525,699 532,691 541,684 552,676 554,675 556,673 559,672 561,670 563,669 565,668 568,667 570,666 573,665 575,664" stroke="#0000cd" fill="none"/>
 <text x="493" y="704" fill="#000000" font-family="Arial" font-size="12">12</text>
 <polygon points="575,662 580,662 576,666 575,662" stroke="#0000cd" fill="#0000cd"/>
 <polygon points="1014,544 861,544 858,547 858,570 1011,570 1014,567 1014,544" stroke="#bebebe" fill="#ffffff"/>
 <polyline points="1011,547 858,547" stroke="#bebebe" fill="none"/>
 <polyline points="1011,547 1011,570" stroke="#bebebe" fill="none"/>
 <polyline points="1011,547 1014,544" stroke="#bebebe" fill="none"/>
 <text x="866" y="560" fill="#000000" font-family="Arial" font-size="12">jni/Biquad4proc.cpp</text>
 <polyline points="437,985 445,982 454,979 462,976 471,972 479,968 487,964 495,959 502,953 509,947 516,941 525,929 531,916 533,904 534,892 534,880 533,867 534,855 537,843 542,831 552,819 577,799 603,788 629,783 655,782 681,784 707,785 732,784 758,779 783,767 808,747 819,732 826,718 828,703 829,689 828,674 826,659 826,645 828,630 834,614 844,599 847,595 850,592 854,589 858,586 862,583 865,581 870,578 874,576 878,574 882,572" stroke="#0000cd" fill="none"/>
 <text x="644" y="774" fill="#000000" font-family="Arial" font-size="12">25</text>
 <polygon points="881,570 887,570 883,574 881,570" stroke="#0000cd" fill="#0000cd"/>
 <polyline points="452,1000 511,1001 578,1001 651,1001 725,1001 799,1001 867,1000 928,998 977,995 1011,992 1028,987 1044,970 1053,954 1058,936 1058,919 1056,900 1053,881 1051,862 1052,841 1055,820 1064,797 1066,794 1067,792 1069,790 1071,789 1073,788 1075,786 1076,785 1078,783 1080,781 1082,778 1089,763 1093,748 1095,734 1095,720 1094,707 1095,695 1096,682 1100,670 1107,657 1118,645 1121,643 1124,641 1127,639 1130,637 1133,635 1136,634 1139,632 1143,631 1146,630 1150,629" stroke="#0000cd" fill="none"/>
 <text x="795" y="995" fill="#000000" font-family="Arial" font-size="12">4</text>
 <polygon points="1150,627 1155,628 1150,631 1150,627" stroke="#0000cd" fill="#0000cd"/>
 <polygon points="1271,1058 1148,1058 1145,1061 1145,1084 1268,1084 1271,1081 1271,1058" stroke="#bebebe" fill="#ffffff"/>
 <polyline points="1268,1061 1145,1061" stroke="#bebebe" fill="none"/>
 <polyline points="1268,1061 1268,1084" stroke="#bebebe" fill="none"/>
 <polyline points="1268,1061 1271,1058" stroke="#bebebe" fill="none"/>
 <text x="1153" y="1074" fill="#000000" font-family="Arial" font-size="12">jni/Butterworth.h</text>
 <polyline points="422,1011 425,1013 429,1014 432,1016 435,1018 438,1020 441,1022 444,1025 447,1027 450,1030 452,1033 468,1059 475,1085 475,1111 471,1137 465,1162 459,1187 456,1212 459,1236 468,1259 488,1282 508,1287 551,1291 610,1293 681,1294 758,1294 835,1293 906,1290 965,1287 1008,1282 1028,1277 1042,1262 1049,1247 1052,1232 1052,1216 1050,1199 1048,1183 1047,1166 1048,1149 1053,1131 1064,1114 1066,1112 1071,1110 1076,1107 1083,1104 1090,1100 1098,1097 1104,1094 1110,1092 1115,1090 1118,1089 1120,1088 1122,1088 1124,1087 1126,1087 1129,1086 1131,1085 1133,1085 1135,1084 1138,1084 1140,1083" stroke="#0000cd" fill="none"/>
 <text x="795" y="1287" fill="#000000" font-family="Arial" font-size="12">1</text>
 <polygon points="1139,1081 1145,1082 1140,1085 1139,1081" stroke="#0000cd" fill="#0000cd"/>
 <polyline points="700,636 706,634 712,631 717,629 723,626 729,622 734,619 740,615 745,611 750,607 754,602 762,591 767,581 770,571 772,560 773,550 773,540 775,530 778,520 782,509 790,498 792,496 794,495 795,494 797,493 799,493 800,492 802,491 804,491 806,490 808,488 813,484 817,480 820,476 823,472 825,468 828,464 831,461 834,457 839,454 844,451 865,443 885,439 903,438 921,439 938,442 955,444 972,444 989,442 1008,437 1028,426 1035,421 1039,415 1042,409 1044,402 1046,396 1047,389 1049,383 1052,377 1057,372 1064,367 1101,351 1141,342 1182,340 1223,342 1263,349 1302,359 1339,371 1371,383 1400,396 1423,407" stroke="#0000cd" fill="none"/>
 <text x="1069" y="353" fill="#000000" font-family="Arial" font-size="12">5</text>
 <polygon points="1424,406 1428,410 1423,409 1424,406" stroke="#0000cd" fill="#0000cd"/>
 <polyline points="749,645 755,645 761,644 767,644 773,643 779,643 785,642 791,642 796,641 802,641 808,640 812,640 816,639 821,639 825,638 829,638 833,637 837,637 842,636 846,636 850,635" stroke="#0000cd" fill="none"/>
 <text x="790" y="634" fill="#000000" font-family="Arial" font-size="12">17</text>
 <polygon points="850,633 856,634 851,636 850,633" stroke="#0000cd" fill="#0000cd"/>
 <polyline points="749,660 776,662 806,664 838,666 871,668 906,668 941,668 977,667 1012,666 1048,662 1082,658 1090,657 1097,655 1105,654 1113,652 1121,651 1129,649 1136,647 1144,645 1151,643 1158,641" stroke="#0000cd" fill="none"/>
 <text x="932" y="658" fill="#000000" font-family="Arial" font-size="12">4</text>
 <polygon points="1158,640 1163,640 1159,643 1158,640" stroke="#0000cd" fill="#0000cd"/>
 <polyline points="985,608 990,606 995,604 999,602 1004,599 1008,596 1013,593 1017,590 1021,586 1025,583 1028,579 1039,565 1046,551 1050,538 1052,525 1053,512 1053,499 1054,485 1055,470 1059,454 1064,437 1069,423 1074,411 1077,400 1081,390 1085,381 1089,372 1094,363 1101,353 1108,343 1118,332 1123,327 1128,322 1134,318 1139,313 1145,309 1151,305 1157,301 1162,297 1168,294 1174,291" stroke="#0000cd" fill="none"/>
 <text x="1069" y="383" fill="#000000" font-family="Arial" font-size="12">1</text>
 <polygon points="1173,290 1178,289 1175,293 1173,290" stroke="#0000cd" fill="#0000cd"/>
 <polyline points="1001,634 1004,635 1006,635 1009,636 1012,637 1015,638 1017,638 1020,639 1023,640 1025,641 1028,642 1033,644 1037,645 1040,647 1043,649 1046,650 1049,652 1052,653 1055,655 1059,656 1064,658 1092,667 1118,675 1141,683 1163,689 1184,693 1205,694 1226,693 1248,688 1272,680 1298,667 1324,650 1347,629 1368,605 1386,579 1401,553 1415,526 1426,501 1435,478 1442,457 1447,441" stroke="#0000cd" fill="none"/>
 <text x="1204" y="661" fill="#000000" font-family="Arial" font-size="12">2</text>
 <polygon points="1446,440 1449,436 1449,441 1446,440" stroke="#0000cd" fill="#0000cd"/>
 <polyline points="992,608 1006,605 1021,601 1037,597 1053,593 1069,590 1086,586 1102,582 1118,578 1133,574 1147,571" stroke="#0000cd" fill="none"/>
 <text x="1069" y="581" fill="#000000" font-family="Arial" font-size="12">1</text>
 <polygon points="1147,569 1152,570 1148,573 1147,569" stroke="#0000cd" fill="#0000cd"/>
 <polyline points="978,634 986,636 994,638 1002,640 1011,643 1020,645 1028,647 1037,648 1046,650 1055,652 1064,653 1074,654 1085,654 1096,654 1106,653 1117,652 1127,650 1137,648 1147,646 1156,644 1165,641" stroke="#0000cd" fill="none"/>
 <text x="1069" y="647" fill="#000000" font-family="Arial" font-size="12">1</text>
 <polygon points="1165,640 1170,640 1166,643 1165,640" stroke="#0000cd" fill="#0000cd"/>
 <polyline points="683,156 707,146 737,135 772,124 811,112 853,102 897,93 943,87 990,84 1037,86 1082,93 1119,101 1152,108 1182,115 1209,124 1234,133 1257,145 1280,160 1303,178 1327,201 1352,229 1366,247 1379,265 1391,285 1402,304 1412,324 1421,343 1429,361 1436,377 1442,392 1446,404" stroke="#0000cd" fill="none"/>
 <text x="1069" y="84" fill="#000000" font-family="Arial" font-size="12">9</text>
 <polygon points="1447,404 1447,410 1444,405 1447,404" stroke="#0000cd" fill="#0000cd"/>
 <polyline points="674,182 685,190 697,199 710,209 724,221 739,234 754,248 769,263 783,279 796,296 808,313 815,326 819,338 822,350 823,361 824,371 825,382 827,392 830,403 835,414 844,426 848,430 852,434 856,438 860,441 865,444 870,447 874,450 879,453 884,456 889,458" stroke="#0000cd" fill="none"/>
 <text x="790" y="284" fill="#000000" font-family="Arial" font-size="12">24</text>
 <polygon points="890,456 894,460 889,460 890,456" stroke="#0000cd" fill="#0000cd"/>
 <polyline points="694,156 719,149 749,142 782,137 817,132 854,130 891,131 928,136 964,146 997,160 1028,181 1038,191 1044,200 1049,210 1051,219 1052,229 1053,239 1054,250 1056,262 1059,274 1064,287 1066,291 1068,294 1070,297 1072,300 1073,302 1075,304 1077,307 1078,310 1080,313 1082,317 1088,331 1092,344 1095,355 1097,366 1099,376 1101,386 1104,397 1107,408 1112,420 1118,434 1124,446 1131,459 1139,471 1147,482 1155,494 1163,505 1171,515 1179,524 1186,533 1192,540" stroke="#0000cd" fill="none"/>
 <text x="932" y="125" fill="#000000" font-family="Arial" font-size="12">1</text>
 <polygon points="1193,539 1195,544 1191,541 1193,539" stroke="#0000cd" fill="#0000cd"/>
 <polyline points="667,182 674,189 681,198 690,207 698,218 708,229 717,241 727,253 737,266 746,279 754,292 767,316 777,338 784,359 790,378 795,397 800,415 807,434 815,453 828,473 844,495 849,501 854,506 860,511 866,516 872,521 879,526 885,530 891,534 897,538 903,541" stroke="#0000cd" fill="none"/>
 <text x="795" y="376" fill="#000000" font-family="Arial" font-size="12">4</text>
 <polygon points="905,540 908,544 903,543 905,540" stroke="#0000cd" fill="#0000cd"/>
 <polyline points="679,182 690,188 704,194 719,201 735,209 752,217 770,224 788,232 807,239 826,246 844,252 867,257 888,260 907,260 924,260 941,259 958,259 974,260 991,265 1009,273 1028,285 1035,292 1041,301 1048,312 1054,325 1060,338 1065,352 1071,365 1075,378 1079,389 1082,398 1088,420 1091,440 1092,459 1092,476 1091,493 1092,509 1094,526 1098,542 1106,560 1118,579 1121,583 1125,587 1129,591 1133,595 1138,598 1142,601 1147,604 1151,607 1156,610 1161,612" stroke="#0000cd" fill="none"/>
 <text x="932" y="246" fill="#000000" font-family="Arial" font-size="12">4</text>
 <polygon points="1162,610 1166,614 1161,613 1162,610" stroke="#0000cd" fill="#0000cd"/>
 <polyline points="445,479 503,472 570,464 643,455 718,445 793,435 863,425 924,416 975,408 1011,401 1028,395 1035,390 1040,385 1044,380 1047,375 1049,369 1052,364 1054,358 1057,351 1060,344 1064,337 1070,326 1075,316 1079,307 1082,298 1085,290 1089,282 1094,274 1100,267 1108,260 1118,254 1138,244 1157,236 1174,231 1191,228 1207,228 1223,229 1240,233 1258,238 1277,245 1298,254 1319,265 1339,279 1357,294 1374,311 1390,328 1404,346 1416,363 1427,379 1436,393 1443,405" stroke="#0000cd" fill="none"/>
 <text x="927" y="389" fill="#000000" font-family="Arial" font-size="12">19</text>
 <polygon points="1444,405 1445,410 1441,406 1444,405" stroke="#0000cd" fill="#0000cd"/>
 <polyline points="382,476 400,465 422,452 447,437 474,421 503,404 531,387 558,370 584,355 607,341 626,330" stroke="#0000cd" fill="none"/>
 <text x="489" y="391" fill="#000000" font-family="Arial" font-size="12">248</text>
 <polygon points="625,328 630,327 627,331 625,328" stroke="#0000cd" fill="#0000cd"/>
 <polyline points="381,502 392,509 406,518 421,527 437,537 455,548 474,558 493,570 513,581 533,592 552,602 558,605 565,609 572,612 579,615 585,619 592,622 599,625 605,628 612,631 618,634" stroke="#0000cd" fill="none"/>
 <text x="493" y="563" fill="#000000" font-family="Arial" font-size="12">12</text>
 <polygon points="618,632 622,636 617,635 618,632" stroke="#0000cd" fill="#0000cd"/>
 <polyline points="445,499 455,500 465,502 476,503 487,504 498,506 509,507 520,508 531,509 541,511 552,512 584,516 616,519 648,523 680,527 712,531 743,534 773,538 802,541 828,544 853,547" stroke="#0000cd" fill="none"/>
 <text x="640" y="506" fill="#000000" font-family="Arial" font-size="12">133</text>
 <polygon points="853,546 858,548 853,549 853,546" stroke="#0000cd" fill="#0000cd"/>
 <polyline points="445,485 449,485 454,485 458,485 462,485 467,485 471,484 475,484 479,484 484,484 488,484 521,483 550,482 575,482 599,481 621,480 643,480 667,480 692,481 721,482 754,484 765,485 787,488 817,492 853,496 891,501 929,506 965,511 995,515 1017,518 1028,520 1035,521 1041,522 1046,523 1051,523 1056,524 1061,525 1066,527 1071,529 1076,531 1082,535 1088,539 1092,543 1095,548 1098,552 1101,556 1103,561 1106,565 1109,570 1113,574 1118,579 1123,583 1128,587 1133,590 1139,594 1144,597 1150,600 1155,603 1160,606 1166,609 1171,612" stroke="#0000cd" fill="none"/>
 <text x="795" y="483" fill="#000000" font-family="Arial" font-size="12">4</text>
 <polygon points="1172,610 1176,614 1171,613 1172,610" stroke="#0000cd" fill="#0000cd"/>
 <polyline points="445,488 479,488 515,488 553,488 592,488 629,488 664,489 695,489 721,491 741,492 754,494 759,495 763,497 767,499 770,501 772,503 775,505 778,507 781,509 785,511 790,513 796,515 802,516 807,517 812,518 817,518 821,518 826,518 831,519 837,519 844,520 854,521 869,521 890,521 913,522 938,523 963,524 985,526 1005,528 1020,531 1028,535 1035,548 1042,571 1049,602 1056,638 1062,677 1067,716 1072,753 1076,786 1080,811 1082,826 1084,844 1086,865 1087,890 1088,917 1090,944 1093,972 1096,997 1102,1020 1109,1039 1118,1053 1120,1055 1122,1056 1124,1058 1126,1060 1128,1061 1130,1063 1132,1064 1135,1065 1137,1066 1140,1067" stroke="#0000cd" fill="none"/>
 <text x="790" y="507" fill="#000000" font-family="Arial" font-size="12">10</text>
 <polygon points="1140,1065 1145,1068 1139,1068 1140,1065" stroke="#0000cd" fill="#0000cd"/>
 <polyline points="371,720 381,731 393,743 408,758 424,774 442,790 462,806 483,823 506,838 528,851 552,863 554,864 556,865 558,865 560,866 562,867 564,868 566,869 568,869 570,870 572,871" stroke="#0000cd" fill="none"/>
 <text x="493" y="823" fill="#000000" font-family="Arial" font-size="12">35</text>
 <polygon points="573,869 577,872 572,872 573,869" stroke="#0000cd" fill="#0000cd"/>
 <polyline points="429,720 431,721 434,721 436,722 439,723 441,724 443,724 445,725 448,726 450,727 452,728 457,730 461,732 464,735 467,737 470,740 472,742 475,744 479,746 483,748 488,750 491,751 494,751 497,751 500,751 502,751 504,751 507,751 510,750 513,750 516,750 576,749 649,750 732,750 821,751 913,750 1005,746 1092,740 1173,731 1242,717 1298,698 1327,680 1353,658 1375,631 1394,602 1409,571 1422,540 1432,511 1440,483 1445,460 1449,441" stroke="#0000cd" fill="none"/>
 <text x="932" y="739" fill="#000000" font-family="Arial" font-size="12">8</text>
 <polygon points="1447,441 1450,436 1451,441 1447,441" stroke="#0000cd" fill="#0000cd"/>
 <polyline points="426,694 440,691 455,688 471,685 487,682 503,679 519,675 535,672 551,669 566,666 581,663" stroke="#0000cd" fill="none"/>
 <text x="498" y="670" fill="#000000" font-family="Arial" font-size="12">9</text>
 <polygon points="581,661 586,662 582,665 581,661" stroke="#0000cd" fill="#0000cd"/>
 <polygon points="706,828 603,828 601,831 601,854 703,854 706,851 706,828" stroke="#bebebe" fill="#ffffff"/>
 <polyline points="703,831 601,831" stroke="#bebebe" fill="none"/>
 <polyline points="703,831 703,854" stroke="#bebebe" fill="none"/>
 <polyline points="703,831 706,828" stroke="#bebebe" fill="none"/>
 <text x="609" y="844" fill="#000000" font-family="Arial" font-size="12">jni/Delay.cpp</text>
 <polyline points="380,720 391,727 405,736 420,745 436,755 454,765 473,776 492,786 512,796 532,805 552,814 556,816 561,817 565,819 569,820 574,822 578,823 582,824 586,826 591,827 595,828" stroke="#0000cd" fill="none"/>
 <text x="498" y="779" fill="#000000" font-family="Arial" font-size="12">5</text>
 <polygon points="596,827 600,830 595,830 596,827" stroke="#0000cd" fill="#0000cd"/>
 <polyline points="446,704 482,702 521,701 561,699 602,697 640,696 675,694 706,693 730,691 747,690 754,689 762,686 769,682 774,679 779,675 784,671 788,667 792,662 797,657 802,651 808,645 813,640 817,634 820,630 823,625 825,621 828,617 831,612 834,608 839,604 844,599 848,596 853,593 858,590 862,587 867,584 872,581 877,579 882,576 887,574 892,572" stroke="#0000cd" fill="none"/>
 <text x="649" y="683" fill="#000000" font-family="Arial" font-size="12">3</text>
 <polygon points="891,570 896,570 892,574 891,570" stroke="#0000cd" fill="#0000cd"/>
 <polyline points="446,709 471,709 499,709 528,709 558,709 590,709 623,708 656,708 689,706 722,705 754,703 788,701 818,698 844,696 868,694 891,691 914,688 939,685 965,681 994,677 1028,672 1035,671 1041,671 1046,670 1051,670 1055,669 1060,669 1065,668 1070,667 1076,665 1082,663 1087,661 1091,659 1094,658 1097,656 1100,654 1103,652 1106,650 1109,649 1113,647 1118,645 1121,644 1124,643 1127,642 1130,641 1134,641 1137,640 1140,639 1143,638 1146,637 1149,636" stroke="#0000cd" fill="none"/>
 <text x="795" y="693" fill="#000000" font-family="Arial" font-size="12">4</text>
 <polygon points="1149,635 1155,635 1150,638 1149,635" stroke="#0000cd" fill="#0000cd"/>
 <polygon points="1720,1064 1611,1064 1608,1067 1608,1090 1717,1090 1720,1087 1720,1064" stroke="#bebebe" fill="#ffffff"/>
 <polyline points="1717,1067 1608,1067" stroke="#bebebe" fill="none"/>
 <polyline points="1717,1067 1717,1090" stroke="#bebebe" fill="none"/>
 <polyline points="1717,1067 1720,1064" stroke="#bebebe" fill="none"/>
 <text x="1616" y="1080" fill="#000000" font-family="Arial" font-size="12">jni/Cascade.h</text>
 <polyline points="966,1202 974,1200 983,1197 992,1194 1002,1191 1012,1189 1022,1186 1033,1183 1043,1181 1054,1178 1064,1176 1093,1170 1118,1166 1140,1163 1161,1161 1181,1159 1201,1157 1222,1155 1244,1152 1269,1149 1298,1144 1330,1138 1357,1133 1382,1128 1405,1123 1426,1118 1447,1113 1470,1108 1495,1103 1522,1098 1554,1092 1559,1091 1564,1090 1569,1090 1573,1089 1578,1088 1583,1087 1588,1087 1593,1086 1597,1086 1602,1085" stroke="#0000cd" fill="none"/>
 <text x="1339" y="1128" fill="#000000" font-family="Arial" font-size="12">1</text>
 <polygon points="1603,1083 1608,1084 1603,1086 1603,1083" stroke="#0000cd" fill="#0000cd"/>
 <polygon points="2822,818 2713,818 2710,821 2710,844 2819,844 2822,841 2822,818" stroke="#bebebe" fill="#ffffff"/>
 <polyline points="2819,821 2710,821" stroke="#bebebe" fill="none"/>
 <polyline points="2819,821 2819,844" stroke="#bebebe" fill="none"/>
 <polyline points="2819,821 2822,818" stroke="#bebebe" fill="none"/>
 <text x="2718" y="834" fill="#000000" font-family="Arial" font-size="12">jni/Common.h</text>
 <polyline points="966,1210 972,1209 979,1208 985,1207 992,1205 999,1203 1005,1201 1011,1198 1017,1194 1023,1190 1028,1185 1040,1171 1047,1158 1052,1144 1055,1131 1056,1118 1056,1104 1056,1090 1057,1074 1059,1057 1064,1039 1069,1020 1072,1003 1074,987 1076,972 1078,959 1081,945 1086,933 1094,920 1104,908 1118,896 1130,890 1145,886 1164,884 1184,883 1205,883 1227,883 1248,883 1267,883 1284,882 1298,879 1305,877 1314,873 1323,869 1333,864 1343,858 1354,853 1364,847 1373,842 1381,838 1388,835 1439,813 1484,794 1524,777 1560,763 1596,749 1631,736 1669,724 1710,711 1756,697 1810,681 1832,675 1851,669 1868,665 1884,661 1899,657 1914,654 1930,651 1948,649 1967,646 1990,643 2020,639 2047,637 2071,635 2092,633 2113,633 2134,632 2155,633 2179,633 2206,633 2236,633 2236,633 2238,633 2244,633 2256,633 2275,633 2303,633 2342,633 2395,633 2462,633 2546,633 2562,633 2577,632 2591,632 2603,632 2615,633 2626,635 2637,638 2649,643 2661,650 2674,660 2689,673 2702,688 2713,705 2724,721 2733,739 2741,756 2747,772 2753,788 2758,801 2761,813" stroke="#0000cd" fill="none"/>
 <text x="1878" y="641" fill="#000000" font-family="Arial" font-size="12">1</text>
 <polygon points="2762,813 2762,818 2759,814 2762,813" stroke="#0000cd" fill="#0000cd"/>
 <polygon points="1511,1015 1398,1015 1396,1018 1396,1041 1508,1041 1511,1038 1511,1015" stroke="#bebebe" fill="#ffffff"/>
 <polyline points="1508,1018 1396,1018" stroke="#bebebe" fill="none"/>
 <polyline points="1508,1018 1508,1041" stroke="#bebebe" fill="none"/>
 <polyline points="1508,1018 1511,1015" stroke="#bebebe" fill="none"/>
 <text x="1404" y="1031" fill="#000000" font-family="Arial" font-size="12">jni/PoleFilter.h</text>
 <polyline points="966,1209 972,1208 978,1207 985,1206 991,1204 998,1202 1004,1199 1011,1196 1017,1193 1023,1189 1028,1184 1037,1173 1043,1162 1046,1151 1047,1139 1047,1128 1047,1117 1048,1106 1050,1094 1055,1083 1064,1071 1069,1066 1074,1062 1079,1059 1084,1057 1088,1055 1093,1054 1099,1053 1105,1052 1111,1051 1118,1049 1146,1043 1175,1038 1205,1033 1234,1030 1263,1028 1292,1026 1319,1025 1345,1025 1368,1025 1390,1025" stroke="#0000cd" fill="none"/>
 <text x="1204" y="1020" fill="#000000" font-family="Arial" font-size="12">1</text>
 <polygon points="1390,1024 1395,1025 1390,1027 1390,1024" stroke="#0000cd" fill="#0000cd"/>
 <polygon points="1931,1039 1836,1039 1833,1042 1833,1065 1928,1065 1931,1062 1931,1039" stroke="#bebebe" fill="#ffffff"/>
 <polyline points="1928,1042 1833,1042" stroke="#bebebe" fill="none"/>
 <polyline points="1928,1042 1928,1065" stroke="#bebebe" fill="none"/>
 <polyline points="1928,1042 1931,1039" stroke="#bebebe" fill="none"/>
 <text x="1841" y="1055" fill="#000000" font-family="Arial" font-size="12">jni/Biquad.h</text>
 <polyline points="966,1210 972,1209 979,1208 985,1207 992,1205 999,1203 1005,1200 1011,1197 1017,1194 1023,1190 1028,1185 1038,1173 1045,1161 1048,1149 1050,1137 1051,1125 1051,1113 1051,1101 1053,1087 1057,1074 1064,1059 1069,1051 1073,1043 1077,1037 1081,1031 1086,1026 1090,1021 1096,1016 1102,1012 1109,1008 1118,1004 1161,989 1215,977 1277,969 1345,964 1416,962 1487,962 1556,965 1619,971 1675,978 1720,987 1734,991 1749,995 1763,1000 1777,1005 1791,1011 1804,1016 1817,1022 1829,1027 1840,1032 1850,1037" stroke="#0000cd" fill="none"/>
 <text x="1449" y="955" fill="#000000" font-family="Arial" font-size="12">1</text>
 <polygon points="1851,1035 1855,1039 1850,1038 1851,1035" stroke="#0000cd" fill="#0000cd"/>
 <polyline points="966,1209 972,1208 978,1207 985,1205 991,1203 998,1201 1004,1198 1011,1195 1017,1192 1023,1188 1028,1184 1035,1176 1040,1168 1043,1160 1045,1152 1046,1144 1047,1135 1048,1127 1052,1119 1056,1112 1064,1104 1071,1099 1077,1095 1085,1091 1092,1087 1100,1084 1108,1081 1116,1079 1124,1077 1132,1075 1140,1074" stroke="#0000cd" fill="none"/>
 <text x="1069" y="1087" fill="#000000" font-family="Arial" font-size="12">1</text>
 <polygon points="1140,1072 1145,1073 1140,1076 1140,1072" stroke="#0000cd" fill="#0000cd"/>
 <polyline points="1688,1064 1691,1062 1695,1059 1698,1056 1702,1053 1705,1051 1708,1047 1712,1044 1715,1041 1717,1038 1720,1034 1729,1019 1735,1006 1739,994 1742,982 1744,970 1745,958 1746,946 1748,932 1751,917 1756,901 1758,895 1762,884 1768,869 1774,851 1782,832 1789,813 1796,795 1802,780 1807,770 1810,765 1836,756 1882,749 1942,744 2012,741 2087,740 2162,740 2233,741 2295,743 2343,744 2372,746 2404,749 2432,751 2457,753 2480,756 2501,759 2523,762 2545,766 2569,771 2597,778 2628,785 2638,788 2649,790 2659,793 2669,796 2680,800 2690,803 2699,806 2709,810 2718,813 2726,816" stroke="#0000cd" fill="none"/>
 <text x="2233" y="735" fill="#000000" font-family="Arial" font-size="12">1</text>
 <polygon points="2727,815 2731,818 2726,818 2727,815" stroke="#0000cd" fill="#0000cd"/>
 <polygon points="1929,1111 1838,1111 1835,1114 1835,1137 1926,1137 1929,1134 1929,1111" stroke="#bebebe" fill="#ffffff"/>
 <polyline points="1926,1114 1835,1114" stroke="#bebebe" fill="none"/>
 <polyline points="1926,1114 1926,1137" stroke="#bebebe" fill="none"/>
 <polyline points="1926,1114 1929,1111" stroke="#bebebe" fill="none"/>
 <text x="1843" y="1127" fill="#000000" font-family="Arial" font-size="12">jni/Layout.h</text>
 <polyline points="1717,1090 1721,1091 1725,1092 1729,1093 1733,1094 1737,1095 1740,1095 1744,1096 1748,1097 1752,1098 1756,1099 1763,1101 1771,1102 1778,1104 1786,1105 1793,1107 1801,1108 1808,1110 1816,1111 1823,1113 1830,1114" stroke="#0000cd" fill="none"/>
 <text x="1761" y="1093" fill="#000000" font-family="Arial" font-size="12">2</text>
 <polygon points="1830,1113 1835,1115 1830,1116 1830,1113" stroke="#0000cd" fill="#0000cd"/>
 <polygon points="2628,920 2465,920 2462,923 2462,946 2625,946 2628,943 2628,920" stroke="#bebebe" fill="#ffffff"/>
 <polyline points="2625,923 2462,923" stroke="#bebebe" fill="none"/>
 <polyline points="2625,923 2625,946" stroke="#bebebe" fill="none"/>
 <polyline points="2625,923 2628,920" stroke="#bebebe" fill="none"/>
 <text x="2470" y="936" fill="#000000" font-family="Arial" font-size="12">jni/MathSupplement.h</text>
 <polyline points="1720,1078 1725,1078 1731,1079 1736,1079 1741,1079 1747,1080 1753,1080 1758,1080 1763,1080 1769,1081 1774,1081 1796,1082 1816,1083 1833,1084 1849,1085 1865,1086 1880,1087 1896,1089 1913,1092 1932,1096 1954,1102 1968,1106 1981,1111 1991,1117 2001,1122 2010,1128 2019,1133 2028,1138 2039,1143 2051,1147 2066,1151 2081,1154 2095,1156 2107,1158 2118,1159 2129,1159 2140,1158 2151,1157 2163,1156 2177,1154 2192,1151 2202,1148 2217,1144 2237,1137 2260,1129 2284,1120 2307,1111 2330,1102 2349,1094 2363,1087 2372,1082 2378,1076 2385,1065 2395,1051 2405,1034 2417,1016 2428,998 2439,982 2448,967 2456,957 2462,951 2462,951 2463,950 2463,950 2464,950 2464,950 2464,949 2465,949 2465,949 2466,949 2466,949" stroke="#0000cd" fill="none"/>
 <text x="2125" y="1145" fill="#000000" font-family="Arial" font-size="12">2</text>
 <polygon points="2465,947 2470,946 2467,950 2465,947" stroke="#0000cd" fill="#0000cd"/>
 <polyline points="1720,1071 1730,1070 1741,1068 1752,1067 1763,1066 1774,1065 1785,1063 1796,1062 1807,1061 1817,1059 1827,1058" stroke="#0000cd" fill="none"/>
 <text x="1761" y="1058" fill="#000000" font-family="Arial" font-size="12">2</text>
 <polygon points="1827,1056 1833,1058 1828,1060 1827,1056" stroke="#0000cd" fill="#0000cd"/>
 <polyline points="1929,1133 1932,1134 1934,1135 1937,1136 1939,1137 1942,1138 1944,1138 1947,1139 1949,1140 1952,1141 1954,1142 1969,1149 1981,1157 1992,1164 2001,1172 2010,1180 2019,1188 2028,1195 2039,1203 2051,1210 2066,1217 2107,1230 2159,1242 2218,1251 2283,1258 2350,1262 2417,1262 2481,1258 2540,1251 2589,1239 2628,1222 2664,1193 2694,1158 2717,1118 2734,1074 2747,1030 2756,985 2762,943 2765,905 2766,873 2766,849" stroke="#0000cd" fill="none"/>
 <text x="2323" y="1251" fill="#000000" font-family="Arial" font-size="12">1</text>
 <polygon points="2764,849 2766,844 2767,849 2764,849" stroke="#0000cd" fill="#0000cd"/>
 <polyline points="1914,1137 1926,1141 1938,1146 1952,1151 1967,1156 1983,1161 1999,1166 2016,1171 2033,1175 2049,1179 2066,1182 2081,1184 2095,1186 2107,1188 2118,1189 2129,1189 2140,1189 2151,1188 2163,1187 2177,1185 2192,1182 2197,1181 2201,1180 2204,1179 2207,1178 2210,1176 2213,1175 2216,1173 2220,1172 2224,1170 2228,1169 2235,1167 2241,1165 2246,1164 2250,1163 2255,1162 2260,1161 2264,1159 2269,1158 2275,1157 2282,1155 2300,1152 2317,1151 2333,1151 2347,1151 2361,1152 2374,1151 2387,1149 2400,1144 2413,1137 2426,1125 2439,1108 2446,1091 2448,1073 2447,1056 2444,1038 2441,1020 2440,1003 2442,985 2449,968 2462,951 2462,951 2462,951 2463,950 2463,950 2463,950 2463,950 2463,950 2464,949 2464,949 2464,949" stroke="#0000cd" fill="none"/>
 <text x="2233" y="1157" fill="#000000" font-family="Arial" font-size="12">7</text>
 <polygon points="2463,948 2468,946 2465,951 2463,948" stroke="#0000cd" fill="#0000cd"/>
 <polygon points="2372,975 2285,975 2283,978 2283,1001 2369,1001 2372,998 2372,975" stroke="#bebebe" fill="#ffffff"/>
 <polyline points="2369,978 2283,978" stroke="#bebebe" fill="none"/>
 <polyline points="2369,978 2369,1001" stroke="#bebebe" fill="none"/>
 <polyline points="2369,978 2372,975" stroke="#bebebe" fill="none"/>
 <text x="2291" y="991" fill="#000000" font-family="Arial" font-size="12">jni/Types.h</text>
 <polyline points="1901,1111 1909,1105 1918,1098 1928,1092 1938,1085 1948,1078 1958,1072 1967,1066 1976,1061 1984,1058 1990,1055 2014,1048 2035,1045 2054,1044 2072,1044 2090,1046 2107,1047 2126,1048 2145,1048 2167,1046 2192,1042 2203,1039 2214,1036 2226,1033 2237,1029 2248,1024 2258,1020 2269,1016 2278,1011 2288,1007 2296,1003" stroke="#0000cd" fill="none"/>
 <text x="2120" y="1036" fill="#000000" font-family="Arial" font-size="12">12</text>
 <polygon points="2295,1002 2301,1001 2297,1005 2295,1002" stroke="#0000cd" fill="#0000cd"/>
 <polyline points="2574,920 2587,914 2602,907 2618,899 2635,892 2652,883 2670,875 2687,867 2703,860 2718,852 2732,846" stroke="#0000cd" fill="none"/>
 <text x="2665" y="869" fill="#000000" font-family="Arial" font-size="12">1</text>
 <polygon points="2732,845 2737,844 2733,848 2732,845" stroke="#0000cd" fill="#0000cd"/>
 <polyline points="1901,1065 1912,1073 1924,1081 1939,1091 1954,1101 1972,1112 1989,1123 2008,1133 2027,1144 2047,1154 2066,1163 2086,1173 2104,1181 2120,1189 2134,1196 2148,1202 2163,1207 2178,1212 2195,1215 2214,1216 2236,1217 2236,1217 2238,1217 2244,1217 2256,1217 2275,1217 2303,1217 2342,1217 2395,1217 2462,1217 2546,1217 2593,1209 2634,1186 2667,1152 2694,1110 2716,1062 2733,1012 2746,962 2755,917 2761,878 2764,849" stroke="#0000cd" fill="none"/>
 <text x="2323" y="1211" fill="#000000" font-family="Arial" font-size="12">1</text>
 <polygon points="2762,849 2764,844 2765,849 2762,849" stroke="#0000cd" fill="#0000cd"/>
 <polyline points="1910,1039 1921,1034 1934,1028 1948,1022 1964,1015 1980,1009 1997,1003 2014,996 2031,991 2049,986 2066,981 2107,972 2149,964 2191,958 2234,952 2275,947 2316,943 2355,940 2392,938 2426,936 2457,935" stroke="#0000cd" fill="none"/>
 <text x="2228" y="944" fill="#000000" font-family="Arial" font-size="12">14</text>
 <polygon points="2457,933 2462,935 2457,936 2457,933" stroke="#0000cd" fill="#0000cd"/>
 <polyline points="1931,1043 1943,1041 1955,1039 1968,1036 1981,1034 1995,1032 2009,1029 2024,1027 2038,1024 2052,1022 2066,1020 2088,1017 2111,1014 2134,1010 2157,1007 2179,1005 2201,1002 2222,999 2242,997 2260,995 2277,993" stroke="#0000cd" fill="none"/>
 <text x="2120" y="997" fill="#000000" font-family="Arial" font-size="12">12</text>
 <polygon points="2277,992 2282,993 2277,995 2277,992" stroke="#0000cd" fill="#0000cd"/>
 <polygon points="2187,1098 2074,1098 2071,1101 2071,1124 2184,1124 2187,1121 2187,1098" stroke="#bebebe" fill="#ffffff"/>
 <polyline points="2184,1101 2071,1101" stroke="#bebebe" fill="none"/>
 <polyline points="2184,1101 2184,1124" stroke="#bebebe" fill="none"/>
 <polyline points="2184,1101 2187,1098" stroke="#bebebe" fill="none"/>
 <text x="2079" y="1114" fill="#000000" font-family="Arial" font-size="12">jni/Biquad.cpp</text>
 <polyline points="1937,1065 1949,1068 1962,1071 1975,1074 1988,1077 2002,1081 2015,1084 2029,1087 2042,1090 2055,1093 2067,1096" stroke="#cd0000" fill="none"/>
 <text x="1991" y="1071" fill="#000000" font-family="Arial" font-size="12">5 / 30</text>
 <polygon points="2068,1096 2070,1099 2074,1098 2071,1095 2068,1096" stroke="#cd0000" fill="#cd0000"/>
 <polygon points="1937,1065 1934,1062 1931,1064 1934,1066 1937,1065" stroke="#cd0000" fill="#cd0000"/>
 <polygon points="1518,1246 1391,1246 1388,1249 1388,1272 1515,1272 1518,1269 1518,1246" stroke="#bebebe" fill="#ffffff"/>
 <polyline points="1515,1249 1388,1249" stroke="#bebebe" fill="none"/>
 <polyline points="1515,1249 1515,1272" stroke="#bebebe" fill="none"/>
 <polyline points="1515,1249 1518,1246" stroke="#bebebe" fill="none"/>
 <text x="1396" y="1262" fill="#000000" font-family="Arial" font-size="12">jni/Cascade.cpp</text>
 <polyline points="1473,1246 1477,1243 1481,1239 1486,1236 1491,1231 1496,1227 1500,1223 1505,1218 1510,1213 1514,1208 1518,1203 1524,1195 1528,1187 1531,1179 1533,1172 1535,1165 1536,1158 1539,1151 1542,1144 1547,1137 1554,1129 1559,1124 1565,1119 1571,1115 1577,1111 1583,1107 1589,1104 1596,1100 1602,1097 1609,1095 1615,1092" stroke="#0000cd" fill="none"/>
 <text x="1554" y="1108" fill="#000000" font-family="Arial" font-size="12">23</text>
 <polygon points="1614,1090 1620,1090 1616,1093 1614,1090" stroke="#0000cd" fill="#0000cd"/>
 <polyline points="1518,1265 1522,1265 1525,1266 1529,1266 1532,1266 1536,1266 1540,1267 1543,1267 1547,1267 1550,1267 1554,1267 1575,1268 1593,1268 1609,1268 1623,1268 1637,1268 1651,1268 1665,1268 1681,1267 1699,1267 1720,1267 1790,1269 1875,1276 1972,1284 2076,1293 2183,1301 2290,1305 2392,1306 2485,1300 2565,1286 2628,1263 2650,1244 2671,1212 2689,1170 2706,1122 2720,1070 2733,1017 2743,965 2752,918 2758,878 2762,849" stroke="#0000cd" fill="none"/>
 <text x="2125" y="1286" fill="#000000" font-family="Arial" font-size="12">1</text>
 <polygon points="2761,849 2763,844 2764,849 2761,849" stroke="#0000cd" fill="#0000cd"/>
 <polyline points="1518,1252 1535,1250 1554,1247 1573,1244 1594,1240 1615,1236 1636,1231 1657,1226 1679,1221 1700,1215 1720,1208 1735,1202 1751,1196 1766,1189 1781,1182 1796,1174 1810,1167 1823,1160 1835,1153 1846,1146 1856,1140" stroke="#0000cd" fill="none"/>
 <text x="1660" y="1202" fill="#000000" font-family="Arial" font-size="12">5</text>
 <polygon points="1856,1138 1861,1137 1857,1141 1856,1138" stroke="#0000cd" fill="#0000cd"/>
 <polyline points="1518,1262 1535,1263 1553,1263 1572,1263 1593,1264 1613,1264 1635,1263 1656,1263 1678,1262 1699,1261 1720,1259 1749,1256 1806,1248 1885,1238 1978,1225 2078,1210 2177,1195 2269,1179 2346,1165 2401,1152 2426,1142 2440,1123 2447,1104 2449,1085 2447,1065 2444,1046 2441,1027 2439,1008 2441,989 2448,970 2462,951 2462,951 2462,951 2463,950 2463,950 2463,950 2463,950 2463,950 2464,949 2464,949 2464,949" stroke="#0000cd" fill="none"/>
 <text x="2001" y="1211" fill="#000000" font-family="Arial" font-size="12">13</text>
 <polygon points="2463,948 2468,946 2465,951 2463,948" stroke="#0000cd" fill="#0000cd"/>
 <polyline points="1482,1246 1501,1237 1524,1227 1550,1214 1578,1201 1609,1186 1641,1171 1674,1155 1708,1138 1741,1122 1774,1106 1782,1102 1790,1098 1798,1094 1806,1090 1814,1086 1822,1082 1830,1078 1837,1074 1844,1070 1851,1067" stroke="#0000cd" fill="none"/>
 <text x="1655" y="1128" fill="#000000" font-family="Arial" font-size="12">16</text>
 <polygon points="1850,1066 1856,1065 1852,1069 1850,1066" stroke="#0000cd" fill="#0000cd"/>
 <polyline points="1518,1259 1535,1259 1554,1258 1573,1257 1593,1256 1614,1255 1635,1253 1657,1250 1678,1248 1699,1245 1720,1241 1750,1235 1776,1230 1799,1224 1820,1219 1840,1213 1860,1206 1880,1198 1902,1188 1927,1177 1954,1164 1969,1156 1981,1149 1992,1141 2001,1134 2010,1126 2019,1119 2028,1111 2039,1104 2051,1096 2066,1089 2081,1082 2094,1077 2106,1073 2117,1070 2128,1068 2139,1065 2150,1063 2162,1060 2176,1056 2192,1052 2199,1050 2205,1048 2210,1047 2215,1046 2220,1045 2224,1043 2229,1042 2234,1040 2240,1037 2246,1034 2251,1031 2255,1028 2258,1025 2261,1023 2264,1020 2267,1017 2270,1015 2273,1012 2277,1009 2282,1006 2283,1006 2283,1005 2284,1005 2284,1005 2285,1005 2285,1004 2285,1004 2286,1004 2286,1003 2287,1003" stroke="#0000cd" fill="none"/>
 <text x="1878" y="1158" fill="#000000" font-family="Arial" font-size="12">1</text>
 <polygon points="2286,1002 2291,1001 2288,1005 2286,1002" stroke="#0000cd" fill="#0000cd"/>
 <polyline points="2372,995 2391,998 2414,1000 2438,1001 2464,1002 2491,1002 2519,1000 2547,996 2575,991 2602,983 2628,973 2645,964 2662,953 2677,940 2692,927 2706,913 2718,898 2729,884 2739,871 2747,859 2754,849" stroke="#0000cd" fill="none"/>
 <text x="2541" y="967" fill="#000000" font-family="Arial" font-size="12">1</text>
 <polygon points="2753,848 2757,844 2756,850 2753,848" stroke="#0000cd" fill="#0000cd"/>
 <polyline points="2372,979 2377,978 2382,976 2388,975 2393,974 2399,973 2404,971 2410,970 2415,969 2421,967 2426,966 2433,964 2440,962 2447,960 2454,958 2461,957 2468,955 2475,953 2482,951 2489,949 2495,947" stroke="#0000cd" fill="none"/>
 <text x="2408" y="960" fill="#000000" font-family="Arial" font-size="12">13</text>
 <polygon points="2494,946 2500,946 2495,949 2494,946" stroke="#0000cd" fill="#0000cd"/>
 <polygon points="1954,774 1813,774 1810,777 1810,800 1951,800 1954,797 1954,774" stroke="#bebebe" fill="#ffffff"/>
 <polyline points="1951,777 1810,777" stroke="#bebebe" fill="none"/>
 <polyline points="1951,777 1951,800" stroke="#bebebe" fill="none"/>
 <polyline points="1951,777 1954,774" stroke="#bebebe" fill="none"/>
 <text x="1818" y="790" fill="#000000" font-family="Arial" font-size="12">jni/RootFinder.cpp</text>
 <polyline points="1954,776 1958,775 1961,775 1965,774 1968,774 1972,774 1976,773 1979,773 1983,773 1986,772 1990,772 1995,772 1999,772 2003,772 2007,772 2010,772 2013,772 2017,772 2021,772 2025,772 2030,772 2079,772 2122,771 2160,771 2195,770 2228,769 2261,769 2296,769 2334,770 2377,772 2426,775 2451,777 2473,779 2493,781 2510,784 2527,786 2544,789 2562,792 2581,795 2603,799 2628,803 2636,804 2643,806 2651,807 2659,809 2667,810 2675,812 2683,813 2690,815 2698,816 2705,818" stroke="#0000cd" fill="none"/>
 <text x="2323" y="762" fill="#000000" font-family="Arial" font-size="12">1</text>
 <polygon points="2705,816 2710,819 2705,820 2705,816" stroke="#0000cd" fill="#0000cd"/>
 <polygon points="2192,786 2069,786 2066,789 2066,812 2189,812 2192,809 2192,786" stroke="#bebebe" fill="#ffffff"/>
 <polyline points="2189,789 2066,789" stroke="#bebebe" fill="none"/>
 <polyline points="2189,789 2189,812" stroke="#bebebe" fill="none"/>
 <polyline points="2189,789 2192,786" stroke="#bebebe" fill="none"/>
 <text x="2074" y="802" fill="#000000" font-family="Arial" font-size="12">jni/RootFinder.h</text>
 <polyline points="1954,790 1964,791 1975,791 1986,792 1997,792 2008,793 2019,794 2030,794 2040,795 2051,795 2061,796" stroke="#0000cd" fill="none"/>
 <text x="2001" y="786" fill="#000000" font-family="Arial" font-size="12">18</text>
 <polygon points="2061,794 2066,796 2061,797 2061,794" stroke="#0000cd" fill="#0000cd"/>
 <polyline points="1951,800 1961,802 1972,804 1984,806 1995,808 2007,811 2019,813 2031,815 2043,817 2054,819 2066,821 2111,828 2150,833 2185,836 2217,839 2248,842 2278,845 2310,850 2344,857 2383,866 2426,878 2436,881 2445,885 2455,889 2465,893 2474,897 2484,901 2492,905 2501,909 2509,913 2516,917" stroke="#0000cd" fill="none"/>
 <text x="2228" y="834" fill="#000000" font-family="Arial" font-size="12">21</text>
 <polygon points="2517,916 2521,920 2516,919 2517,916" stroke="#0000cd" fill="#0000cd"/>
 <polyline points="2192,797 2201,797 2209,797 2218,797 2227,797 2236,797 2245,796 2255,796 2264,796 2273,796 2282,796 2293,796 2303,796 2312,796 2319,795 2327,795 2335,795 2342,795 2351,795 2361,796 2372,796 2408,798 2445,800 2481,803 2518,805 2554,809 2589,812 2621,815 2652,818 2680,821 2705,824" stroke="#0000cd" fill="none"/>
 <text x="2413" y="791" fill="#000000" font-family="Arial" font-size="12">1</text>
 <polygon points="2705,822 2710,825 2705,826 2705,822" stroke="#0000cd" fill="#0000cd"/>
 <polyline points="2192,805 2211,807 2232,810 2255,814 2279,818 2303,823 2328,828 2353,834 2378,841 2402,849 2426,858 2437,863 2448,868 2459,874 2470,880 2480,886 2490,893 2499,899 2508,905 2516,911 2523,917" stroke="#0000cd" fill="none"/>
 <text x="2318" y="812" fill="#000000" font-family="Arial" font-size="12">13</text>
 <polygon points="2525,915 2527,920 2522,918 2525,915" stroke="#0000cd" fill="#0000cd"/>
 <polyline points="2144,812 2156,824 2171,838 2188,854 2206,872 2225,890 2244,909 2262,927 2280,944 2295,958 2308,971" stroke="#0000cd" fill="none"/>
 <text x="2233" y="887" fill="#000000" font-family="Arial" font-size="12">1</text>
 <polygon points="2310,970 2312,975 2308,973 2310,970" stroke="#0000cd" fill="#0000cd"/>
 <polyline points="1014,557 1025,557 1037,557 1049,557 1061,557 1074,557 1086,557 1098,557 1110,557 1122,557 1133,557" stroke="#0000cd" fill="none"/>
 <text x="1064" y="551" fill="#000000" font-family="Arial" font-size="12">30</text>
 <polygon points="1134,555 1139,557 1134,559 1134,555" stroke="#0000cd" fill="#0000cd"/>
 <polyline points="1271,1072 1299,1072 1331,1073 1365,1073 1401,1074 1438,1074 1474,1074 1510,1075 1544,1075 1575,1076 1603,1076" stroke="#0000cd" fill="none"/>
 <text x="1449" y="1067" fill="#000000" font-family="Arial" font-size="12">1</text>
 <polygon points="1603,1074 1608,1076 1603,1078 1603,1074" stroke="#0000cd" fill="#0000cd"/>
 <polyline points="1271,1062 1274,1061 1276,1061 1279,1060 1282,1059 1285,1058 1288,1057 1290,1056 1293,1055 1296,1054 1298,1053 1303,1050 1307,1047 1311,1045 1314,1042 1316,1039 1319,1036 1322,1033 1325,1030 1329,1027 1334,1024 1355,1014 1375,1007 1393,1002 1410,999 1427,997 1444,995 1461,992 1478,987 1497,979 1518,967 1523,963 1528,959 1531,956 1534,952 1537,948 1540,944 1543,940 1546,936 1549,931 1554,926 1560,920 1566,915 1571,911 1576,907 1580,903 1585,900 1590,896 1595,892 1601,887 1608,882 1614,877 1630,866 1652,849 1680,829 1709,807 1738,785 1766,764 1788,748 1804,736 1810,732 1831,726 1867,719 1912,711 1965,703 2022,696 2078,689 2131,682 2177,677 2214,674 2236,673 2236,673 2238,673 2244,673 2256,673 2275,673 2303,673 2342,673 2395,673 2462,673 2546,673 2574,676 2601,684 2627,696 2651,711 2674,728 2695,746 2713,765 2729,783 2742,800 2753,814" stroke="#0000cd" fill="none"/>
 <text x="2006" y="688" fill="#000000" font-family="Arial" font-size="12">1</text>
 <polygon points="2755,813 2756,818 2752,815 2755,813" stroke="#0000cd" fill="#0000cd"/>
 <polyline points="1271,1083 1274,1084 1276,1084 1279,1085 1282,1085 1285,1086 1287,1087 1290,1087 1293,1088 1295,1088 1298,1089 1319,1095 1344,1103 1373,1112 1404,1122 1435,1132 1467,1141 1498,1149 1526,1153 1551,1154 1572,1151 1577,1149 1581,1147 1585,1144 1587,1141 1590,1139 1593,1136 1595,1133 1599,1130 1603,1128 1608,1126 1631,1120 1654,1115 1678,1112 1702,1110 1726,1109 1749,1109 1771,1110 1793,1112 1812,1114 1830,1116" stroke="#0000cd" fill="none"/>
 <text x="1559" y="1145" fill="#000000" font-family="Arial" font-size="12">2</text>
 <polygon points="1830,1114 1835,1116 1830,1117 1830,1114" stroke="#0000cd" fill="#0000cd"/>
 <polyline points="1271,1060 1282,1058 1294,1056 1306,1054 1319,1052 1331,1050 1343,1047 1355,1045 1367,1043 1379,1041 1390,1039" stroke="#0000cd" fill="none"/>
 <text x="1334" y="1040" fill="#000000" font-family="Arial" font-size="12">15</text>
 <polygon points="1390,1037 1395,1038 1391,1041 1390,1037" stroke="#0000cd" fill="#0000cd"/>
 <polyline points="1509,1041 1518,1043 1527,1045 1536,1048 1546,1050 1556,1052 1565,1054 1575,1056 1584,1059 1594,1061 1603,1063" stroke="#0000cd" fill="none"/>
 <text x="1559" y="1046" fill="#000000" font-family="Arial" font-size="12">4</text>
 <polygon points="1603,1061 1608,1064 1602,1065 1603,1061" stroke="#0000cd" fill="#0000cd"/>
 <polyline points="1474,1015 1478,1012 1482,1009 1487,1006 1491,1003 1496,1000 1500,996 1505,992 1509,989 1514,985 1518,981 1523,976 1527,972 1530,967 1533,963 1536,959 1538,955 1541,951 1545,947 1549,943 1554,938 1579,920 1602,908 1624,899 1646,893 1667,887 1688,882 1709,875 1730,865 1752,850 1774,830 1781,822 1785,813 1788,805 1789,796 1790,788 1791,779 1793,771 1797,764 1802,756 1810,749 1829,738 1846,731 1863,727 1879,726 1895,728 1911,730 1928,733 1947,735 1967,737 1990,736 2069,730 2139,724 2201,718 2258,714 2313,713 2367,714 2424,719 2484,728 2552,743 2628,764 2640,768 2653,772 2665,777 2677,783 2689,788 2701,794 2712,800 2722,805 2731,810 2740,815" stroke="#0000cd" fill="none"/>
 <text x="2125" y="712" fill="#000000" font-family="Arial" font-size="12">1</text>
 <polygon points="2741,814 2744,818 2739,817 2741,814" stroke="#0000cd" fill="#0000cd"/>
 <polyline points="1511,1026 1536,1025 1564,1025 1594,1025 1624,1025 1655,1026 1684,1028 1712,1030 1736,1033 1758,1037 1774,1042 1779,1044 1784,1047 1787,1050 1790,1053 1793,1056 1796,1059 1799,1063 1802,1066 1805,1070 1810,1074 1815,1078 1819,1081 1824,1085 1829,1089 1834,1092 1839,1096 1844,1099 1848,1102 1853,1105 1857,1108" stroke="#0000cd" fill="none"/>
 <text x="1655" y="1019" fill="#000000" font-family="Arial" font-size="12">15</text>
 <polygon points="1858,1107 1861,1111 1856,1110 1858,1107" stroke="#0000cd" fill="#0000cd"/>
 <polyline points="1473,1015 1477,1012 1481,1009 1486,1006 1490,1003 1495,999 1499,996 1504,992 1509,988 1513,985 1518,981 1523,977 1526,973 1530,970 1533,966 1535,963 1538,960 1541,957 1545,954 1549,951 1554,948 1577,937 1598,928 1616,921 1634,916 1651,913 1669,910 1687,908 1708,906 1730,904 1756,901 1787,900 1837,900 1901,901 1977,904 2060,907 2147,911 2234,916 2317,920 2393,924 2457,928" stroke="#0000cd" fill="none"/>
 <text x="2006" y="898" fill="#000000" font-family="Arial" font-size="12">7</text>
 <polygon points="2457,926 2462,928 2457,930 2457,926" stroke="#0000cd" fill="#0000cd"/>
 <polyline points="1472,1015 1481,1008 1491,1001 1502,993 1512,985 1523,978 1532,971 1541,965 1547,961 1552,957 1554,956 1567,952 1578,949 1589,948 1598,947 1608,948 1617,948 1627,949 1638,950 1650,951 1663,951 1663,951 1666,951 1672,951 1685,951 1707,951 1738,951 1782,951 1841,951 1917,951 2011,951 2040,951 2069,953 2099,955 2128,958 2157,961 2184,964 2211,968 2235,972 2257,976 2277,979" stroke="#0000cd" fill="none"/>
 <text x="1878" y="945" fill="#000000" font-family="Arial" font-size="12">2</text>
 <polygon points="2278,977 2282,980 2277,980 2278,977" stroke="#0000cd" fill="#0000cd"/>
 <polyline points="706,832 722,829 740,826 758,823 777,820 797,817 816,813 835,810 853,807 871,804 887,801" stroke="#0000cd" fill="none"/>
 <text x="790" y="809" fill="#000000" font-family="Arial" font-size="12">22</text>
 <polygon points="887,799 892,800 887,803 887,799" stroke="#0000cd" fill="#0000cd"/>
 <polyline points="2166,1124 2169,1125 2171,1127 2174,1128 2177,1129 2179,1131 2182,1132 2185,1134 2187,1135 2190,1137 2192,1138 2197,1142 2201,1145 2204,1149 2207,1153 2209,1157 2212,1161 2215,1164 2218,1167 2222,1170 2228,1173 2230,1174 2232,1174 2233,1175 2235,1175 2237,1175 2238,1175 2240,1174 2242,1174 2244,1174 2246,1173 2297,1162 2341,1152 2380,1141 2416,1129 2449,1117 2481,1101 2514,1083 2548,1062 2586,1036 2628,1006 2646,992 2662,976 2678,959 2693,942 2707,924 2719,907 2731,890 2740,875 2748,861 2755,849" stroke="#0000cd" fill="none"/>
 <text x="2413" y="1120" fill="#000000" font-family="Arial" font-size="12">1</text>
 <polygon points="2754,848 2758,844 2757,850 2754,848" stroke="#0000cd" fill="#0000cd"/>
 <polyline points="2187,1105 2193,1104 2199,1103 2205,1102 2211,1101 2217,1100 2222,1098 2228,1097 2234,1095 2240,1094 2246,1092 2263,1086 2277,1081 2290,1076 2301,1071 2312,1066 2322,1060 2333,1053 2345,1046 2357,1038 2372,1028 2384,1019 2394,1011 2402,1003 2409,995 2416,987 2423,980 2430,972 2439,965 2449,958 2462,951 2463,951 2463,950 2464,950 2464,950 2465,950 2466,949 2467,949 2467,949 2468,948 2469,948" stroke="#0000cd" fill="none"/>
 <text x="2318" y="1022" fill="#000000" font-family="Arial" font-size="12">29</text>
 <polygon points="2468,946 2473,946 2469,950 2468,946" stroke="#0000cd" fill="#0000cd"/>
 <polyline points="2187,1102 2193,1100 2199,1099 2205,1097 2211,1095 2217,1093 2223,1090 2229,1088 2235,1085 2241,1082 2246,1079 2255,1073 2263,1066 2271,1059 2279,1051 2287,1043 2293,1035 2300,1027 2305,1019 2310,1012 2315,1006" stroke="#0000cd" fill="none"/>
 <text x="2228" y="1073" fill="#000000" font-family="Arial" font-size="12">13</text>
 <polygon points="2314,1005 2318,1001 2317,1006 2314,1005" stroke="#0000cd" fill="#0000cd"/>
 <polygon points="1008,1306 867,1306 864,1309 864,1332 1005,1332 1008,1329 1008,1306" stroke="#bebebe" fill="#ffffff"/>
 <polyline points="1005,1309 864,1309" stroke="#bebebe" fill="none"/>
 <polyline points="1005,1309 1005,1332" stroke="#bebebe" fill="none"/>
 <polyline points="1005,1309 1008,1306" stroke="#bebebe" fill="none"/>
 <text x="872" y="1322" fill="#000000" font-family="Arial" font-size="12">jni/Butterworth.cpp</text>
 <polyline points="1008,1319 1025,1319 1043,1319 1063,1319 1083,1319 1103,1319 1124,1319 1145,1319 1166,1319 1187,1319 1207,1319 1207,1319 1210,1319 1217,1319 1230,1319 1252,1319 1284,1319 1329,1319 1390,1319 1467,1319 1564,1319 1647,1319 1720,1320 1784,1322 1844,1323 1900,1325 1956,1327 2016,1328 2080,1330 2153,1331 2236,1331 2236,1331 2238,1331 2244,1331 2256,1331 2275,1331 2303,1331 2342,1331 2395,1331 2462,1331 2546,1331 2604,1320 2652,1290 2688,1244 2717,1188 2737,1124 2751,1058 2759,993 2764,934 2765,885 2765,849" stroke="#0000cd" fill="none"/>
 <text x="1878" y="1316" fill="#000000" font-family="Arial" font-size="12">1</text>
 <polygon points="2764,849 2765,844 2767,849 2764,849" stroke="#0000cd" fill="#0000cd"/>
 <polyline points="1008,1311 1040,1307 1076,1303 1114,1298 1155,1293 1196,1289 1237,1284 1277,1279 1316,1275 1351,1271 1383,1267" stroke="#0000cd" fill="none"/>
 <text x="1204" y="1271" fill="#000000" font-family="Arial" font-size="12">7</text>
 <polygon points="1383,1265 1388,1266 1383,1269 1383,1265" stroke="#0000cd" fill="#0000cd"/>
 <polyline points="995,1306 998,1305 1002,1304 1005,1303 1008,1302 1012,1301 1015,1300 1019,1299 1022,1298 1025,1297 1028,1296 1039,1292 1049,1287 1058,1283 1065,1279 1073,1275 1080,1271 1088,1267 1096,1263 1106,1259 1118,1255 1173,1238 1222,1227 1266,1219 1307,1214 1347,1210 1386,1205 1426,1199 1470,1190 1518,1176 1572,1157 1577,1155 1581,1153 1584,1150 1587,1148 1590,1146 1592,1144 1595,1141 1599,1139 1603,1138 1608,1136 1617,1134 1632,1133 1651,1131 1674,1130 1699,1129 1726,1128 1753,1127 1781,1126 1806,1125 1830,1125" stroke="#0000cd" fill="none"/>
 <text x="1445" y="1170" fill="#000000" font-family="Arial" font-size="12">11</text>
 <polygon points="1830,1123 1835,1125 1830,1127 1830,1123" stroke="#0000cd" fill="#0000cd"/>
 <polyline points="987,1306 992,1304 996,1302 1001,1299 1005,1297 1009,1294 1014,1291 1018,1288 1021,1284 1025,1281 1028,1277 1042,1256 1051,1236 1057,1217 1059,1198 1059,1180 1058,1161 1057,1141 1057,1120 1059,1097 1064,1071 1068,1051 1071,1032 1073,1015 1074,999 1076,984 1080,969 1085,955 1092,942 1103,928 1118,914 1136,901 1153,894 1169,890 1186,889 1202,890 1219,892 1236,894 1255,895 1276,893 1298,889 1310,885 1319,881 1328,877 1336,873 1343,869 1350,865 1358,861 1367,858 1376,854 1388,851 1439,840 1484,833 1524,829 1561,827 1597,827 1633,828 1671,829 1711,831 1757,831 1810,831 1828,830 1843,830 1857,830 1870,829 1882,829 1894,829 1907,829 1921,830 1936,830 1954,831 1972,832 1994,834 2019,836 2045,839 2073,842 2101,845 2127,848 2152,852 2174,854 2192,857 2224,862 2257,868 2290,874 2322,881 2354,888 2385,894 2414,901 2441,908 2466,914 2488,919" stroke="#0000cd" fill="none"/>
 <text x="1761" y="825" fill="#000000" font-family="Arial" font-size="12">8</text>
 <polygon points="2489,917 2493,920 2488,920 2489,917" stroke="#0000cd" fill="#0000cd"/>
 <polyline points="1008,1306 1010,1305 1012,1304 1014,1302 1016,1301 1018,1300 1020,1298 1022,1297 1024,1295 1026,1294 1028,1292 1037,1281 1043,1269 1045,1257 1046,1246 1046,1234 1045,1222 1046,1211 1049,1199 1055,1187 1064,1176 1087,1157 1108,1145 1130,1137 1151,1134 1173,1132 1195,1132 1219,1131 1243,1128 1270,1122 1298,1111 1310,1105 1320,1099 1329,1093 1336,1088 1343,1082 1350,1076 1358,1070 1366,1064 1376,1057 1388,1051 1390,1050 1392,1049 1393,1048 1395,1047 1397,1047 1399,1046 1401,1045 1402,1044 1404,1044 1406,1043" stroke="#0000cd" fill="none"/>
 <text x="1199" y="1105" fill="#000000" font-family="Arial" font-size="12">15</text>
 <polygon points="1406,1041 1411,1041 1407,1044 1406,1041" stroke="#0000cd" fill="#0000cd"/>
 <polyline points="1008,1306 1010,1305 1013,1304 1015,1302 1017,1301 1019,1300 1021,1298 1023,1297 1024,1295 1026,1294 1028,1292 1039,1279 1045,1266 1049,1254 1051,1242 1051,1229 1051,1216 1052,1203 1053,1189 1057,1175 1064,1159 1067,1154 1072,1147 1077,1141 1083,1133 1089,1126 1095,1119 1101,1113 1107,1107 1113,1102 1118,1098 1120,1097 1123,1095 1125,1094 1128,1092 1130,1091 1133,1090 1135,1089 1138,1088 1140,1087 1143,1086" stroke="#0000cd" fill="none"/>
 <text x="1069" y="1128" fill="#000000" font-family="Arial" font-size="12">9</text>
 <polygon points="1142,1084 1148,1084 1143,1087 1142,1084" stroke="#0000cd" fill="#0000cd"/>
 <polygon points="1275,923 1144,923 1142,926 1142,949 1272,949 1275,946 1275,923" stroke="#bebebe" fill="#ffffff"/>
 <polyline points="1272,926 1142,926" stroke="#bebebe" fill="none"/>
 <polyline points="1272,926 1272,949" stroke="#bebebe" fill="none"/>
 <polyline points="1272,926 1275,923" stroke="#bebebe" fill="none"/>
 <text x="1150" y="939" fill="#000000" font-family="Arial" font-size="12">jni/PoleFilter.cpp</text>
 <polyline points="1253,923 1273,917 1295,910 1320,903 1346,894 1374,885 1402,875 1431,865 1461,855 1490,844 1518,833 1544,823 1566,814 1585,805 1603,797 1620,789 1637,781 1655,773 1674,764 1695,754 1720,742 1731,737 1741,731 1749,727 1757,722 1764,718 1771,714 1779,710 1788,706 1798,703 1810,699 1841,691 1880,684 1924,677 1972,671 2022,666 2071,661 2119,658 2164,655 2203,654 2236,653 2236,653 2238,653 2244,653 2256,653 2275,653 2303,653 2342,653 2395,653 2462,653 2546,653 2562,653 2577,651 2590,650 2602,649 2613,649 2625,649 2636,651 2648,654 2660,660 2674,668 2689,680 2702,693 2714,708 2724,724 2733,740 2741,757 2748,773 2753,787 2758,801 2761,812" stroke="#0000cd" fill="none"/>
 <text x="2006" y="659" fill="#000000" font-family="Arial" font-size="12">1</text>
 <polygon points="2762,812 2762,818 2759,813 2762,812" stroke="#0000cd" fill="#0000cd"/>
 <polyline points="1275,945 1285,947 1296,948 1307,950 1319,951 1330,953 1342,955 1354,956 1365,958 1377,959 1388,961 1413,964 1444,967 1479,970 1516,973 1555,977 1594,981 1631,985 1665,990 1695,996 1720,1003 1727,1006 1733,1008 1739,1010 1744,1013 1749,1016 1753,1018 1758,1022 1762,1025 1768,1029 1774,1034 1779,1038 1783,1042 1787,1046 1790,1050 1792,1054 1795,1057 1798,1061 1801,1065 1805,1069 1810,1074 1814,1078 1819,1082 1823,1085 1828,1089 1833,1093 1838,1096 1843,1099 1847,1102 1852,1105 1856,1108" stroke="#0000cd" fill="none"/>
 <text x="1554" y="970" fill="#000000" font-family="Arial" font-size="12">49</text>
 <polygon points="1857,1107 1860,1111 1855,1110 1857,1107" stroke="#0000cd" fill="#0000cd"/>
 <polyline points="1271,923 1328,912 1399,900 1484,888 1579,876 1682,865 1791,858 1905,854 2020,855 2134,862 2246,876 2251,877 2255,878 2258,879 2261,880 2264,882 2267,883 2270,884 2274,886 2278,887 2282,888 2300,892 2317,896 2336,900 2354,904 2372,907 2390,910 2407,913 2424,916 2441,919 2457,921" stroke="#0000cd" fill="none"/>
 <text x="1873" y="847" fill="#000000" font-family="Arial" font-size="12">38</text>
 <polygon points="2457,920 2462,922 2457,923 2457,920" stroke="#0000cd" fill="#0000cd"/>
 <polyline points="1244,949 1258,954 1274,960 1291,967 1309,974 1327,981 1346,988 1364,994 1382,1001 1398,1007 1413,1013" stroke="#0000cd" fill="none"/>
 <text x="1334" y="978" fill="#000000" font-family="Arial" font-size="12">78</text>
 <polygon points="1414,1012 1418,1015 1412,1015 1414,1012" stroke="#0000cd" fill="#0000cd"/>
 <polyline points="1275,933 1319,931 1371,929 1432,927 1498,925 1569,924 1644,923 1721,923 1799,924 1878,926 1954,929 1984,930 2009,932 2032,933 2053,934 2073,936 2093,938 2114,940 2137,944 2163,948 2192,953 2201,955 2210,956 2219,958 2228,960 2237,962 2245,965 2254,967 2262,969 2270,972 2278,974" stroke="#0000cd" fill="none"/>
 <text x="1756" y="917" fill="#000000" font-family="Arial" font-size="12">35</text>
 <polygon points="2279,972 2283,975 2278,975 2279,972" stroke="#0000cd" fill="#0000cd"/>
 <polygon points="409,1283 312,1283 309,1286 309,1309 406,1309 409,1306 409,1283" stroke="#bebebe" fill="#ffffff"/>
 <polyline points="406,1286 309,1286" stroke="#bebebe" fill="none"/>
 <polyline points="406,1286 406,1309" stroke="#bebebe" fill="none"/>
 <polyline points="406,1286 409,1283" stroke="#bebebe" fill="none"/>
 <text x="317" y="1299" fill="#000000" font-family="Arial" font-size="12">jni/hardware</text>
 <polygon points="127,1283 50,1283 48,1286 48,1309 124,1309 127,1306 127,1283" stroke="#bebebe" fill="#ffffff"/>
 <polyline points="124,1286 48,1286" stroke="#bebebe" fill="none"/>
 <polyline points="124,1286 124,1309" stroke="#bebebe" fill="none"/>
 <polyline points="124,1286 127,1283" stroke="#bebebe" fill="none"/>
 <text x="56" y="1299" fill="#000000" font-family="Arial" font-size="12">jni/media</text>
 <polyline points="133,1296 148,1296 164,1296 181,1296 198,1296 217,1296 235,1296 253,1296 271,1296 287,1296 303,1296" stroke="#cd0000" fill="none"/>
 <text x="191" y="1290" fill="#000000" font-family="Arial" font-size="12">23 / 8</text>
 <polygon points="303,1296 306,1298 309,1296 306,1294 303,1296" stroke="#cd0000" fill="#cd0000"/>
 <polygon points="133,1296 130,1294 127,1296 130,1298 133,1296" stroke="#cd0000" fill="#cd0000"/>
</svg>
