<?xml version="1.0"?>
<svg width="1122" height="622" xmlns="http://www.w3.org/2000/svg" version="1.1">
 <polygon points="4,619 4,4 1119,4 1119,619 4,619" stroke="#ffffff" fill="#ffffff"/>
 <polygon points="24,610 54,610 136,610 256,610 402,610 561,610 720,610 866,610 986,610 1068,610 1098,610 1100,610 1102,609 1103,609 1105,608 1106,606 1108,605 1109,603 1109,602 1110,600 1110,598 1110,582 1110,538 1110,474 1110,396 1110,311 1110,226 1110,148 1110,84 1110,40 1110,24 1110,22 1109,20 1109,19 1108,17 1106,16 1105,14 1103,13 1102,13 1100,12 1098,12 1068,12 986,12 866,12 720,12 561,12 402,12 256,12 136,12 54,12 24,12 22,12 20,13 19,13 17,14 16,16 14,17 13,19 13,20 12,22 12,24 12,40 12,84 12,148 12,226 12,311 12,396 12,474 12,538 12,582 12,598 12,600 13,602 13,603 14,605 16,606 17,608 19,609 20,609 22,610 24,610" stroke="#000000" fill="#FFFFCC"/>
 <text x="554" y="28" fill="#000000" font-family="Arial" font-size="12">jni</text>
 <polygon points="932,522 789,522 787,525 787,548 929,548 932,545 932,522" stroke="#bebebe" fill="#ffffff"/>
 <polyline points="929,525 787,525" stroke="#bebebe" fill="none"/>
 <polyline points="929,525 929,548" stroke="#bebebe" fill="none"/>
 <polyline points="929,525 932,522" stroke="#bebebe" fill="none"/>
 <text x="795" y="538" fill="#000000" font-family="Arial" font-size="12">jni/libHybridConv.h</text>
 <polygon points="1098,552 1021,552 1019,555 1019,578 1095,578 1098,575 1098,552" stroke="#bebebe" fill="#ffffff"/>
 <polyline points="1095,555 1019,555" stroke="#bebebe" fill="none"/>
 <polyline points="1095,555 1095,578" stroke="#bebebe" fill="none"/>
 <polyline points="1095,555 1098,552" stroke="#bebebe" fill="none"/>
 <text x="1027" y="568" fill="#000000" font-family="Arial" font-size="12">jni/fftw3.h</text>
 <polyline points="932,546 940,547 948,548 957,550 965,551 974,552 982,554 990,555 998,556 1006,557 1013,558" stroke="#0000cd" fill="none"/>
 <text x="969" y="545" fill="#000000" font-family="Arial" font-size="12">4</text>
 <polygon points="1014,557 1018,559 1013,560 1014,557" stroke="#0000cd" fill="#0000cd"/>
 <polygon points="686,576 525,576 523,579 523,602 683,602 686,599 686,576" stroke="#bebebe" fill="#ffffff"/>
 <polyline points="683,579 523,579" stroke="#bebebe" fill="none"/>
 <polyline points="683,579 683,602" stroke="#bebebe" fill="none"/>
 <polyline points="683,579 686,576" stroke="#bebebe" fill="none"/>
 <text x="531" y="592" fill="#000000" font-family="Arial" font-size="12">jni/libHybridConv.cpp</text>
 <polyline points="686,586 692,585 699,585 705,584 712,583 718,582 724,581 731,580 737,579 744,577 750,576 755,575 759,574 762,572 765,571 768,570 771,568 774,567 778,565 782,564 786,562 789,561 792,560 795,558 799,557 802,556 805,555 809,554 812,552 815,551 818,550" stroke="#0000cd" fill="none"/>
 <text x="723" y="570" fill="#000000" font-family="Arial" font-size="12">268</text>
 <polygon points="818,548 823,548 819,551 818,548" stroke="#0000cd" fill="#0000cd"/>
 <polyline points="686,587 692,587 699,587 705,587 712,587 718,586 724,586 731,586 737,586 744,585 750,585 773,584 792,583 810,582 826,582 841,581 856,580 872,579 890,578 909,576 932,575 940,574 948,574 957,573 965,573 974,572 982,571 990,571 998,570 1006,570 1013,569" stroke="#0000cd" fill="none"/>
 <text x="855" y="569" fill="#000000" font-family="Arial" font-size="12">7</text>
 <polygon points="1013,567 1018,568 1014,570 1013,567" stroke="#0000cd" fill="#0000cd"/>
 <polygon points="1102,240 1017,240 1014,243 1014,266 1099,266 1102,263 1102,240" stroke="#bebebe" fill="#ffffff"/>
 <polyline points="1099,243 1014,243" stroke="#bebebe" fill="none"/>
 <polyline points="1099,243 1099,266" stroke="#bebebe" fill="none"/>
 <polyline points="1099,243 1102,240" stroke="#bebebe" fill="none"/>
 <text x="1022" y="256" fill="#000000" font-family="Arial" font-size="12">jni/Effect.h</text>
 <polygon points="912,224 809,224 806,227 806,250 909,250 912,247 912,224" stroke="#bebebe" fill="#ffffff"/>
 <polyline points="909,227 806,227" stroke="#bebebe" fill="none"/>
 <polyline points="909,227 909,250" stroke="#bebebe" fill="none"/>
 <polyline points="909,227 912,224" stroke="#bebebe" fill="none"/>
 <text x="814" y="240" fill="#000000" font-family="Arial" font-size="12">jni/Effect.cpp</text>
 <polyline points="912,241 921,242 931,243 941,244 950,245 961,245 971,246 980,247 990,248 1000,248 1009,249" stroke="#0000cd" fill="none"/>
 <text x="969" y="239" fill="#000000" font-family="Arial" font-size="12">6</text>
 <polygon points="1009,247 1014,249 1009,251 1009,247" stroke="#0000cd" fill="#0000cd"/>
 <polygon points="905,345 816,345 814,348 814,371 902,371 905,368 905,345" stroke="#bebebe" fill="#ffffff"/>
 <polyline points="902,348 814,348" stroke="#bebebe" fill="none"/>
 <polyline points="902,348 902,371" stroke="#bebebe" fill="none"/>
 <polyline points="902,348 905,345" stroke="#bebebe" fill="none"/>
 <text x="822" y="361" fill="#000000" font-family="Arial" font-size="12">jni/reverb.h</text>
 <polygon points="659,390 552,390 550,393 550,416 656,416 659,413 659,390" stroke="#bebebe" fill="#ffffff"/>
 <polyline points="656,393 550,393" stroke="#bebebe" fill="none"/>
 <polyline points="656,393 656,416" stroke="#bebebe" fill="none"/>
 <polyline points="656,393 659,390" stroke="#bebebe" fill="none"/>
 <text x="558" y="406" fill="#000000" font-family="Arial" font-size="12">jni/reverb.cpp</text>
 <polyline points="659,392 665,391 671,390 677,388 683,387 690,386 696,385 703,384 709,382 716,381 722,380 731,379 739,377 748,376 757,374 766,373 775,371 783,370 792,369 800,367 808,366" stroke="#0000cd" fill="none"/>
 <text x="723" y="369" fill="#000000" font-family="Arial" font-size="12">621</text>
 <polygon points="808,364 813,365 809,367 808,364" stroke="#0000cd" fill="#0000cd"/>
 <polygon points="422,323 247,323 244,326 244,349 419,349 422,346 422,323" stroke="#bebebe" fill="#ffffff"/>
 <polyline points="419,326 244,326" stroke="#bebebe" fill="none"/>
 <polyline points="419,326 419,349" stroke="#bebebe" fill="none"/>
 <polyline points="419,326 422,323" stroke="#bebebe" fill="none"/>
 <text x="252" y="339" fill="#000000" font-family="Arial" font-size="12">jni/EffectDSPMain.cpp</text>
 <polyline points="345,349 351,356 358,365 366,375 374,385 382,397 391,409 399,421 407,434 415,447 422,460 427,472 431,484 432,495 434,506 434,516 436,526 438,535 442,545 449,554 458,563 463,567 468,571 474,574 480,577 486,580 492,582 498,584 504,586 511,588 517,589" stroke="#0000cd" fill="none"/>
 <text x="468" y="557" fill="#000000" font-family="Arial" font-size="12">6</text>
 <polygon points="518,587 522,589 517,590 518,587" stroke="#0000cd" fill="#0000cd"/>
 <polyline points="416,349 417,350 417,350 418,351 418,351 419,352 420,352 420,352 421,353 421,353 422,354 431,363 437,372 441,382 444,391 445,400 446,410 447,420 449,431 452,442 458,454 464,465 469,475 474,484 479,492 483,500 489,507 495,513 502,519 511,525 522,531 538,537 558,541 581,544 608,545 637,546 666,546 696,545 726,544 755,543 781,541" stroke="#0000cd" fill="none"/>
 <text x="600" y="525" fill="#000000" font-family="Arial" font-size="12">3</text>
 <polygon points="781,540 786,541 781,543 781,540" stroke="#0000cd" fill="#0000cd"/>
 <polyline points="363,323 371,320 379,316 388,312 398,308 408,304 418,300 428,296 438,292 448,288 458,284 466,281 473,279 479,276 484,274 490,272 495,270 501,268 507,267 514,265 522,263 546,258 568,255 587,253 604,252 621,251 638,250 656,250 675,250 697,249 722,247 730,246 738,246 746,245 754,245 762,244 770,243 778,243 786,242 793,242 801,241" stroke="#0000cd" fill="none"/>
 <text x="600" y="243" fill="#000000" font-family="Arial" font-size="12">6</text>
 <polygon points="801,239 806,241 801,243 801,239" stroke="#0000cd" fill="#0000cd"/>
 <polyline points="372,349 379,351 387,354 396,357 404,360 413,362 422,365 431,368 440,370 449,373 458,375 467,377 475,379 484,381 493,383 502,385 511,387 519,388 528,390 536,391 544,393" stroke="#0000cd" fill="none"/>
 <text x="468" y="369" fill="#000000" font-family="Arial" font-size="12">2</text>
 <polygon points="545,392 549,394 544,395 545,392" stroke="#0000cd" fill="#0000cd"/>
 <polygon points="647,272 564,272 561,275 561,298 644,298 647,295 647,272" stroke="#bebebe" fill="#ffffff"/>
 <polyline points="644,275 561,275" stroke="#bebebe" fill="none"/>
 <polyline points="644,275 644,298" stroke="#bebebe" fill="none"/>
 <polyline points="644,275 647,272" stroke="#bebebe" fill="none"/>
 <text x="569" y="288" fill="#000000" font-family="Arial" font-size="12">jni/firgen.h</text>
 <polyline points="401,323 406,322 412,321 418,320 423,319 429,318 435,316 441,315 447,314 452,313 458,312 468,310 478,308 488,306 498,305 509,303 518,301 528,299 538,297 547,296 556,294" stroke="#0000cd" fill="none"/>
 <text x="468" y="300" fill="#000000" font-family="Arial" font-size="12">2</text>
 <polygon points="556,292 561,293 556,295 556,292" stroke="#0000cd" fill="#0000cd"/>
 <polyline points="422,330 449,328 479,325 509,323 539,321 569,318 597,316 624,313 648,311 669,309 686,307 690,306 694,306 698,305 701,305 704,304 707,303 710,303 714,302 718,302 722,301 753,296 785,291 817,287 848,282 879,278 909,273 938,269 964,266 988,263 1009,260" stroke="#0000cd" fill="none"/>
 <text x="727" y="290" fill="#000000" font-family="Arial" font-size="12">44</text>
 <polygon points="1009,258 1014,259 1009,261 1009,258" stroke="#0000cd" fill="#0000cd"/>
 <polygon points="656,100 555,100 552,103 552,126 653,126 656,123 656,100" stroke="#bebebe" fill="#ffffff"/>
 <polyline points="653,103 552,103" stroke="#bebebe" fill="none"/>
 <polyline points="653,103 653,126" stroke="#bebebe" fill="none"/>
 <polyline points="653,103 656,100" stroke="#bebebe" fill="none"/>
 <text x="560" y="116" fill="#000000" font-family="Arial" font-size="12">jni/gverb.cpp</text>
 <polyline points="349,323 357,316 365,308 375,299 386,290 397,280 409,269 421,259 434,248 446,237 458,227 461,224 465,222 467,220 470,218 473,216 475,214 478,212 480,210 483,207 486,204 491,197 495,190 498,183 501,177 503,171 505,164 507,158 511,152 515,146 522,140 524,138 526,137 529,135 531,133 534,132 536,130 539,129 542,128 544,127 547,126" stroke="#0000cd" fill="none"/>
 <text x="463" y="198" fill="#000000" font-family="Arial" font-size="12">16</text>
 <polygon points="546,124 552,124 548,127 546,124" stroke="#0000cd" fill="#0000cd"/>
 <polygon points="684,434 527,434 524,437 524,460 681,460 684,457 684,434" stroke="#bebebe" fill="#ffffff"/>
 <polyline points="681,437 524,437" stroke="#bebebe" fill="none"/>
 <polyline points="681,437 681,460" stroke="#bebebe" fill="none"/>
 <polyline points="681,437 684,434" stroke="#bebebe" fill="none"/>
 <text x="532" y="450" fill="#000000" font-family="Arial" font-size="12">jni/EffectDSPMain.h</text>
 <polyline points="356,349 364,354 372,359 382,364 392,370 402,376 413,381 424,387 435,393 447,398 458,403 466,406 473,409 479,411 484,413 490,415 495,417 501,419 507,420 514,423 522,425 524,426 527,427 529,427 532,428 535,429 537,430 540,430 542,431 545,431 547,432" stroke="#0000cd" fill="none"/>
 <text x="459" y="397" fill="#000000" font-family="Arial" font-size="12">444</text>
 <polygon points="548,431 553,434 547,434 548,431" stroke="#0000cd" fill="#0000cd"/>
 <polygon points="902,149 819,149 816,152 816,175 899,175 902,172 902,149" stroke="#bebebe" fill="#ffffff"/>
 <polyline points="899,152 816,152" stroke="#bebebe" fill="none"/>
 <polyline points="899,152 899,175" stroke="#bebebe" fill="none"/>
 <polyline points="899,152 902,149" stroke="#bebebe" fill="none"/>
 <text x="824" y="165" fill="#000000" font-family="Arial" font-size="12">jni/gverb.h</text>
 <polyline points="352,323 363,315 376,307 390,297 406,286 424,276 442,265 462,254 482,244 502,235 522,227 552,216 584,207 616,199 647,192 679,185 709,180 738,175 765,171 790,168 811,166" stroke="#0000cd" fill="none"/>
 <text x="595" y="178" fill="#000000" font-family="Arial" font-size="12">14</text>
 <polygon points="811,164 816,166 811,168 811,164" stroke="#0000cd" fill="#0000cd"/>
 <polyline points="422,339 449,340 478,342 509,343 541,344 575,346 610,347 645,349 681,350 716,352 750,353 756,353 762,354 768,354 773,354 779,355 785,355 791,355 797,355 803,356 808,356" stroke="#0000cd" fill="none"/>
 <text x="600" y="337" fill="#000000" font-family="Arial" font-size="12">1</text>
 <polygon points="808,354 813,356 808,357 808,354" stroke="#0000cd" fill="#0000cd"/>
 <polygon points="678,478 533,478 531,481 531,504 675,504 678,501 678,478" stroke="#bebebe" fill="#ffffff"/>
 <polyline points="675,481 531,481" stroke="#bebebe" fill="none"/>
 <polyline points="675,481 675,504" stroke="#bebebe" fill="none"/>
 <polyline points="675,481 678,478" stroke="#bebebe" fill="none"/>
 <text x="539" y="494" fill="#000000" font-family="Arial" font-size="12">jni/compressor.cpp</text>
 <polyline points="348,349 358,358 370,369 385,382 401,395 419,409 438,422 458,436 479,448 500,459 522,469 524,470 526,471 528,471 530,472 533,473 535,474 537,474 539,475 541,475 543,476" stroke="#0000cd" fill="none"/>
 <text x="468" y="431" fill="#000000" font-family="Arial" font-size="12">2</text>
 <polygon points="544,475 548,478 543,478 544,475" stroke="#0000cd" fill="#0000cd"/>
 <polyline points="656,123 670,126 685,129 701,132 717,135 734,138 750,141 767,144 782,147 797,150 811,153" stroke="#0000cd" fill="none"/>
 <text x="723" y="131" fill="#000000" font-family="Arial" font-size="12">159</text>
 <polygon points="811,151 816,154 810,155 811,151" stroke="#0000cd" fill="#0000cd"/>
 <polyline points="660,460 663,461 665,462 668,463 671,464 673,465 676,465 679,466 681,467 684,468 686,469 691,471 695,473 698,475 701,477 704,479 707,480 710,482 713,484 717,486 722,488 731,492 740,495 749,499 758,502 767,506 776,509 785,512 794,515 802,517 810,520" stroke="#0000cd" fill="none"/>
 <text x="732" y="482" fill="#000000" font-family="Arial" font-size="12">2</text>
 <polygon points="811,519 815,522 809,522 811,519" stroke="#0000cd" fill="#0000cd"/>
 <polyline points="672,434 673,433 675,432 676,431 678,431 679,430 681,429 682,428 683,427 685,426 686,425 693,418 698,411 702,405 704,398 706,391 708,384 710,377 712,369 716,361 722,353 732,341 743,328 755,317 767,306 779,295 791,285 803,276 814,267 824,260 834,253" stroke="#0000cd" fill="none"/>
 <text x="732" y="317" fill="#000000" font-family="Arial" font-size="12">2</text>
 <polygon points="833,252 838,250 835,255 833,252" stroke="#0000cd" fill="#0000cd"/>
 <polyline points="684,441 710,439 738,436 766,433 795,430 824,426 851,421 876,416 898,411 917,405 932,398 948,388 963,376 978,363 991,349 1004,335 1015,320 1025,306 1034,293 1042,281 1048,271" stroke="#0000cd" fill="none"/>
 <text x="855" y="392" fill="#000000" font-family="Arial" font-size="12">2</text>
 <polygon points="1046,270 1050,266 1049,271 1046,270" stroke="#0000cd" fill="#0000cd"/>
 <polygon points="924,468 797,468 795,471 795,494 921,494 924,491 924,468" stroke="#bebebe" fill="#ffffff"/>
 <polyline points="921,471 795,471" stroke="#bebebe" fill="none"/>
 <polyline points="921,471 921,494" stroke="#bebebe" fill="none"/>
 <polyline points="921,471 924,468" stroke="#bebebe" fill="none"/>
 <text x="803" y="484" fill="#000000" font-family="Arial" font-size="12">jni/compressor.h</text>
 <polyline points="684,458 694,459 705,461 716,462 726,463 737,465 748,466 759,468 769,469 779,471 789,472" stroke="#0000cd" fill="none"/>
 <text x="732" y="456" fill="#000000" font-family="Arial" font-size="12">2</text>
 <polygon points="790,470 794,472 789,474 790,470" stroke="#0000cd" fill="#0000cd"/>
 <polyline points="675,434 676,433 677,432 679,431 680,431 681,430 682,429 683,428 684,427 685,426 686,425 699,407 706,390 709,373 709,356 707,339 705,321 704,303 706,285 711,266 722,247 729,237 738,228 747,220 756,212 767,205 777,198 787,192 797,186 807,181 817,177" stroke="#0000cd" fill="none"/>
 <text x="732" y="212" fill="#000000" font-family="Arial" font-size="12">3</text>
 <polygon points="816,175 822,175 818,179 816,175" stroke="#0000cd" fill="#0000cd"/>
 <polyline points="656,434 659,433 662,432 665,431 668,430 671,430 674,429 677,428 680,427 683,426 686,425 701,420 715,415 730,410 745,405 760,399 774,393 787,388 800,383 812,378 823,373" stroke="#0000cd" fill="none"/>
 <text x="732" y="397" fill="#000000" font-family="Arial" font-size="12">2</text>
 <polygon points="823,371 828,371 824,375 823,371" stroke="#0000cd" fill="#0000cd"/>
 <polyline points="644,504 654,507 663,510 673,513 683,516 692,519 700,522 707,524 714,526 719,527 722,528 725,529 728,529 731,529 734,530 736,530 738,530 741,530 744,529 747,529 750,528 752,527 756,526 762,523 769,520 777,517 786,513 796,509 805,505 815,500 824,496" stroke="#0000cd" fill="none"/>
 <text x="727" y="522" fill="#000000" font-family="Arial" font-size="12">69</text>
 <polygon points="824,494 829,494 825,498 824,494" stroke="#0000cd" fill="#0000cd"/>
 <polygon points="154,242 23,242 21,245 21,268 151,268 154,265 154,242" stroke="#bebebe" fill="#ffffff"/>
 <polyline points="151,245 21,245" stroke="#bebebe" fill="none"/>
 <polyline points="151,245 151,268" stroke="#bebebe" fill="none"/>
 <polyline points="151,245 154,242" stroke="#bebebe" fill="none"/>
 <text x="29" y="258" fill="#000000" font-family="Arial" font-size="12">jni/jamesdsp.cpp</text>
 <polyline points="141,242 164,237 190,231 219,224 250,218 283,212 318,206 353,200 388,194 423,190 458,186 461,186 464,186 467,185 470,185 472,185 474,185 477,185 480,186 483,186 486,186 490,187 494,187 498,188 501,189 504,190 507,191 510,192 514,193 518,193 522,194 539,195 560,196 584,196 609,195 636,195 663,194 688,194 712,195 733,196 750,198 758,200 766,202 774,204 782,206 789,209 797,211 804,214 812,217 818,219 825,222" stroke="#0000cd" fill="none"/>
 <text x="468" y="179" fill="#000000" font-family="Arial" font-size="12">2</text>
 <polygon points="826,220 830,224 825,224 826,220" stroke="#0000cd" fill="#0000cd"/>
 <polyline points="127,268 141,273 156,278 172,283 189,289 207,295 224,300 241,306 258,311 274,316 288,321" stroke="#0000cd" fill="none"/>
 <text x="195" y="284" fill="#000000" font-family="Arial" font-size="12">1</text>
 <polygon points="288,320 292,323 287,323 288,320" stroke="#0000cd" fill="#0000cd"/>
 <polyline points="96,242 106,227 120,207 137,185 157,161 181,137 207,114 235,94 266,78 298,68 332,64 333,64 336,64 346,64 366,64 398,64 446,64 513,64 602,64 717,64 860,64 889,68 915,77 940,92 963,111 983,132 1001,155 1017,177 1030,199 1041,219 1049,235" stroke="#0000cd" fill="none"/>
 <text x="600" y="58" fill="#000000" font-family="Arial" font-size="12">2</text>
 <polygon points="1051,234 1051,240 1047,236 1051,234" stroke="#0000cd" fill="#0000cd"/>
 <polyline points="102,268 111,276 121,286 133,296 147,308 161,319 177,331 193,343 210,355 227,366 244,376 269,390 291,401 311,411 329,419 347,427 365,433 384,438 406,444 430,449 458,454 464,455 470,456 476,456 482,457 489,457 495,457 501,457 507,457 513,457 519,457" stroke="#0000cd" fill="none"/>
 <text x="329" y="370" fill="#000000" font-family="Arial" font-size="12">1</text>
 <polygon points="519,456 524,457 519,459 519,456" stroke="#0000cd" fill="#0000cd"/>
 <polygon points="383,518 286,518 283,521 283,544 380,544 383,541 383,518" stroke="#bebebe" fill="#ffffff"/>
 <polyline points="380,521 283,521" stroke="#bebebe" fill="none"/>
 <polyline points="380,521 380,544" stroke="#bebebe" fill="none"/>
 <polyline points="380,521 383,518" stroke="#bebebe" fill="none"/>
 <text x="291" y="534" fill="#000000" font-family="Arial" font-size="12">jni/hardware</text>
 <polygon points="127,512 50,512 48,515 48,538 124,538 127,535 127,512" stroke="#bebebe" fill="#ffffff"/>
 <polyline points="124,515 48,515" stroke="#bebebe" fill="none"/>
 <polyline points="124,515 124,538" stroke="#bebebe" fill="none"/>
 <polyline points="124,515 127,512" stroke="#bebebe" fill="none"/>
 <text x="56" y="528" fill="#000000" font-family="Arial" font-size="12">jni/media</text>
 <polyline points="127,526 140,526 154,527 169,527 184,528 200,528 216,528 233,529 248,529 264,530 278,530" stroke="#0000cd" fill="none"/>
 <text x="190" y="521" fill="#000000" font-family="Arial" font-size="12">55</text>
 <polygon points="278,528 283,530 278,531 278,528" stroke="#0000cd" fill="#0000cd"/>
 <polygon points="111,556 66,556 63,559 63,582 108,582 111,579 111,556" stroke="#bebebe" fill="#ffffff"/>
 <polyline points="108,559 63,559" stroke="#bebebe" fill="none"/>
 <polyline points="108,559 108,582" stroke="#bebebe" fill="none"/>
 <polyline points="108,559 111,556" stroke="#bebebe" fill="none"/>
 <text x="71" y="572" fill="#000000" font-family="Arial" font-size="12">jni/iir</text>
</svg>
