<?xml version="1.0"?>
<svg width="1186" height="750" xmlns="http://www.w3.org/2000/svg" version="1.1">
 <polygon points="4,747 4,3 1183,3 1183,747 4,747" stroke="#ffffff" fill="#ffffff"/>
 <polygon points="24,726 56,726 142,726 270,726 425,726 593,726 761,726 916,726 1044,726 1130,726 1162,726 1164,726 1166,725 1167,725 1169,724 1170,722 1172,721 1173,719 1173,718 1174,716 1174,714 1174,695 1174,642 1174,565 1174,471 1174,369 1174,266 1174,172 1174,95 1174,42 1174,23 1174,21 1173,19 1173,18 1172,16 1170,15 1169,13 1167,12 1166,12 1164,11 1162,11 1130,11 1044,11 916,11 761,11 593,11 425,11 270,11 142,11 56,11 24,11 22,11 20,12 19,12 17,13 16,15 14,16 13,18 13,19 12,21 12,23 12,42 12,95 12,172 12,266 12,369 12,471 12,565 12,642 12,695 12,714 12,716 13,718 13,719 14,721 16,722 17,724 19,725 20,725 22,726 24,726" stroke="#000000" fill="#FFFFCC"/>
 <text x="591" y="27" fill="#000000" font-family="Arial" font-size="12">JamesDSPEngine</text>
 <polygon points="869,231 792,231 789,234 789,257 866,257 869,254 869,231" stroke="#bebebe" fill="#ffffff"/>
 <polyline points="866,234 789,234" stroke="#bebebe" fill="none"/>
 <polyline points="866,234 866,257" stroke="#bebebe" fill="none"/>
 <polyline points="866,234 869,231" stroke="#bebebe" fill="none"/>
 <text x="797" y="247" fill="#000000" font-family="Arial" font-size="12">reverb.h</text>
 <polygon points="607,352 530,352 527,355 527,378 604,378 607,375 607,352" stroke="#bebebe" fill="#ffffff"/>
 <polyline points="604,355 527,355" stroke="#bebebe" fill="none"/>
 <polyline points="604,355 604,378" stroke="#bebebe" fill="none"/>
 <polyline points="604,355 607,352" stroke="#bebebe" fill="none"/>
 <text x="535" y="368" fill="#000000" font-family="Arial" font-size="12">reverb.c</text>
 <polyline points="607,356 611,355 615,353 619,352 622,350 626,348 630,346 633,343 636,341 639,338 642,335 650,324 655,313 657,302 658,290 658,279 658,268 659,258 662,248 668,238 678,229 684,226 692,224 701,223 711,223 723,224 735,225 747,226 760,228 772,231 784,233" stroke="#0000cd" fill="none"/>
 <text x="683" y="217" fill="#000000" font-family="Arial" font-size="12">621</text>
 <polygon points="784,232 789,234 784,235 784,232" stroke="#0000cd" fill="#0000cd"/>
 <polygon points="1166,94 1011,94 1008,97 1008,120 1163,120 1166,117 1166,94" stroke="#bebebe" fill="#ffffff"/>
 <polyline points="1163,97 1008,97" stroke="#bebebe" fill="none"/>
 <polyline points="1163,97 1163,120" stroke="#bebebe" fill="none"/>
 <polyline points="1163,97 1166,94" stroke="#bebebe" fill="none"/>
 <text x="1016" y="110" fill="#000000" font-family="Arial" font-size="12">wdfcircuits_triode.h</text>
 <polygon points="603,73 534,73 532,76 532,99 600,99 603,96 603,73" stroke="#bebebe" fill="#ffffff"/>
 <polyline points="600,76 532,76" stroke="#bebebe" fill="none"/>
 <polyline points="600,76 600,99" stroke="#bebebe" fill="none"/>
 <polyline points="600,76 603,73" stroke="#bebebe" fill="none"/>
 <text x="540" y="89" fill="#000000" font-family="Arial" font-size="12">Tube.c</text>
 <polyline points="603,89 614,90 627,91 641,91 656,92 671,94 687,95 703,96 719,96 734,97 750,98 776,99 803,100 830,101 857,102 883,103 909,103 935,104 959,105 982,105 1003,106" stroke="#0000cd" fill="none"/>
 <text x="820" y="92" fill="#000000" font-family="Arial" font-size="12">17</text>
 <polygon points="1003,104 1008,106 1003,107 1003,104" stroke="#0000cd" fill="#0000cd"/>
 <polygon points="908,45 753,45 750,48 750,71 905,71 908,68 908,45" stroke="#bebebe" fill="#ffffff"/>
 <polyline points="905,48 750,48" stroke="#bebebe" fill="none"/>
 <polyline points="905,48 905,71" stroke="#bebebe" fill="none"/>
 <polyline points="905,48 908,45" stroke="#bebebe" fill="none"/>
 <text x="758" y="61" fill="#000000" font-family="Arial" font-size="12">wdfcircuits_triode.c</text>
 <polyline points="603,82 614,81 627,79 640,78 654,76 669,75 684,73 700,72 715,70 730,69 745,67" stroke="#0000cd" fill="none"/>
 <text x="692" y="65" fill="#000000" font-family="Arial" font-size="12">7</text>
 <polygon points="745,65 750,66 745,69 745,65" stroke="#0000cd" fill="#0000cd"/>
 <polygon points="865,187 796,187 794,190 794,213 862,213 865,210 865,187" stroke="#bebebe" fill="#ffffff"/>
 <polyline points="862,190 794,190" stroke="#bebebe" fill="none"/>
 <polyline points="862,190 862,213" stroke="#bebebe" fill="none"/>
 <polyline points="862,190 865,187" stroke="#bebebe" fill="none"/>
 <text x="802" y="203" fill="#000000" font-family="Arial" font-size="12">Tube.h</text>
 <polyline points="603,98 607,100 610,101 614,102 618,104 622,106 626,107 630,109 634,110 638,112 642,113 651,117 659,120 667,122 673,125 680,127 686,130 692,133 699,137 706,141 714,146 719,150 723,153 726,156 729,160 732,163 734,166 737,169 741,172 745,175 750,178 754,180 757,181 761,183 765,185 769,186 773,188 777,189 781,190 784,192 788,193" stroke="#0000cd" fill="none"/>
 <text x="678" y="122" fill="#000000" font-family="Arial" font-size="12">3147</text>
 <polygon points="789,191 793,194 788,194 789,191" stroke="#0000cd" fill="#0000cd"/>
 <polyline points="898,71 909,73 920,75 931,78 943,80 955,82 966,84 978,86 990,89 1001,91 1012,93" stroke="#0000cd" fill="none"/>
 <text x="945" y="76" fill="#000000" font-family="Arial" font-size="12">310</text>
 <polygon points="1013,91 1018,94 1013,95 1013,91" stroke="#0000cd" fill="#0000cd"/>
 <polyline points="865,191 869,190 873,189 877,187 882,186 886,185 891,184 895,182 899,181 904,179 908,178 923,173 939,167 955,161 970,155 986,149 1000,143 1014,137 1028,132 1040,127 1051,122" stroke="#0000cd" fill="none"/>
 <text x="949" y="150" fill="#000000" font-family="Arial" font-size="12">12</text>
 <polygon points="1051,120 1056,120 1052,124 1051,120" stroke="#0000cd" fill="#0000cd"/>
 <polygon points="1126,594 1051,594 1049,597 1049,620 1123,620 1126,617 1126,594" stroke="#bebebe" fill="#ffffff"/>
 <polyline points="1123,597 1049,597" stroke="#bebebe" fill="none"/>
 <polyline points="1123,597 1123,620" stroke="#bebebe" fill="none"/>
 <polyline points="1123,597 1126,594" stroke="#bebebe" fill="none"/>
 <text x="1057" y="610" fill="#000000" font-family="Arial" font-size="12">Effect.h</text>
 <polygon points="142,548 23,548 20,551 20,574 139,574 142,571 142,548" stroke="#bebebe" fill="#ffffff"/>
 <polyline points="139,551 20,551" stroke="#bebebe" fill="none"/>
 <polyline points="139,551 139,574" stroke="#bebebe" fill="none"/>
 <polyline points="139,551 142,548" stroke="#bebebe" fill="none"/>
 <text x="28" y="564" fill="#000000" font-family="Arial" font-size="12">jamesdsp.cpp</text>
 <polyline points="101,574 109,580 119,586 130,593 142,600 155,608 168,615 182,622 196,629 210,635 224,641 304,671 376,697 441,717 503,732 562,742 621,746 684,744 751,737 825,723 908,704 927,698 945,692 963,684 981,675 998,666 1014,657 1029,648 1042,639 1055,630 1065,623" stroke="#0000cd" fill="none"/>
 <text x="563" y="723" fill="#000000" font-family="Arial" font-size="12">2</text>
 <polygon points="1064,622 1069,620 1066,624 1064,622" stroke="#0000cd" fill="#0000cd"/>
 <polygon points="642,520 495,520 493,523 493,546 639,546 642,543 642,520" stroke="#bebebe" fill="#ffffff"/>
 <polyline points="639,523 493,523" stroke="#bebebe" fill="none"/>
 <polyline points="639,523 639,546" stroke="#bebebe" fill="none"/>
 <polyline points="639,523 642,520" stroke="#bebebe" fill="none"/>
 <text x="501" y="536" fill="#000000" font-family="Arial" font-size="12">EffectDSPMain.h</text>
 <polyline points="142,558 170,556 202,554 237,552 273,550 311,548 349,546 387,544 423,542 456,540 487,538" stroke="#0000cd" fill="none"/>
 <text x="304" y="537" fill="#000000" font-family="Arial" font-size="12">1</text>
 <polygon points="487,536 492,537 487,539 487,536" stroke="#0000cd" fill="#0000cd"/>
 <polygon points="392,407 227,407 225,410 225,433 389,433 392,430 392,407" stroke="#bebebe" fill="#ffffff"/>
 <polyline points="389,410 225,410" stroke="#bebebe" fill="none"/>
 <polyline points="389,410 389,433" stroke="#bebebe" fill="none"/>
 <polyline points="389,410 392,407" stroke="#bebebe" fill="none"/>
 <text x="233" y="423" fill="#000000" font-family="Arial" font-size="12">EffectDSPMain.cpp</text>
 <polyline points="103,548 117,539 133,529 151,518 171,505 191,493 211,480 231,468 250,456 267,445 282,436" stroke="#0000cd" fill="none"/>
 <text x="179" y="488" fill="#000000" font-family="Arial" font-size="12">4</text>
 <polygon points="281,434 286,433 283,437 281,434" stroke="#0000cd" fill="#0000cd"/>
 <polygon points="877,669 784,669 782,672 782,695 874,695 877,692 877,669" stroke="#bebebe" fill="#ffffff"/>
 <polyline points="874,672 782,672" stroke="#bebebe" fill="none"/>
 <polyline points="874,672 874,695" stroke="#bebebe" fill="none"/>
 <polyline points="874,672 877,669" stroke="#bebebe" fill="none"/>
 <text x="790" y="685" fill="#000000" font-family="Arial" font-size="12">Effect.cpp</text>
 <polyline points="130,574 155,581 185,588 217,596 253,605 290,615 330,624 370,633 411,642 452,650 492,658 510,661 527,663 541,664 555,665 567,666 580,667 593,668 608,670 624,673 642,678 647,680 651,681 654,683 657,685 660,686 663,688 666,690 669,691 673,693 678,694 688,696 698,697 708,698 718,698 728,698 738,698 748,697 758,696 767,694 776,693" stroke="#0000cd" fill="none"/>
 <text x="438" y="640" fill="#000000" font-family="Arial" font-size="12">2</text>
 <polygon points="776,692 781,693 777,695 776,692" stroke="#0000cd" fill="#0000cd"/>
 <polyline points="630,520 631,519 632,518 634,517 635,517 636,516 637,515 638,514 640,513 641,512 642,511 651,500 657,489 660,479 661,468 662,457 662,446 663,435 665,423 670,412 678,400 682,396 685,394 688,392 692,390 695,389 699,388 702,387 706,386 710,384 714,381 717,378 723,371 731,361 742,349 754,334 767,319 780,303 792,288 804,274 814,262" stroke="#0000cd" fill="none"/>
 <text x="692" y="375" fill="#000000" font-family="Arial" font-size="12">2</text>
 <polygon points="812,260 817,257 815,262 812,260" stroke="#0000cd" fill="#0000cd"/>
 <polyline points="637,546 641,547 645,548 649,548 653,549 658,550 662,551 666,551 670,552 674,552 678,553 719,559 760,565 802,571 843,577 883,582 921,587 957,591 989,595 1018,599 1043,602" stroke="#0000cd" fill="none"/>
 <text x="825" y="558" fill="#000000" font-family="Arial" font-size="12">2</text>
 <polygon points="1043,600 1048,603 1043,604 1043,600" stroke="#0000cd" fill="#0000cd"/>
 <polyline points="631,520 632,519 633,518 635,517 636,517 637,516 638,515 639,514 640,513 641,512 642,511 656,493 664,476 668,459 668,442 668,425 666,407 665,389 666,370 670,350 678,329 681,323 685,318 688,314 691,311 695,308 698,305 702,302 706,298 710,293 714,288 719,280 723,273 725,266 727,259 729,253 732,247 734,240 738,234 743,228 750,222 753,219 757,217 761,215 764,213 768,211 772,210 776,208 780,207 784,206 788,205" stroke="#0000cd" fill="none"/>
 <text x="692" y="282" fill="#000000" font-family="Arial" font-size="12">2</text>
 <polygon points="788,203 793,204 789,207 788,203" stroke="#0000cd" fill="#0000cd"/>
 <polygon points="867,143 794,143 792,146 792,169 864,169 867,166 867,143" stroke="#bebebe" fill="#ffffff"/>
 <polyline points="864,146 792,146" stroke="#bebebe" fill="none"/>
 <polyline points="864,146 864,169" stroke="#bebebe" fill="none"/>
 <polyline points="864,146 867,143" stroke="#bebebe" fill="none"/>
 <text x="800" y="159" fill="#000000" font-family="Arial" font-size="12">gverb.h</text>
 <polyline points="632,520 633,519 634,518 635,517 636,516 637,516 638,515 639,514 640,513 641,512 642,511 659,487 667,463 669,439 667,416 663,393 659,369 656,345 657,321 664,296 678,270 681,266 684,264 688,262 691,261 695,260 699,259 702,258 706,257 710,254 714,251 720,243 725,236 728,228 729,221 731,213 732,206 735,199 738,192 743,185 750,178 753,176 756,173 760,171 764,169 767,168 771,166 775,164 779,163 782,162 786,161" stroke="#0000cd" fill="none"/>
 <text x="692" y="245" fill="#000000" font-family="Arial" font-size="12">3</text>
 <polygon points="786,159 791,160 787,163 786,159" stroke="#0000cd" fill="#0000cd"/>
 <polygon points="896,348 765,348 762,351 762,374 893,374 896,371 896,348" stroke="#bebebe" fill="#ffffff"/>
 <polyline points="893,351 762,351" stroke="#bebebe" fill="none"/>
 <polyline points="893,351 893,374" stroke="#bebebe" fill="none"/>
 <polyline points="893,351 896,348" stroke="#bebebe" fill="none"/>
 <text x="770" y="364" fill="#000000" font-family="Arial" font-size="12">libHybridConv.h</text>
 <polyline points="628,520 629,519 631,518 632,517 634,517 635,516 637,515 638,514 639,513 641,512 642,511 649,505 654,498 657,492 659,486 661,479 663,473 665,466 668,459 672,452 678,445 685,439 694,433 704,426 716,418 730,411 743,403 757,396 771,389 784,382 796,376" stroke="#0000cd" fill="none"/>
 <text x="692" y="415" fill="#000000" font-family="Arial" font-size="12">3</text>
 <polygon points="795,375 801,374 797,378 795,375" stroke="#0000cd" fill="#0000cd"/>
 <polygon points="867,503 794,503 792,506 792,529 864,529 867,526 867,503" stroke="#bebebe" fill="#ffffff"/>
 <polyline points="864,506 792,506" stroke="#bebebe" fill="none"/>
 <polyline points="864,506 864,529" stroke="#bebebe" fill="none"/>
 <polyline points="864,506 867,503" stroke="#bebebe" fill="none"/>
 <text x="800" y="519" fill="#000000" font-family="Arial" font-size="12">firgen.h</text>
 <polyline points="631,546 639,547 647,548 655,549 663,550 672,550 680,550 689,550 697,550 706,549 714,548 721,547 729,546 736,544 744,542 751,541 758,539 766,537 773,535 780,533 786,531" stroke="#0000cd" fill="none"/>
 <text x="692" y="542" fill="#000000" font-family="Arial" font-size="12">1</text>
 <polygon points="786,529 791,529 787,532 786,529" stroke="#0000cd" fill="#0000cd"/>
 <polygon points="888,615 773,615 770,618 770,641 885,641 888,638 888,615" stroke="#bebebe" fill="#ffffff"/>
 <polyline points="885,618 770,618" stroke="#bebebe" fill="none"/>
 <polyline points="885,618 885,641" stroke="#bebebe" fill="none"/>
 <polyline points="885,618 888,615" stroke="#bebebe" fill="none"/>
 <text x="778" y="631" fill="#000000" font-family="Arial" font-size="12">compressor.h</text>
 <polyline points="624,546 626,547 628,548 630,549 632,550 634,551 636,551 637,552 639,553 640,554 642,555 647,559 651,563 655,567 657,572 660,576 662,580 665,584 668,588 672,592 678,596 686,600 694,604 703,608 712,611 720,614 729,616 738,619 747,621 756,622 765,624" stroke="#0000cd" fill="none"/>
 <text x="692" y="590" fill="#000000" font-family="Arial" font-size="12">2</text>
 <polygon points="765,622 770,624 764,625 765,622" stroke="#0000cd" fill="#0000cd"/>
 <polyline points="630,546 631,547 632,548 634,549 635,550 636,551 637,551 638,552 640,553 641,554 642,555 651,566 656,578 658,589 659,601 659,613 658,624 659,635 662,646 668,657 678,667 686,673 696,678 705,682 715,685 726,688 736,689 746,690 756,690 766,690 776,690" stroke="#0000cd" fill="none"/>
 <text x="692" y="661" fill="#000000" font-family="Arial" font-size="12">2</text>
 <polygon points="776,688 781,690 777,692 776,688" stroke="#0000cd" fill="#0000cd"/>
 <polyline points="329,407 340,400 353,392 368,383 384,373 401,362 418,351 437,340 455,329 474,318 492,307 510,296 527,288 541,280 555,273 567,266 580,259 593,252 608,244 624,235 642,224 646,221 650,218 653,216 656,213 659,211 662,208 665,206 669,204 673,203 678,201 682,200 686,199 690,198 693,198 696,198 699,198 702,198 706,199 710,200 714,201 719,203 723,204 727,206 730,209 732,211 735,213 738,215 741,218 745,220 750,222 753,223 757,225 760,226 764,227 767,228 770,229 774,231 777,232 781,233 784,234" stroke="#0000cd" fill="none"/>
 <text x="563" y="218" fill="#000000" font-family="Arial" font-size="12">1</text>
 <polygon points="785,232 789,235 784,235 785,232" stroke="#0000cd" fill="#0000cd"/>
 <polyline points="392,430 446,437 507,444 574,452 642,461 709,469 770,476 825,483 868,488 896,492 908,494 927,502 946,510 964,520 982,531 999,541 1015,552 1030,563 1044,573 1056,583 1067,591" stroke="#0000cd" fill="none"/>
 <text x="687" y="459" fill="#000000" font-family="Arial" font-size="12">45</text>
 <polygon points="1068,589 1071,594 1066,592 1068,589" stroke="#0000cd" fill="#0000cd"/>
 <polyline points="370,407 385,404 400,401 416,397 432,394 448,390 464,387 480,384 495,380 509,378 522,375" stroke="#0000cd" fill="none"/>
 <text x="438" y="383" fill="#000000" font-family="Arial" font-size="12">2</text>
 <polygon points="521,373 527,373 522,376 521,373" stroke="#0000cd" fill="#0000cd"/>
 <polyline points="310,407 312,390 316,368 322,342 329,313 339,281 351,249 366,216 383,185 404,156 428,130 436,123 446,117 455,111 466,106 476,102 486,99 497,96 507,93 517,91 526,90" stroke="#0000cd" fill="none"/>
 <text x="438" y="107" fill="#000000" font-family="Arial" font-size="12">8</text>
 <polygon points="526,88 531,89 527,91 526,88" stroke="#0000cd" fill="#0000cd"/>
 <polyline points="323,433 330,439 338,447 347,454 357,463 367,471 379,479 390,487 403,494 415,501 428,507 433,509 439,512 445,514 451,516 457,517 463,519 469,521 475,522 481,523 487,524" stroke="#0000cd" fill="none"/>
 <text x="429" y="501" fill="#000000" font-family="Arial" font-size="12">628</text>
 <polygon points="488,523 492,525 487,526 488,523" stroke="#0000cd" fill="#0000cd"/>
 <polygon points="605,476 532,476 530,479 530,502 602,502 605,499 605,476" stroke="#bebebe" fill="#ffffff"/>
 <polyline points="602,479 530,479" stroke="#bebebe" fill="none"/>
 <polyline points="602,479 602,502" stroke="#bebebe" fill="none"/>
 <polyline points="602,479 605,476" stroke="#bebebe" fill="none"/>
 <text x="538" y="492" fill="#000000" font-family="Arial" font-size="12">firgen.c</text>
 <polyline points="329,433 336,437 344,442 353,447 363,453 373,458 384,463 394,468 406,473 417,477 428,480 438,482 448,485 458,486 468,488 478,489 487,490 497,490 506,491 515,491 524,491" stroke="#0000cd" fill="none"/>
 <text x="438" y="474" fill="#000000" font-family="Arial" font-size="12">2</text>
 <polygon points="524,489 529,491 524,492 524,489" stroke="#0000cd" fill="#0000cd"/>
 <polyline points="312,407 316,393 322,376 329,355 337,332 348,308 360,283 374,257 390,233 408,210 428,189 455,166 482,151 507,140 532,135 558,133 585,133 614,136 644,140 677,143 714,146 721,146 729,147 736,147 744,148 751,148 758,149 766,150 773,150 780,151 786,152" stroke="#0000cd" fill="none"/>
 <text x="558" y="126" fill="#000000" font-family="Arial" font-size="12">14</text>
 <polygon points="787,150 791,152 786,153 787,150" stroke="#0000cd" fill="#0000cd"/>
 <polyline points="337,407 345,404 353,400 361,396 370,392 380,388 389,384 399,379 409,375 419,371 428,367 436,364 443,361 449,358 454,356 459,354 465,351 470,349 477,347 484,345 492,343 515,338 534,335 552,333 569,331 584,330 600,330 617,330 635,330 655,330 678,329 682,329 686,328 690,328 693,328 696,328 699,328 702,328 706,328 710,328 714,329 721,330 729,331 736,333 744,335 751,336 758,338 766,340 773,342 780,344 786,346" stroke="#0000cd" fill="none"/>
 <text x="563" y="323" fill="#000000" font-family="Arial" font-size="12">6</text>
 <polygon points="787,345 791,348 786,348 787,345" stroke="#0000cd" fill="#0000cd"/>
 <polygon points="605,171 532,171 530,174 530,197 602,197 605,194 605,171" stroke="#bebebe" fill="#ffffff"/>
 <polyline points="602,174 530,174" stroke="#bebebe" fill="none"/>
 <polyline points="602,174 602,197" stroke="#bebebe" fill="none"/>
 <polyline points="602,174 605,171" stroke="#bebebe" fill="none"/>
 <text x="538" y="187" fill="#000000" font-family="Arial" font-size="12">gverb.c</text>
 <polyline points="313,407 318,395 324,380 331,362 341,343 351,323 364,303 377,282 393,262 410,244 428,228 437,222 446,216 456,211 466,207 476,203 486,199 496,196 506,194 515,192 524,190" stroke="#0000cd" fill="none"/>
 <text x="433" y="205" fill="#000000" font-family="Arial" font-size="12">10</text>
 <polygon points="524,188 529,189 525,191 524,188" stroke="#0000cd" fill="#0000cd"/>
 <polygon points="626,564 511,564 508,567 508,590 623,590 626,587 626,564" stroke="#bebebe" fill="#ffffff"/>
 <polyline points="623,567 508,567" stroke="#bebebe" fill="none"/>
 <polyline points="623,567 623,590" stroke="#bebebe" fill="none"/>
 <polyline points="623,567 626,564" stroke="#bebebe" fill="none"/>
 <text x="516" y="580" fill="#000000" font-family="Arial" font-size="12">compressor.c</text>
 <polyline points="319,433 325,441 333,451 341,461 351,473 362,484 374,496 387,508 400,519 414,529 428,538 435,542 442,545 450,549 457,552 465,555 472,557 480,560 488,562 495,564 503,566" stroke="#0000cd" fill="none"/>
 <text x="438" y="532" fill="#000000" font-family="Arial" font-size="12">2</text>
 <polygon points="503,565 508,567 502,568 503,565" stroke="#0000cd" fill="#0000cd"/>
 <polygon points="634,407 503,407 500,410 500,433 631,433 634,430 634,407" stroke="#bebebe" fill="#ffffff"/>
 <polyline points="631,410 500,410" stroke="#bebebe" fill="none"/>
 <polyline points="631,410 631,433" stroke="#bebebe" fill="none"/>
 <polyline points="631,410 634,407" stroke="#bebebe" fill="none"/>
 <text x="508" y="423" fill="#000000" font-family="Arial" font-size="12">libHybridConv.c</text>
 <polyline points="392,420 402,420 412,420 423,420 433,420 444,420 454,420 465,420 475,420 485,420 495,420" stroke="#0000cd" fill="none"/>
 <text x="433" y="414" fill="#000000" font-family="Arial" font-size="12">21</text>
 <polygon points="495,418 500,420 495,422 495,418" stroke="#0000cd" fill="#0000cd"/>
 <polyline points="320,433 331,447 346,465 363,486 382,508 402,531 422,553 442,574 461,592 478,607 492,617 509,626 525,632 539,635 553,637 567,639 580,640 594,642 609,645 625,650 642,658 647,661 651,664 654,668 657,671 659,674 662,677 665,680 668,683 673,686 678,688 682,689 686,690 689,690 693,690 696,690 699,689 702,689 706,688 710,688 714,688 720,688 726,688 733,688 739,687 745,687 752,686 758,686 764,686 770,685 776,685" stroke="#0000cd" fill="none"/>
 <text x="563" y="611" fill="#000000" font-family="Arial" font-size="12">6</text>
 <polygon points="776,684 781,685 777,687 776,684" stroke="#0000cd" fill="#0000cd"/>
 <polyline points="875,669 890,665 906,660 923,655 941,649 959,644 977,639 995,634 1012,629 1028,624 1043,620" stroke="#0000cd" fill="none"/>
 <text x="954" y="636" fill="#000000" font-family="Arial" font-size="12">4</text>
 <polygon points="1043,618 1048,618 1044,621 1043,618" stroke="#0000cd" fill="#0000cd"/>
 <polygon points="1121,397 1056,397 1053,400 1053,423 1118,423 1121,420 1121,397" stroke="#bebebe" fill="#ffffff"/>
 <polyline points="1118,400 1053,400" stroke="#bebebe" fill="none"/>
 <polyline points="1118,400 1118,423" stroke="#bebebe" fill="none"/>
 <polyline points="1118,400 1121,397" stroke="#bebebe" fill="none"/>
 <text x="1061" y="413" fill="#000000" font-family="Arial" font-size="12">fftw3.h</text>
 <polyline points="896,374 911,377 926,380 942,383 959,386 975,389 991,392 1007,395 1021,398 1035,400 1048,403" stroke="#0000cd" fill="none"/>
 <text x="954" y="378" fill="#000000" font-family="Arial" font-size="12">4</text>
 <polygon points="1048,401 1053,404 1048,404 1048,401" stroke="#0000cd" fill="#0000cd"/>
 <polyline points="605,496 611,497 618,498 625,500 633,501 640,502 648,503 655,504 663,505 670,506 678,507 689,508 700,509 712,510 723,511 734,512 745,512 756,513 767,514 777,514 786,515" stroke="#0000cd" fill="none"/>
 <text x="692" y="501" fill="#000000" font-family="Arial" font-size="12">1</text>
 <polygon points="786,513 791,515 786,516 786,513" stroke="#0000cd" fill="#0000cd"/>
 <polyline points="605,180 620,178 637,177 656,175 675,173 695,171 715,168 734,166 753,164 770,163 786,161" stroke="#0000cd" fill="none"/>
 <text x="683" y="162" fill="#000000" font-family="Arial" font-size="12">159</text>
 <polygon points="786,159 791,160 787,162 786,159" stroke="#0000cd" fill="#0000cd"/>
 <polyline points="613,590 616,591 619,593 622,594 625,595 628,597 631,598 634,600 636,601 639,603 642,604 647,607 651,611 654,614 657,618 660,622 662,625 665,628 668,632 673,634 678,637 687,640 697,643 706,644 716,645 726,646 736,646 746,645 756,645 765,643 774,642" stroke="#0000cd" fill="none"/>
 <text x="687" y="631" fill="#000000" font-family="Arial" font-size="12">59</text>
 <polygon points="774,640 779,641 775,644 774,640" stroke="#0000cd" fill="#0000cd"/>
 <polyline points="602,407 606,405 610,403 614,402 618,400 622,398 626,396 630,394 634,392 638,389 642,387 647,384 650,381 654,378 657,375 659,372 662,369 665,366 669,364 673,361 678,359 686,357 693,355 701,353 709,352 717,351 725,350 733,350 741,350 749,350 757,350" stroke="#0000cd" fill="none"/>
 <text x="683" y="345" fill="#000000" font-family="Arial" font-size="12">153</text>
 <polygon points="757,349 762,351 757,352 757,349" stroke="#0000cd" fill="#0000cd"/>
 <polyline points="634,433 638,434 643,434 647,435 652,435 656,436 661,436 665,437 669,437 674,438 678,438 719,440 762,441 804,440 846,438 887,436 926,432 962,428 995,424 1024,420 1048,416" stroke="#0000cd" fill="none"/>
 <text x="825" y="427" fill="#000000" font-family="Arial" font-size="12">6</text>
 <polygon points="1048,415 1053,416 1048,418 1048,415" stroke="#0000cd" fill="#0000cd"/>
 <polygon points="100,614 65,614 63,617 63,640 97,640 100,637 100,614" stroke="#bebebe" fill="#ffffff"/>
 <polyline points="97,617 63,617" stroke="#bebebe" fill="none"/>
 <polyline points="97,617 97,640" stroke="#bebebe" fill="none"/>
 <polyline points="97,617 100,614" stroke="#bebebe" fill="none"/>
 <text x="71" y="630" fill="#000000" font-family="Arial" font-size="12">iir</text>
</svg>