<svg xmlns="http://www.w3.org/2000/svg" viewBox="0 0 16 16"><style>.st0{opacity:0}.st0,.st1{fill:#f6f6f6}.st2{fill:#424242}.st3{fill:#00539c}.st4{fill:#f0eff1}</style><g id="outline"><path class="st0" d="M0 0h16v16H0z"/><path class="st1" d="M7 0H3.984v3H4v5.694c-.859-.307-1.818-.372-3.012.744-.56.525-.971 1.229-.988 1.997A3.004 3.004 0 0 0 3 14.5c1.088 0 2.066-.59 2.591-1.5h1.683c.735 2.065 2.935 3.419 5.246 2.882 1.051-.243 1.959-.933 2.583-1.811 1.089-1.534 1.041-2.891.621-4.07H16V0H7z"/></g><g id="icon_x5F_bg"><path class="st2" d="M15 8.706V8h-.706c.262.209.497.444.706.706zM7 9h.792c.067-.099.134-.198.208-.292V8H7v1zM5 8h1v1H5zM6.031 1c-.011 0-.02.006-.031.006V1h-.984L5 7h1V2h8v5h1V1H6.031z"/></g><path class="st3" d="M11.5 8c-1.759 0-3.204 1.308-3.449 3H4.929A1.995 1.995 0 0 0 1 11.5a1.995 1.995 0 1 0 3.929.5h3.122c.245 1.691 1.69 3 3.449 3 1.93 0 3.5-1.57 3.5-3.5C15 9.569 13.43 8 11.5 8zm0 5a1.501 1.501 0 1 1 1.5-1.5c0 .826-.673 1.5-1.5 1.5z" id="color_x5F_importance"/><g id="icon_x5F_fg"><path class="st4" d="M11.5 7c.925 0 1.784.281 2.5.762V2H6v6h2.713c.773-.622 1.742-1 2.787-1z"/><circle class="st4" cx="11.5" cy="11.5" r="1.5"/></g></svg>