<svg xmlns="http://www.w3.org/2000/svg" viewBox="0 0 16 16"><style>.st0{opacity:0}.st0,.st1{fill:#f6f6f6}.st2{fill:#00539c}.st3{fill:#424242}.st4{fill:#f0eff1}</style><g id="outline"><path class="st0" d="M0 0h16v16H0z"/><path class="st1" d="M13.571 9c-.276 0-.677.055-1.071.305A1.996 1.996 0 0 0 11.429 9c-.147 0-.289.019-.429.046V0H0v11h9.049a2.47 2.47 0 0 0-.049.482c0 .594.196 1.188.561 1.656.293.355 2.246 2.529 2.246 2.529l.297.333h.909l.3-.352s1.836-2.159 2.148-2.535c.343-.442.54-1.037.54-1.631C16 10.137 14.888 9 13.571 9z"/></g><g id="icon_x5F_bg"><path class="st2" d="M1 1v9h9V1H1zm4 8H2V8h3v1zm0-2H2V6h3v1zm0-3H4v1H3V4H2V3h1V2h1v1h1v1zm1-1h3v1H6V3zm1.21 6.004l-1.188-.025 1.921-2.957h1.16L7.21 9.004z"/><path class="st3" d="M13.571 10c-.527 0-.86.747-1.071 1.25-.211-.503-.545-1.25-1.071-1.25-.728 0-1.429.664-1.429 1.482 0 .375.127.756.329 1.018.29.35 2.222 2.5 2.222 2.5s1.829-2.15 2.119-2.5c.203-.262.33-.643.33-1.018 0-.818-.7-1.482-1.429-1.482z"/></g><g id="icon_x5F_fg"><path class="st4" d="M4 2H3v1H2v1h1v1h1V4h1V3H4zM2 6h3v1H2zM2 8h3v1H2zM6 3h3v1H6zM7.188 9.004L6 8.979l1.922-2.957h1.16z"/></g></svg>