<svg xmlns="http://www.w3.org/2000/svg" viewBox="0 0 16 16"><defs><style>.icon-canvas-transparent,.icon-vs-out{fill:#f6f6f6;}.icon-canvas-transparent{opacity:0;}.icon-vs-bg{fill:#424242;}</style></defs><title>Refresh_grey_16x</title><g id="canvas"><path class="icon-canvas-transparent" d="M16,0V16H0V0Z"/></g><g id="outline"><path class="icon-vs-out" d="M16,8A8,8,0,1,1,1.088,4H0V0H8V8H4a4,4,0,1,0,6.21-3.334l-.833-.554L11.592.78l.833.553A7.992,7.992,0,0,1,16,8Z"/></g><g id="iconBg"><path class="icon-vs-bg" d="M15,8A7,7,0,1,1,3.12,3H1V1H7V7H5V4a5,5,0,1,0,5.764-.169l1.107-1.666A6.989,6.989,0,0,1,15,8Z"/></g></svg>