<svg xmlns="http://www.w3.org/2000/svg" width="16" height="16"><style type="text/css">.icon-canvas-transparent{opacity:0;fill:#F6F6F6;} .icon-vs-out{fill:#F6F6F6;} .icon-vs-bg{fill:#424242;} .icon-vs-action-orange{fill:#C27D1A;}</style><path class="icon-canvas-transparent" d="M16 16h-16v-16h16v16z" id="canvas"/><path class="icon-vs-out" d="M0 5.414v-1.828l3.586-3.586h.828l3 3h.172l1.414-1.414 2.914 2.914-1.5 1.5 2.5 2.5-.71.71c.106.061.206.127.296.206.281-.245.633-.416 1.071-.416 1.317 0 2.429 1.137 2.429 2.482 0 .594-.197 1.189-.54 1.631-.312.376-2.148 2.534-2.148 2.534l-.299.353h-.908l-.298-.332s-1.954-2.176-2.247-2.529c-.196-.254-.339-.545-.434-.851l-.126.126-2.414-2.414h-2.586v-3.586l-1.5 1.5-2.5-2.5z" id="outline"/><path class="icon-vs-action-orange" d="M11.5 8.5l-2.5 2.5-1.5-1.5.5-.5h-3v-4h-1l-1.5 1.5-2-2 3.5-3.5 2 2-1 1h3l1-1 1.5 1.5-2.5 2.5-1.5-1.5.5-.5h-1v3h3l1-1 1.5 1.5z" id="iconBg"/><path class="icon-vs-bg" d="M15 11.482c0 .375-.127.756-.33 1.018-.29.35-2.119 2.5-2.119 2.5s-1.932-2.15-2.222-2.5c-.202-.262-.329-.643-.329-1.018 0-.818.701-1.482 1.429-1.482.526 0 .86.747 1.071 1.25.211-.503.544-1.25 1.071-1.25.729 0 1.429.664 1.429 1.482z" id="notificationBg"/></svg>