<svg xmlns="http://www.w3.org/2000/svg" viewBox="0 0 16 16"><defs><style>.icon-canvas-transparent,.icon-vs-out{fill:#f6f6f6;}.icon-canvas-transparent{opacity:0;}.icon-vs-action-orange{fill:#c27d1a;}</style></defs><title>Class_16x</title><g id="canvas"><path id="_Compound_Path_" data-name="&lt;Compound Path&gt;" class="icon-canvas-transparent" d="M16,16H0V0H16Z"/></g><g id="outline"><path class="icon-vs-out" d="M16,6.586l-3-3L11.586,5H9.414l1-1-4-4H5.586L0,5.586v.828l4,4L6.414,8H7v5H8.586l3,3h.828L16,12.414v-.828L13.914,9.5,16,7.414Z"/></g><g id="iconBg"><path class="icon-vs-action-orange" d="M13,10l2,2-3,3-2-2,1-1H8V7H6L4,9,1,6,6,1,9,4,7,6h5l1-1,2,2-3,3L10,8l1-1H9v4l3,0Z"/></g></svg>