<svg xmlns="http://www.w3.org/2000/svg" viewBox="0 0 16 16"><style>.icon-canvas-transparent{opacity:0;fill:#f6f6f6}.icon-vs-out{fill:#f6f6f6}.icon-vs-fg{fill:#f0eff1}.icon-vs-action-purple{fill:#652d90}.icon-vs-bg{fill:#424242}</style><path class="icon-canvas-transparent" d="M16 16H0V0h16v16z" id="canvas"/><path class="icon-vs-out" d="M16 11.482c0 .594-.197 1.189-.54 1.631-.312.376-2.148 2.534-2.148 2.534l-.299.353h-.908l-.298-.332s-1.954-2.176-2.247-2.529c-.034-.044-.059-.093-.09-.139H2.25A2.253 2.253 0 0 1 0 10.75v-5.5A2.252 2.252 0 0 1 2.25 3h.764c.125-1.124 1.08-2 2.236-2h1.5c1.156 0 2.111.876 2.236 2h.764C10.99 3 12 4.009 12 5.25v3.859c.187.074.354.179.5.307A1.594 1.594 0 0 1 13.571 9C14.888 9 16 10.137 16 11.482z" id="outline"/><g id="iconBg"><path class="icon-vs-action-purple" d="M9 11.482c0-.164.018-.325.049-.482H9V5h1v4.5a2.38 2.38 0 0 1 1-.454V5.25C11 4.561 10.439 4 9.75 4H8v-.75C8 2.561 7.439 2 6.75 2h-1.5C4.561 2 4 2.561 4 3.25V4H2.25C1.561 4 1 4.561 1 5.25v5.5c0 .689.561 1.25 1.25 1.25h6.805A2.736 2.736 0 0 1 9 11.482zM3 11H2V5h1v6zm4-7H5v-.75A.25.25 0 0 1 5.25 3h1.5a.25.25 0 0 1 .25.25V4z"/><path class="icon-vs-bg" d="M15 11.482c0 .375-.127.756-.33 1.018-.29.35-2.119 2.5-2.119 2.5s-1.932-2.15-2.222-2.5A1.722 1.722 0 0 1 10 11.482c0-.818.701-1.482 1.429-1.482.526 0 .86.747 1.071 1.25.211-.503.544-1.25 1.071-1.25.729 0 1.429.664 1.429 1.482z"/></g><g id="iconFg"><path class="icon-vs-fg" d="M9.049 11H9V5h1v4.5a2.53 2.53 0 0 0-.951 1.5zM2 11h1V5H2v6z"/></g></svg>