<svg xmlns="http://www.w3.org/2000/svg" viewBox="0 0 16 16"><style>.st0{opacity:0}.st0,.st1{fill:#f6f6f6}.st2{fill:#424242}.st3{fill:#00539c}.st4{fill:#f0eff1}</style><g id="outline"><path class="st0" d="M0 0h16v16H0z"/><path class="st1" d="M5 0v5.586l-1 1V9H0v7h8v-4h8V0z"/></g><g id="icon_x5F_bg"><path class="st2" d="M12 10h1v1h-1zM14 10h1v1h-1zM6 1v4h1V2h7v7h1V1z"/></g><g id="color_x5F_importance"><path class="st3" d="M6 6L5 7v2h5v1H8v1h2l1-1V7l-1-1H6zm4 2H6V7h4v1z"/><path class="st3" d="M1 15h6v-5H1v5zm1-3h4v1H2v-1z"/></g><g id="icon_x5F_fg"><path class="st4" d="M2 12h4v1H2zM6 7h4v1H6zM8 9h2v1H8z"/><path class="st4" d="M7 2v3h3.414L12 6.586V9h2V2z"/></g></svg>