<svg xmlns="http://www.w3.org/2000/svg" viewBox="0 0 16 16"><style>.st0{opacity:0}.st0,.st1{fill:#f6f6f6}.st2{fill:#424242}.st3{fill:#c27d1a}.st4{fill:#f0eff1}</style><g id="outline"><path class="st0" d="M0 0h16v16H0z"/><path class="st1" d="M5 0v5.586l-1 1V9H1.586L0 10.586v3.828L1.586 16h4.828L8 14.414V12h8V0z"/></g><g id="icon_x5F_bg"><path class="st2" d="M14 10h1v1h-1zM12 10h1v1h-1zM6 1v4h1V2h7v7h1V1z"/></g><g id="color_x5F_importance"><path class="st3" d="M2 10l-1 1v3l1 1h4l1-1v-3l-1-1H2zm4 4H2v-1h4v1zm0-2H2v-1h4v1zM6 6L5 7v2h5v1H7.414l.586.586V11h2l1-1V7l-1-1H6zm4 2H6V7h4v1z"/></g><g id="icon_x5F_fg"><path class="st4" d="M2 11h4v1H2zM2 13h4v1H2zM6 7h4v1H6zM7.414 10H10V9H6.414z"/><path class="st4" d="M7 2v3h3.414L12 6.586V9h2V2z"/></g></svg>