<svg xmlns="http://www.w3.org/2000/svg" viewBox="0 0 16 16"><style>.st0{opacity:0}.st0,.st1{fill:#f6f6f6}.st2{fill:#424242}.st3{fill:#f0eff1}</style><g id="outline"><path class="st0" d="M0 0h16v16H0z"/><path class="st1" d="M13.571 9c-.276 0-.677.055-1.071.305A1.996 1.996 0 0 0 11.429 9c-.147 0-.289.019-.429.046V0H0v11h9.049a2.47 2.47 0 0 0-.049.482c0 .594.196 1.188.561 1.656.293.355 2.246 2.529 2.246 2.529l.297.333h.909l.3-.352s1.836-2.159 2.148-2.535c.343-.442.54-1.037.54-1.631C16 10.137 14.888 9 13.571 9z"/></g><g id="icon_x5F_bg"><path class="st2" d="M10 9.5V1H1v9h8.507c.141-.189.306-.357.493-.5zM2 9V2h7v7H2z"/><path class="st2" d="M5 7h1v1H5zM5 3h1v3H5z"/></g><path class="st3" d="M2 2v7h7V2H2zm4 6H5V7h1v1zm0-2H5V3h1v3z" id="icon_x5F_fg"/><path class="st2" d="M13.571 10c-.527 0-.86.747-1.071 1.25-.211-.503-.545-1.25-1.071-1.25-.728 0-1.429.664-1.429 1.482 0 .375.127.756.329 1.018.29.35 2.222 2.5 2.222 2.5s1.829-2.15 2.119-2.5c.203-.262.33-.643.33-1.018 0-.818-.7-1.482-1.429-1.482z" id="not_x5F_bg"/></svg>