<svg xmlns="http://www.w3.org/2000/svg" viewBox="0 0 16 16"><style>.st0{opacity:0}.st0,.st1{fill:#f6f6f6}.st2{fill:#424242}.st3{fill:#00539c}.st4{fill:#f0eff1}</style><g id="outline"><path class="st0" d="M0 0h16v16H0z"/><path class="st1" d="M16 0H5v5.882l-5 2.5v5.236L4.764 16h.472L12 12.618V12h4z"/></g><g id="icon_x5F_bg"><path class="st2" d="M12 10h1v1h-1zM14 10h1v1h-1zM6 1v4.382l1-.5V2h7v7h1V1z"/></g><path class="st3" d="M1 9v4l4 2 6-3V8L7 6 1 9zm4 1L3 9l4-2 2 1-4 2z" id="color_x5F_importance"/><g id="icon_x5F_fg"><path class="st4" d="M7 2v2.882l5 2.5V9h2V2zM3 9l2 1 4-2-2-1z"/></g></svg>