<svg xmlns="http://www.w3.org/2000/svg" viewBox="0 0 16 16"><style>.st0{fill:#f6f6f6}.st1{fill:#00539c}.st2{fill:#f0eff1}.st3{fill:#424242}</style><g id="outline"><path class="st0" d="M6.739 0L0 3.369v5.236L4.789 11h.42L12 7.605V2.369L7.263 0zM13.571 9c-.276 0-.677.055-1.071.305A1.996 1.996 0 0 0 11.429 9C10.112 9 9 10.137 9 11.482c0 .594.196 1.188.561 1.656.293.355 2.246 2.529 2.246 2.529l.297.333h.909l.3-.352s1.836-2.159 2.148-2.535c.343-.442.54-1.037.54-1.631C16 10.137 14.888 9 13.571 9z"/></g><path class="st1" d="M1 4v4l4 2 6-3V3L7 1 1 4zm4 1L3 4l4-2 2 1-4 2z" id="color_x5F_importance"/><path class="st2" d="M3 4l2 1 4-2-2-1z" id="icon_x5F_fg"/><path class="st3" d="M13.571 10c-.527 0-.86.747-1.071 1.25-.211-.503-.545-1.25-1.071-1.25-.728 0-1.429.664-1.429 1.482 0 .375.127.756.329 1.018.29.35 2.222 2.5 2.222 2.5s1.829-2.15 2.119-2.5c.203-.262.33-.643.33-1.018 0-.818-.7-1.482-1.429-1.482z" id="not_x5F_bg"/></svg>