<svg xmlns="http://www.w3.org/2000/svg" viewBox="0 0 16 16"><style>.icon-canvas-transparent{opacity:0;fill:#f6f6f6}.icon-vs-out{fill:#f6f6f6}.icon-vs-bg{fill:#424242}.icon-vs-fg{fill:#f0eff1}.icon-vs-action-blue{fill:#00539c}</style><path class="icon-canvas-transparent" d="M16 16H0V0h16v16z" id="canvas"/><path class="icon-vs-out" d="M16 8.5c0 2.481-2.019 4.5-4.5 4.5-.599 0-1.188-.12-1.735-.351L6.414 16h-.828l-2-2 3.764-3.765A4.474 4.474 0 0 1 7.762 6H5.391l1.084 1.084-2.114 2.113L0 4.934v-.828L4.015 0h.669l1.771 1.771L5.295 3h3.704v1.763A4.468 4.468 0 0 1 11.5 4C13.981 4 16 6.019 16 8.5z" id="outline"/><path class="icon-vs-bg" d="M9.579 11.422A3.485 3.485 0 0 0 11.5 12 3.5 3.5 0 1 0 8 8.5c0 .711.215 1.369.578 1.922L5 14l1 1 3.579-3.578zM9 8.5a2.5 2.5 0 1 1 5 0 2.5 2.5 0 0 1-5 0z" id="iconBg"/><path class="icon-vs-fg" d="M14 8.5a2.5 2.5 0 1 1-5 0 2.5 2.5 0 0 1 5 0z" id="iconFg"/><path class="icon-vs-action-blue" d="M4.354 1.084l.707.707L2.977 4h5.022v1H2.977l2.084 2.084-.707.707L1 4.513l3.354-3.429z" id="colorAction"/></svg>