<svg xmlns="http://www.w3.org/2000/svg" viewBox="0 0 16 16"><style>.st0{fill:#f6f6f6}.st1{fill:#00539c}.st2{fill:#f0eff1}.st3{fill:#424242}</style><g id="outline"><path class="st0" d="M16 4.5C16 2.018 13.981 0 11.5 0 9.586 0 7.899 1.24 7.273 3H5.591A2.99 2.99 0 0 0 3 1.5c-1.654 0-3 1.346-3 3s1.346 3 3 3c1.088 0 2.066-.59 2.591-1.5h1.683c.625 1.758 2.312 3 4.226 3C13.981 9 16 6.98 16 4.5z"/><path class="st0" d="M13.571 9c-.276 0-.677.055-1.071.305A1.996 1.996 0 0 0 11.429 9C10.112 9 9 10.137 9 11.482c0 .594.196 1.188.561 1.656.293.355 2.246 2.529 2.246 2.529l.297.333h.909l.3-.352s1.836-2.159 2.148-2.535c.343-.442.54-1.037.54-1.631C16 10.137 14.888 9 13.571 9z"/></g><path class="st1" d="M11.5 1C9.741 1 8.296 2.308 8.051 4H4.929A1.995 1.995 0 0 0 1 4.5a1.995 1.995 0 1 0 3.929.5h3.122c.245 1.691 1.69 3 3.449 3C13.43 8 15 6.43 15 4.5 15 2.569 13.43 1 11.5 1zm0 5A1.501 1.501 0 1 1 13 4.5c0 .826-.673 1.5-1.5 1.5z" id="color_x5F_importance"/><circle class="st2" cx="11.5" cy="4.5" r="1.5" id="icon_x5F_fg"/><path class="st3" d="M13.571 10c-.527 0-.86.747-1.071 1.25-.211-.503-.545-1.25-1.071-1.25-.728 0-1.429.664-1.429 1.482 0 .375.127.756.329 1.018.29.35 2.222 2.5 2.222 2.5s1.829-2.15 2.119-2.5c.203-.262.33-.643.33-1.018 0-.818-.7-1.482-1.429-1.482z" id="not_x5F_bg"/></svg>