<svg xmlns="http://www.w3.org/2000/svg" viewBox="0 0 16 16"><style>.st0{opacity:0}.st0,.st1{fill:#f6f6f6}.st2{fill:#652d90}.st3{fill:#f0eff1;stroke:#652d90;stroke-width:.15;stroke-miterlimit:10}.st4{fill:#424242}</style><g id="outline"><path class="st0" d="M0 0h16v16H0z"/><path class="st1" d="M.167 8.426v-5.57L5.051.386l4.704 2.481V8.38l-4.464 3.272L.167 8.426zM13.571 9c-.276 0-.677.055-1.071.305A1.996 1.996 0 0 0 11.429 9C10.112 9 9 10.137 9 11.482c0 .594.196 1.188.561 1.656.293.355 2.246 2.529 2.246 2.529l.297.333h.909l.3-.352s1.836-2.159 2.148-2.535c.343-.442.54-1.037.54-1.631C16 10.137 14.888 9 13.571 9z"/></g><path class="st2" d="M8.755 7.874V3.471L5.041 1.512 1.167 3.471v4.403l4.081 2.57 3.507-2.57zm-3.76-5.686l3.07 1.514L5.201 5.42 2.106 3.654l2.889-1.466zm-.024 7.374v.016l-.01-.008-.008.007v-.015L1.786 7.497V4.178l3.209 1.793v3.573l-.024.018zM8.19 7.599L5.614 9.455V5.992L8.19 4.426v3.173z" id="color_x5F_decoration"/><g id="icon_x5F_fg"><path class="st3" d="M4.995 2.188l3.07 1.513L5.201 5.42 2.106 3.654zM4.971 9.562v.015l-.01-.008-.008.008v-.015L1.786 7.497V4.178l3.209 1.793v3.573zM8.19 7.599L5.614 9.455V5.992L8.19 4.426z"/></g><path class="st4" d="M13.571 10c-.527 0-.86.747-1.071 1.25-.211-.503-.545-1.25-1.071-1.25-.728 0-1.429.664-1.429 1.482 0 .375.127.756.329 1.018.29.35 2.222 2.5 2.222 2.5s1.829-2.15 2.119-2.5c.203-.262.33-.643.33-1.018 0-.818-.7-1.482-1.429-1.482z" id="not_x5F_bg"/></svg>