<svg xmlns="http://www.w3.org/2000/svg" viewBox="0 0 16 16"><style>.st0{opacity:0}.st0,.st1{fill:#f6f6f6}.st2{fill:#424242}.st3,.st4{fill:#f0eff1}.st4{stroke:#424242;stroke-width:.15;stroke-miterlimit:10}</style><g id="outline"><path class="st0" d="M0 0h16v16H0z"/><path class="st1" d="M11.051.387l-4.884 2.47V5H3.999C3.029 5 2 5.701 2 7H0v9h7v-2h1c1.299 0 2-1.03 2-2v-1.16l1.291.814 4.464-3.272V2.868L11.051.387z"/></g><g id="icon_x5F_bg"><path class="st2" d="M1 8h1v1H1zM1 12h1v1H1zM1 14h1v1H1zM1 10h1v1H1zM3 14h1v1H3zM5 14h1v1H5zM7.313 6h-3.35S3 6 3 7v5c0 1 .964 1 .964 1h4C8.964 13 9 12 9 12V8.136L7.313 6zM8 10v2H4V7h3v1h1v2zM11.041 1.512L7.167 3.471V5h.619v-.822l3.209 1.793v3.573l-.024.018v.016l-.01-.008-.008.008v-.016L10 8.94v.718l1.248.786 3.507-2.57V3.471l-3.714-1.959zm.16 3.908L8.106 3.654l2.889-1.467 3.07 1.514-2.864 1.719zm2.989 2.179l-2.576 1.856V5.992l2.576-1.566v3.173z"/></g><g id="icon_x5F_fg"><path class="st3" d="M4 7h3v1h1v4H4z"/><path class="st4" d="M10.995 2.188l3.07 1.513-2.864 1.719-3.095-1.766zM14.19 7.599l-2.576 1.856V5.992l2.576-1.566z"/><path class="st3" d="M7.786 4.178V5h.589L10 7.062V8.94l.953.622v.015l.008-.008.01.008v-.015l.024-.018V5.971z"/><path class="st2" d="M7.711 4.05V5h.15v-.694l3.059 1.709V9.45L10 8.851v.178l.879.574.007.148.084-.084.076.051V9.6l.024-.018V5.927z"/></g></svg>