<svg xmlns="http://www.w3.org/2000/svg" viewBox="0 0 16 16"><style>.st0{opacity:0}.st0,.st1{fill:#f6f6f6}.st2{fill:#424242}.st3{fill:#652d90}.st4{stroke:#652d90;stroke-width:.15;stroke-miterlimit:10}.st4,.st5{fill:#f0eff1}</style><g id="outline"><path class="st0" d="M0 0h16v16H0z"/><path class="st1" d="M16 0H5v5.413L.167 7.856v5.57L4.253 16h1.929l3.573-2.619V12H16z"/></g><g id="icon_x5F_bg"><path class="st2" d="M10 10h1v1h-1zM12 10h1v1h-1zM14 10h1v1h-1zM6 1v4.888l1 .527V2h7v7h1V1z"/></g><path class="st3" d="M8.755 12.874V8.471L5.041 6.512 1.167 8.471v4.403l4.081 2.57 3.507-2.57zm-3.76-5.686l3.07 1.513-2.864 1.719-3.095-1.765 2.889-1.467zm-.024 7.373v.016l-.01-.008-.008.008v-.016l-3.167-2.064V9.178l3.209 1.793v3.573l-.024.017zm3.219-1.962l-2.576 1.856v-3.463L8.19 9.426v3.173z" id="color_x5F_decoration"/><g id="icon_x5F_fg"><path class="st4" d="M4.995 7.188l3.07 1.513-2.864 1.719-3.095-1.765zM4.971 14.561v.016l-.01-.008-.008.008v-.016l-3.167-2.064V9.178l3.209 1.793v3.573zM8.19 12.599l-2.576 1.856v-3.463L8.19 9.426z"/><path class="st5" d="M7 2v4.415l2.755 1.453V9H14V2z"/></g></svg>