<svg xmlns="http://www.w3.org/2000/svg" viewBox="0 0 16 16"><style>.st0{opacity:0}.st0,.st1{fill:#f6f6f6}.st2{fill:#424242}.st3{fill:#f0eff1}</style><g id="outline"><path class="st0" d="M0 0h16v16H0z"/><path class="st1" d="M16 0H5v4H4c-1.048 0-1.808.251-2.323.769C.995 5.454.998 6.366 1 7v.998l-1 .065V11l.008.942.992.06v1.087c-.002.545-.005 1.458.677 2.142C2.192 15.748 2.952 16 4 16h1v-2l.078-.967h-1a.491.491 0 0 1-.078-.15V12c0-.697-.24-1.43-.617-2.003C3.76 9.424 4 8.692 4 8V7h1V5h2v1l.097 1.01H8V8c0 .692.24 1.424.617 1.997A3.764 3.764 0 0 0 8 12v.888c-.012.047-.024.107 0 .112H7v3h1c1.048 0 1.808-.252 2.323-.769.683-.684.679-1.597.677-2.231v-.998l.033-.002H16V0z"/></g><g id="icon_x5F_bg"><path class="st2" d="M10 8V7c0-.834.083-2-2-2v1c.416 0 1 .16 1 1v1c0 .832.496 1.73 1 2-.504.262-1 1.166-1 2v1s-.167 1-1 1v1c2.083 0 2-1.166 2-2v-1c0-.947.678-.981 1-1V9c-.297-.02-1-.031-1-1zM2 7v1c0 .969-.703.98-1 1v2c.322.019 1 .053 1 1v1c0 .834-.083 2 2 2v-1c-.833 0-1-1-1-1v-1c0-.834-.496-1.738-1-2 .504-.27 1-1.168 1-2V7c0-.84.584-1 1-1V5C1.917 5 2 6.166 2 7zM12 10h1v1h-1zM14 10h1v1h-1z"/><path class="st2" d="M6 1v3h1V2h7v7h1V1z"/></g><path class="st3" d="M7 2v2h1c1.048 0 1.808.251 2.323.769.683.685.679 1.597.677 2.142v1.087l.971.061L12 9h2V2H7z" id="icon_x5F_fg"/></svg>