<svg xmlns="http://www.w3.org/2000/svg" viewBox="0 0 16 16"><style>.st0{opacity:0}.st0,.st1{fill:#f6f6f6}.st2{fill:#424242}</style><g id="outline"><path class="st0" d="M0 0h16v16H0z"/><path class="st1" d="M1 3s.004.965 0 1L0 5v2l1 1c.003.029 0 1 0 1 0 1.709 1.317 2.979 3.286 3H5V9H4V8c0-.537-.741-1.613-1-2 .259-.389 1-1.467 1-2V3h1V0H4C2.031.021 1 1.277 1 3zM13.571 9c-.276 0-.677.055-1.071.305A1.996 1.996 0 0 0 11.429 9c-.147 0-.291.019-.433.046 0-.016.004-.03.004-.046 0 0-.003-.971 0-1l1-1V5l-1-1c-.004-.035 0-1 0-1C11 1.277 9.969.021 8 0H7v3h1v1c0 .533.741 1.611 1 2-.259.387-1 1.463-1 2v1H7v3h1a3.706 3.706 0 0 0 1.029-.16c.063.47.24.925.531 1.299.293.355 2.246 2.529 2.246 2.529l.298.332h.909l.3-.352s1.836-2.159 2.148-2.535c.343-.442.54-1.037.54-1.631C16 10.137 14.888 9 13.571 9z"/></g><g id="icon_x5F_bg"><path class="st2" d="M2 3v1c0 .969-.703.98-1 1v2c.322.02 1 .053 1 1v1c0 .834-.083 2 2 2v-1c-.833 0-1-1-1-1V8c0-.834-.496-1.738-1-2 .504-.27 1-1.168 1-2V3c0-.84.584-1 1-1V1C1.917 1 2 2.166 2 3zM9.989 9.509A8.91 8.91 0 0 0 10 9V8c0-.947.678-.98 1-1V5c-.297-.02-1-.031-1-1V3c0-.834.083-2-2-2v1c.416 0 1 .16 1 1v1c0 .832.496 1.73 1 2-.504.262-1 1.166-1 2v1s-.167 1-1 1v1c.474 0 .824-.066 1.1-.169a2.53 2.53 0 0 1 .889-1.322zM13.571 10c-.527 0-.86.747-1.071 1.25-.211-.503-.545-1.25-1.071-1.25-.728 0-1.429.664-1.429 1.482 0 .375.127.756.329 1.018.29.35 2.222 2.5 2.222 2.5s1.829-2.15 2.119-2.5c.203-.262.33-.643.33-1.018 0-.818-.7-1.482-1.429-1.482z"/></g></svg>