<svg xmlns="http://www.w3.org/2000/svg" viewBox="0 0 16 16"><style>.icon-canvas-transparent{opacity:0;fill:#f6f6f6}.icon-vs-out{fill:#f6f6f6}.icon-vs-bg{fill:#424242}.icon-vs-fg{fill:#f0eff1}</style><path class="icon-canvas-transparent" d="M16 16H0V0h16v16z" id="canvas"/><path class="icon-vs-out" d="M16 15H0V1h16v14z" id="outline"/><path class="icon-vs-bg" d="M8 8H3V7h5v1zm0 2H3V9h5v1zm-3 2H3v-1h2v1zm6-4H9V7h2v1zm1 2H9V9h3v1zm1 2H6v-1h7v1zM1 2v12h14V2H1zm13 11H2V5h12v8z" id="iconBg"/><g id="iconFg"><path class="icon-vs-fg" d="M2 5v8h12V5H2zm7 2h2v1H9V7zm0 2h3v1H9V9zM3 7h5v1H3V7zm0 2h5v1H3V9zm2 3H3v-1h2v1zm8 0H6v-1h7v1z"/></g></svg>