<svg xmlns="http://www.w3.org/2000/svg" viewBox="0 0 16 16"><style>.st0{fill:#f6f6f6}.st1{fill:#424242}</style><path class="st0" d="M16 6.379l-3-3V0H3v3.379l-3 3v.242L3.379 10h.535L5 8.914V10h4.507c-.313.418-.507.93-.507 1.482 0 .594.196 1.188.561 1.656.293.355 2.246 2.529 2.246 2.529l.297.333h.909l.3-.352s1.836-2.159 2.148-2.535c.343-.442.54-1.037.54-1.631 0-1.33-1.088-2.451-2.384-2.478L16 6.621v-.242z" id="outline"/><g id="icon_x5F_bg"><path class="st1" d="M12 3V1H4v2h1v-.5a.5.5 0 0 1 .5-.5H7v5.5a.5.5 0 0 1-.5.5H6v1h4V8h-.5a.5.5 0 0 1-.5-.5V2h1.5a.5.5 0 0 1 .5.5V3h1zM12.354 4.146l-.708.708L13.293 6.5l-1.647 1.646.708.708L14.707 6.5zM3.646 4.146L1.293 6.5l2.353 2.354.708-.708L2.707 6.5l1.647-1.646z"/></g><path class="st1" d="M13.571 10c-.527 0-.86.747-1.071 1.25-.211-.503-.545-1.25-1.071-1.25-.728 0-1.429.664-1.429 1.482 0 .375.127.756.329 1.018.29.35 2.222 2.5 2.222 2.5s1.829-2.15 2.119-2.5c.203-.262.33-.643.33-1.018 0-.818-.7-1.482-1.429-1.482z" id="not_x5F_bg"/></svg>