<svg xmlns="http://www.w3.org/2000/svg" viewBox="0 0 16 16"><style>.st0{fill:#f6f6f6}.st1{fill:#424242}.st2{fill:#f0eff1}</style><path class="st0" d="M13.571 9c-.157 0-.357.023-.571.085V0H4v6H0v7h7v-2h2.049a2.47 2.47 0 0 0-.049.482c0 .594.196 1.188.561 1.656.293.355 2.246 2.529 2.246 2.529l.297.333h.909l.3-.352s1.836-2.159 2.148-2.535c.343-.442.54-1.037.54-1.631C16 10.137 14.888 9 13.571 9z" id="outline"/><g id="icon_x5F_bg"><path class="st1" d="M1 12h5V7H1v5zm1-4h3v3H2V8zM7 5h3v1H7z"/><path class="st1" d="M7 10h2.507c.448-.6 1.146-1 1.922-1 .157 0 .357.023.571.085V1H5v5h1V2h5v7H7v1z"/><path class="st1" d="M7 3h3v1H7zM7 7h3v1H7z"/></g><g id="icon_x5F_fg"><path class="st2" d="M6 2v4h1V5h3v1H7v1h3v1H7v1h4V2H6zm4 2H7V3h3v1zM2 8.002h3v3H2z"/></g><path class="st1" d="M13.571 10c-.527 0-.86.747-1.071 1.25-.211-.503-.545-1.25-1.071-1.25-.728 0-1.429.664-1.429 1.482 0 .375.127.756.329 1.018.29.35 2.222 2.5 2.222 2.5s1.829-2.15 2.119-2.5c.203-.262.33-.643.33-1.018 0-.818-.7-1.482-1.429-1.482z" id="not_x5F_bg"/></svg>