<svg xmlns="http://www.w3.org/2000/svg" viewBox="0 0 16 16"><style>.icon-canvas-transparent{opacity:0;fill:#f6f6f6}.icon-vs-out{fill:#f6f6f6}.icon-vs-bg{fill:#424242}.icon-vs-fg{fill:#f0eff1}</style><path class="icon-canvas-transparent" d="M16 16H0V0h16v16z" id="canvas"/><path class="icon-vs-out" d="M16 15H9v1H0V7h4V0h12v15z" id="outline"/><path class="icon-vs-fg" d="M6 2v5h7v1H9v2h4v1H9v2h5V2H6zm7 3H7V4h6v1zM2 14V9h5v5H2z" id="iconFg"/><g id="iconBg"><path class="icon-vs-bg" d="M13 5H7V4h6v1zM5 1v6h1V2h8v11H9v1h6V1H5zm4 9v1h4v-1H9zm0-3v1h4V7H9zM8 8v7H1V8h7zM7 9H2v5h5V9z"/></g></svg>