<svg xmlns="http://www.w3.org/2000/svg" width="16" height="16"><style type="text/css">.icon-vs-out{fill:#F6F6F6;} .icon-vs-bg{fill:#424242;} .icon-vs-action-blue{fill:#00539C;} .icon-canvas-transparent{opacity:0;fill:#F6F6F6;}</style><path class="icon-canvas-transparent" d="M0 0h16v16h-16z"/><path class="icon-vs-out" d="M12 7h-4v4h-8v-7h4v-4h8v7zm1.571 2c-.276 0-.677.055-1.071.305-.394-.25-.795-.305-1.071-.305-1.317 0-2.429 1.137-2.429 2.482 0 .594.196 1.188.561 1.656.293.355 2.246 2.529 2.246 2.529l.297.333h.909l.3-.352s1.836-2.159 2.148-2.535c.343-.442.54-1.037.54-1.631-.001-1.345-1.113-2.482-2.43-2.482z"/><path class="icon-vs-bg" d="M15 11.482c0 .375-.127.756-.33 1.018-.29.35-2.119 2.5-2.119 2.5s-1.932-2.15-2.222-2.5c-.202-.262-.329-.643-.329-1.018 0-.818.701-1.482 1.429-1.482.526 0 .86.747 1.071 1.25.211-.503.544-1.25 1.071-1.25.729 0 1.429.664 1.429 1.482z"/><path class="icon-vs-action-blue" d="M11 1v5h-3v-2h-3v-3h6zm-10 9h6v-5h-6v5z"/></svg>