<svg xmlns="http://www.w3.org/2000/svg" viewBox="0 0 16 16"><defs><style>.icon-canvas-transparent,.icon-vs-out{fill:#f6f6f6;}.icon-canvas-transparent{opacity:0;}.icon-vs-fg-2{fill:#f0eff1;}.icon-vs-bg{fill:#424242;}</style></defs><title>FolderOpen_grey_16x</title><g id="canvas"><path class="icon-canvas-transparent" d="M0,0H16V16H0Z"/></g><g id="outline"><path class="icon-vs-out" d="M0,2.969v9A1.944,1.944,0,0,0,.57,13.4,2.4,2.4,0,0,0,2,13.969H13.677L16,8.165v-1.2H15v-2a1.959,1.959,0,0,0-2-2H10.116l-1-2H2A1.942,1.942,0,0,0,0,2.969Z"/></g><g id="iconFg"><path class="icon-vs-fg-2" d="M2,3H8L9,5h4V8H4L2,13Z"/></g><g id="iconBg"><path class="icon-vs-bg" d="M1,3v9a.958.958,0,0,0,1,.984H2V3H8L9,5h4V8H4L2,13H13l2-5H14V5c0-1-1.236-1-1-1H9.5l-1-2H2A.979.979,0,0,0,1,3Z"/></g></svg>