<svg xmlns="http://www.w3.org/2000/svg" viewBox="0 0 16 16"><style>.icon-canvas-transparent{opacity:0;fill:#f6f6f6}.icon-vs-out{fill:#f6f6f6}.icon-vs-fg{fill:#f0eff1}.icon-vs-action-red{fill:#424242}</style><path class="icon-canvas-transparent" d="M16 16H0V0h16v16z" id="canvas"/><path class="icon-vs-out" d="M15 14H1V2h14v12z" id="outline"/><g id="colorAction"><path id="_x3C_Path_x3E__1_" class="icon-vs-action-red" d="M2 3v10h12V3H2zm10 8h-2L8 9l-2 2H4l3-3-3-3h2l2 2 2-2h2L9 8l3 3z"/></g><path class="icon-vs-fg" d="M4 5h2l2 2 2-2h2L9 8l3 3h-2L8 9l-2 2H4l3-3-3-3z" id="iconFg"/></svg>