<svg xmlns="http://www.w3.org/2000/svg" viewBox="0 0 16 16"><style>.st0{opacity:0}.st0,.st1{fill:#f6f6f6}.st2{fill:#424242}.st3{fill:#00539c}.st4{fill:#f0eff1}</style><g id="outline"><path class="st0" d="M0 0h16v16H0z"/><path class="st1" d="M13.571 9c-.276 0-.677.055-1.071.305a1.911 1.911 0 0 0-.5-.22V1.586L10.414 0H1.586L0 1.586v7.828L1.586 11h7.463a2.47 2.47 0 0 0-.049.482c0 .594.196 1.188.561 1.656.293.355 2.246 2.529 2.246 2.529l.297.333h.909l.3-.352s1.836-2.159 2.148-2.535c.343-.442.54-1.037.54-1.631C16 10.137 14.888 9 13.571 9z"/></g><path class="st2" d="M10.949 9.051L11 9V2l-1-1H2L1 2v7l1 1h7.507c.353-.473.86-.824 1.442-.949zM2 2.414L2.414 2h7.172l.414.414v6.172L9.586 9H2.414L2 8.586V2.414z" id="icon_x5F_bg"/><g id="color_x5F_importance_1_"><path class="st3" d="M4 4h4v1H4zM4 6h4v1H4z"/></g><path class="st4" d="M9.586 2H2.414L2 2.414v6.172L2.414 9h7.172L10 8.586V2.414L9.586 2zM8 7H4V6h4v1zm0-2H4V4h4v1z" id="icon_x5F_fg"/><path class="st2" d="M13.571 10c-.527 0-.86.747-1.071 1.25-.211-.503-.545-1.25-1.071-1.25-.728 0-1.429.664-1.429 1.482 0 .375.127.756.329 1.018.29.35 2.222 2.5 2.222 2.5s1.829-2.15 2.119-2.5c.203-.262.33-.643.33-1.018 0-.818-.7-1.482-1.429-1.482z" id="not_x5F_bg"/></svg>