<svg xmlns="http://www.w3.org/2000/svg" viewBox="0 0 16 16"><style>.icon-canvas-transparent{opacity:0;fill:#f6f6f6}.icon-vs-out{fill:#f6f6f6}.icon-vs-bg{fill:#424242}.icon-vs-fg{fill:#f0eff1}.icon-vs-action-blue{fill:#00539c}</style><path class="icon-canvas-transparent" d="M0 0h16v16H0z" id="canvas"/><path class="icon-vs-out" d="M16 4.379V16H3v-.879l-.439.439c-.284.284-.661.44-1.061.44s-.777-.156-1.061-.439a1.501 1.501 0 0 1 0-2.121l1.881-1.881A3.947 3.947 0 0 1 2 10c0-1.005.385-1.914 1-2.618V0h8.621L16 4.379z" id="outline"/><g id="iconFg"><path class="icon-vs-fg" d="M11 2.2V5h2.8z"/><path class="icon-vs-fg" d="M13.793 5H11V2.207L13.793 5zM5.5 14H6c-.084 0-.166-.02-.249-.025-.085.006-.165.025-.251.025zM10 6V2H5v4.142A3.939 3.939 0 0 1 6 6c2.206 0 4 1.794 4 4s-1.794 4-4 4h8V6h-4z"/></g><path class="icon-vs-bg" d="M11.207 1H4v5.556a3.93 3.93 0 0 1 1-.414V2h5v4h4v8H5v-.145c-.189-.05-.378-.098-.558-.175L4 14.121V15h11V4.793L11.207 1zM11 5V2.207L13.793 5H11z" id="iconBg"/><path class="icon-vs-action-blue" d="M6 7c-1.654 0-3 1.346-3 3 0 .647.21 1.243.56 1.733l-2.413 2.413a.5.5 0 0 0 .707.708l2.413-2.413C4.757 12.79 5.353 13 6 13c1.654 0 3-1.346 3-3S7.654 7 6 7zm0 5c-1.103 0-2-.897-2-2s.897-2 2-2 2 .897 2 2-.897 2-2 2z" id="colorAction"/></svg>