<svg xmlns="http://www.w3.org/2000/svg" viewBox="0 0 16 16"><defs><style>.icon-canvas-transparent,.icon-vs-out{fill:#f6f6f6;}.icon-canvas-transparent{opacity:0;}.icon-vs-fg{fill:#f0eff1;}.icon-vs-action-blue{fill:#00539c;}</style></defs><title>Interface_16x</title><g id="canvas"><path class="icon-canvas-transparent" d="M16,16H0V0H16Z"/></g><g id="outline"><path class="icon-vs-out" d="M11.5,12A4.517,4.517,0,0,1,7.272,9H5.862a3.125,3.125,0,1,1,0-3h1.41A4.494,4.494,0,1,1,11.5,12Z"/></g><g id="iconFg"><path class="icon-vs-fg" d="M11.5,9A1.5,1.5,0,1,1,13,7.5,1.5,1.5,0,0,1,11.5,9Z"/></g><g id="iconBg"><path class="icon-vs-action-blue" d="M11.5,4A3.491,3.491,0,0,0,8.05,7H5.185a2.125,2.125,0,1,0,0,1H8.05A3.493,3.493,0,1,0,11.5,4Zm0,5A1.5,1.5,0,1,1,13,7.5,1.5,1.5,0,0,1,11.5,9Z"/></g></svg>