<svg xmlns="http://www.w3.org/2000/svg" viewBox="0 0 16 16"><style>.icon-canvas-transparent{opacity:0;fill:#f6f6f6}.icon-vs-out{fill:#f6f6f6}.icon-vs-bg{fill:#424242}.icon-vs-fg{fill:#f0eff1}.icon-vs-action-green{fill:#388a34}</style><path class="icon-canvas-transparent" d="M16 16H0V0h16v16z" id="canvas"/><path class="icon-vs-out" d="M16 2v4h-2v4h-1v4H0v-4h2V6H0V1h10v1h6z" id="outline"/><path class="icon-vs-fg" d="M8 4H2V3h6v1z" id="iconFg"/><g id="iconBg"><path class="icon-vs-bg" d="M15 5h-4V3h4v2zm-2 2H3v2h10V7zm-7 4H1v2h5v-2zm6 0H8v2h4v-2z"/><path class="icon-vs-action-green" d="M1 2v3h8V2H1zm7 2H2V3h6v1z"/></g></svg>