<svg xmlns="http://www.w3.org/2000/svg" viewBox="0 0 16 16"><defs><style>.icon-canvas-transparent,.icon-vs-out{fill:#f6f6f6;}.icon-canvas-transparent{opacity:0;}.icon-folder{fill:#dcb67a;}.icon-vs-action-blue{fill:#00539c;}</style></defs><title>OpenFolder_16x</title><g id="canvas"><path class="icon-canvas-transparent" d="M16,0V16H0V0Z"/></g><g id="outline"><path class="icon-vs-out" d="M16,9v1.2L13.677,16H2a2.4,2.4,0,0,1-1.43-.566A1.942,1.942,0,0,1,0,14V5A1.942,1.942,0,0,1,2,3H4.486l-.879-.879L5.729,0l4.517,4.518L10,4.765,10.116,5H13a1.959,1.959,0,0,1,2,2V9Z"/></g><g id="iconBg"><path class="icon-folder" d="M2,15.016H2a.959.959,0,0,1-1-.985V8.959a3.5,3.5,0,0,0,1,.707Zm12-4.985v-3c0-1-1.236-1-1-1H9.5L9.244,5.52l-.666.666L9,7.031h4v3H4l-2,5H13l2-5Z"/></g><g id="colorAction"><path class="icon-vs-action-blue" d="M8.832,4.518l-3.1,3.1-.708-.707,1.9-1.9H3.5a1.5,1.5,0,0,0,0,3v1a2.5,2.5,0,0,1,0-5H6.918l-1.9-1.9.708-.707Z"/></g></svg>