<svg xmlns="http://www.w3.org/2000/svg" viewBox="0 0 16 16"><style>.st0{fill:#f6f6f6}.st1{fill:#388a34}.st2{fill:#f0eff1}.st3{fill:#0ff}</style><circle class="st0" cx="8" cy="8" r="8" id="outline"/><g id="icon_x5F_bg"><path class="st1" d="M7.986 1.935c3.337 0 6.052 2.715 6.052 6.052s-2.715 6.052-6.052 6.052-6.052-2.715-6.052-6.052 2.715-6.052 6.052-6.052m0-1a7.052 7.052 0 1 0 0 14.105 7.052 7.052 0 0 0 0-14.105z"/><path class="st1" d="M6 12l5.951-4L6 4z"/></g><path class="st2" d="M8 2a6 6 0 1 0 .002 12.002A6 6 0 0 0 8 2zM6 12V4l5.951 4L6 12z" id="icon_x5F_fg"/></svg>
