<svg xmlns="http://www.w3.org/2000/svg" viewBox="0 0 16 16"><defs><style>.icon-canvas-transparent,.icon-vs-out{fill:#f6f6f6;}.icon-canvas-transparent{opacity:0;}.icon-vs-green{fill:#393;}.icon-white{fill:#fff;}</style></defs><title>StatusOK_16x</title><g id="canvas"><path class="icon-canvas-transparent" d="M16,16H0V0H16Z"/></g><g id="iconBg"><path class="icon-vs-out" d="M8,16a8,8,0,1,1,8-8A8.009,8.009,0,0,1,8,16Z"/><path class="icon-vs-green" d="M8,1a7,7,0,1,0,7,7A7,7,0,0,0,8,1ZM6.3,12.389,3.043,9.132,4.457,7.718,6.3,9.561l5.243-5.243,1.414,1.414Z"/><path class="icon-white" d="M6.3,12.389,3.043,9.132,4.457,7.718,6.3,9.561l5.243-5.243,1.414,1.414Z"/></g></svg>